<?xml version="1.0" encoding="utf-8"?>
<!-- Generator: Adobe Illustrator 27.5.0, SVG Export Plug-In . SVG Version: 6.00 Build 0)  -->
<svg version="1.1" xmlns="http://www.w3.org/2000/svg" xmlns:xlink="http://www.w3.org/1999/xlink" x="0px" y="0px"
	 viewBox="0 0 500 500" style="enable-background:new 0 0 500 500;" xml:space="preserve">
<g id="Floor">
	<path id="Floor_7_" style="fill:#F5F5F5;" d="M89.047,437.101c87.263,46.014,228.742,46.014,316.002,0
		c87.261-46.014,87.261-120.617,0-166.631s-228.74-46.014-316.002,0C1.784,316.483,1.784,391.087,89.047,437.101z"/>
</g>
<g id="Shadow">
	<polygon style="fill:#E0E0E0;" points="163.515,357.296 166.129,354.176 86.758,308.35 81.382,311.454 109.574,327.73 
		82.505,343.358 54.071,326.941 48.695,330.045 129.94,376.947 130.794,375.928 131.22,376.174 162.383,358.216 162.627,358.357 
		163.084,357.812 163.746,357.43 	"/>
	<path id="Shadow_25_" style="fill:#E0E0E0;" d="M388.679,396.86c-17.268,8.231-45.263,8.231-62.531,0
		c-17.268-8.229-17.268-21.573,0-29.803c17.267-8.229,45.263-8.229,62.531,0C405.946,375.287,405.946,388.631,388.679,396.86z"/>
	<path id="Shadow_26_" style="fill:#E0E0E0;" d="M255.098,440.295c-17.268,8.231-45.263,8.231-62.531,0
		c-17.268-8.229-17.268-21.573,0-29.803c17.268-8.229,45.263-8.229,62.531,0C272.365,418.723,272.365,432.067,255.098,440.295z"/>
	<path id="Shadow_29_" style="fill:#E0E0E0;" d="M392.671,408.282c8.579,4.953,22.489,4.953,31.069,0
		c8.579-4.953,8.579-12.984,0-17.938c-8.579-4.953-22.489-4.953-31.069,0S384.091,403.329,392.671,408.282z"/>
	<ellipse id="Shadow_28_" style="fill:#E0E0E0;" cx="89.838" cy="404.571" rx="21.969" ry="12.684"/>
</g>
<g id="Ladder">
	<g id="XMLID_13_">
		<path id="XMLID_1894_" style="fill:#37474F;" d="M131.042,189.484l-44.56,121.27l-0.01,0.02c-0.1,0.31-0.36,0.6-0.78,0.84
			c-1.12,0.65-2.94,0.65-4.06,0c-0.49-0.28-0.76-0.63-0.83-1c-0.02-0.11-0.02-0.22,0-0.33c0.01-0.27,0.06-0.55,0.16-0.83
			l44.68-121.95c0.55-1.49,2.2-2.26,3.69-1.71C130.822,186.344,131.592,187.994,131.042,189.484z"/>
		
			<line id="XMLID_1880_" style="fill:none;stroke:#37474F;stroke-width:6;stroke-miterlimit:10;" x1="71.478" y1="272.922" x2="116.161" y2="298.719"/>
		
			<line id="XMLID_1881_" style="fill:none;stroke:#37474F;stroke-width:6;stroke-miterlimit:10;" x1="103.974" y1="254.161" x2="148.657" y2="279.958"/>
		<path id="XMLID_1887_" style="fill:#455A64;" d="M94.682,181.154l23.83-13.76c1.95-1.12,4.13-1.29,5.98-0.47
			c1.85,0.82,3.18,2.55,3.65,4.75l39.56,185.08c0.03,0.13,0.05,0.25,0.05,0.38c0.02,0.13,0.02,0.27,0.01,0.4
			c-0.07,0.36-0.34,0.71-0.83,0.99c-1.12,0.65-2.94,0.65-4.06,0c-0.42-0.25-0.68-0.55-0.79-0.86c-0.02-0.06-0.03-0.12-0.04-0.17
			l-39.52-184.62c-0.09-0.4-0.25-0.65-0.37-0.7c-0.11-0.05-0.4-0.01-0.76,0.2l-23.84,13.76"/>
		<g id="XMLID_1962_">
			<path id="XMLID_2040_" style="fill:#27DEBF;" d="M133.574,358.023l-14.516-8.381c-0.478-0.276-0.866-0.948-0.866-1.5v-0.345
				c0-0.552,0.388-1.224,0.866-1.5l34.826-20.107c0.478-0.276,1.254-0.276,1.732,0l14.516,8.381c0.478,0.276,0.866,0.948,0.866,1.5
				v0.345c0,0.552-0.388,1.224-0.866,1.5l-34.826,20.107C134.828,358.299,134.052,358.299,133.574,358.023z"/>
			<path id="XMLID_1895_" style="opacity:0.1;" d="M118.446,346.943c-0.157,0.272-0.254,0.577-0.254,0.854v0.345
				c0,0.552,0.388,1.224,0.866,1.5l14.516,8.381c0.239,0.138,0.552,0.207,0.866,0.207v-2.053L118.446,346.943z"/>
			<path id="XMLID_1893_" style="opacity:0.15;" d="M134.44,356.177v2.053c0.313,0,0.627-0.069,0.866-0.207l17.413-10.053
				l17.413-10.053c0.478-0.276,0.866-0.948,0.866-1.5v-0.345c0-0.276-0.097-0.582-0.254-0.854L134.44,356.177z"/>
		</g>
		<g id="XMLID_1955_">
			<path id="XMLID_1960_" style="fill:#27DEBF;" d="M127.28,328.591l-14.516-8.381c-0.478-0.276-0.866-0.948-0.866-1.5v-0.345
				c0-0.552,0.388-1.224,0.866-1.5l34.826-20.107c0.478-0.276,1.254-0.276,1.732,0l14.516,8.381c0.478,0.276,0.866,0.948,0.866,1.5
				v0.345c0,0.552-0.388,1.224-0.866,1.5l-34.826,20.107C128.533,328.868,127.758,328.868,127.28,328.591z"/>
			<path id="XMLID_1892_" style="opacity:0.1;" d="M112.152,317.511c-0.157,0.271-0.254,0.578-0.254,0.854v0.345
				c0,0.552,0.388,1.224,0.866,1.5l14.516,8.381c0.239,0.138,0.552,0.207,0.866,0.207v-2.053L112.152,317.511z"/>
			<path id="XMLID_1890_" style="opacity:0.15;" d="M128.146,326.746v2.053c0.313,0,0.627-0.069,0.866-0.207l17.413-10.054
				l17.413-10.053c0.478-0.276,0.866-0.948,0.866-1.5v-0.345c0-0.276-0.097-0.582-0.254-0.854L128.146,326.746z"/>
		</g>
		<g id="XMLID_1948_">
			<path id="XMLID_1954_" style="fill:#27DEBF;" d="M120.986,299.16l-14.516-8.381c-0.478-0.276-0.866-0.948-0.866-1.5v-0.345
				c0-0.552,0.388-1.224,0.866-1.5l34.826-20.107c0.478-0.276,1.254-0.276,1.732,0l14.516,8.381c0.478,0.276,0.866,0.948,0.866,1.5
				v0.345c0,0.552-0.388,1.224-0.866,1.5l-34.826,20.107C122.24,299.436,121.464,299.436,120.986,299.16z"/>
			<path id="XMLID_1889_" style="opacity:0.1;" d="M105.857,288.08c-0.157,0.271-0.254,0.578-0.254,0.854v0.345
				c0,0.552,0.388,1.224,0.866,1.5l7.258,4.191l7.258,4.191c0.239,0.138,0.552,0.207,0.866,0.207v-2.053L105.857,288.08z"/>
			<path id="XMLID_1888_" style="opacity:0.15;" d="M121.852,297.315v2.053c0.313,0,0.627-0.069,0.866-0.207l17.413-10.054
				l17.413-10.053c0.478-0.276,0.866-0.948,0.866-1.5v-0.345c0-0.276-0.097-0.582-0.254-0.854L121.852,297.315z"/>
		</g>
		<g id="XMLID_1942_">
			<path id="XMLID_1946_" style="fill:#27DEBF;" d="M114.692,269.729l-14.516-8.381c-0.478-0.276-0.866-0.948-0.866-1.5v-0.345
				c0-0.552,0.388-1.224,0.866-1.5l34.826-20.107c0.478-0.276,1.254-0.276,1.732,0l14.516,8.381c0.478,0.276,0.866,0.948,0.866,1.5
				v0.345c0,0.552-0.388,1.224-0.866,1.5l-34.826,20.107C115.945,270.005,115.17,270.005,114.692,269.729z"/>
			<path id="XMLID_1885_" style="opacity:0.15;" d="M115.558,267.883v2.053c0.313,0,0.627-0.069,0.866-0.207l17.413-10.053
				l17.413-10.053c0.478-0.276,0.866-0.948,0.866-1.5v-0.345c0-0.276-0.097-0.582-0.254-0.854L115.558,267.883z"/>
			<path id="XMLID_1886_" style="opacity:0.1;" d="M99.563,258.649c-0.157,0.272-0.254,0.577-0.254,0.854v0.345
				c0,0.552,0.388,1.224,0.866,1.5l14.516,8.381c0.239,0.138,0.552,0.207,0.866,0.207v-2.053L99.563,258.649z"/>
		</g>
		<g id="XMLID_1667_">
			<path id="XMLID_1683_" style="fill:#27DEBF;" d="M108.398,240.297l-24.123-13.924c-0.478-0.276-0.866-0.948-0.866-1.5v-0.345
				c0-0.552,0.388-1.224,0.866-1.5l34.826-20.107c0.478-0.276,1.254-0.276,1.732,0l24.123,13.924c0.478,0.276,0.866,0.948,0.866,1.5
				v0.345c0,0.552-0.388,1.224-0.866,1.5l-34.826,20.107C109.651,240.574,108.876,240.574,108.398,240.297z"/>
			<path id="XMLID_1676_" style="opacity:0.15;" d="M109.264,238.452v2.053c0.313,0,0.627-0.069,0.866-0.207l17.413-10.053
				l17.413-10.053c0.478-0.276,0.866-0.948,0.866-1.5v-0.346c0-0.276-0.097-0.582-0.254-0.854L109.264,238.452z"/>
			<path id="XMLID_1675_" style="opacity:0.1;" d="M83.663,223.674c-0.157,0.271-0.254,0.577-0.254,0.854v0.345
				c0,0.552,0.388,1.224,0.866,1.5l24.123,13.925c0.239,0.138,0.553,0.207,0.866,0.207v-2.053L83.663,223.674z"/>
		</g>
		<path id="XMLID_1896_" style="fill:#37474F;" d="M98.552,208.244l-44.52,121.13l-0.01,0.04l-0.1,0.27
			c-0.13,0.25-0.37,0.49-0.72,0.7c-1.12,0.64-2.94,0.64-4.07,0c-0.49-0.29-0.76-0.64-0.83-1c-0.01-0.11-0.01-0.22,0-0.33
			c0.01-0.29,0.07-0.56,0.17-0.84l44.68-121.95c0.54-1.49,2.19-2.25,3.69-1.71C98.332,205.104,99.092,206.754,98.552,208.244z"/>
		<path id="XMLID_1891_" style="fill:#455A64;" d="M97.552,186.134c-1.32,0.77-2.23,2.81-1.91,4.3l39.57,185.07
			c0.04,0.15,0.06,0.3,0.06,0.45c0.01,0.1,0.01,0.21,0,0.32c-0.06,0.36-0.34,0.72-0.83,1.01c-1.12,0.65-2.94,0.65-4.06,0
			c-0.41-0.24-0.67-0.53-0.79-0.83c0-0.01,0-0.02-0.01-0.03l-0.05-0.24l-39.51-184.54c-0.83-3.89,1.21-8.5,4.66-10.49"/>
	</g>
</g>
<g id="Paint_Pot">
	<g id="Paint_Pot_2_">
		<path id="XMLID_1691_" style="fill:#37474F;" d="M108.595,373.057l-36.705-0.499l-0.319,29.975l0.003,0
			c-0.03,2.713,1.731,5.446,5.293,7.554c7.121,4.216,18.742,4.341,25.956,0.28c3.639-2.049,5.455-4.772,5.453-7.509L108.595,373.057
			z"/>
		<path id="XMLID_1690_" style="fill:#455A64;" d="M77.353,365.129c-7.211,4.062-7.283,10.772-0.162,14.988
			c7.121,4.216,18.742,4.341,25.956,0.28c7.214-4.061,7.286-10.771,0.162-14.988C96.185,361.193,84.563,361.067,77.353,365.129z"/>
		<path id="XMLID_1689_" style="fill:#263238;" d="M107.017,372.937c0,0.479-0.1,0.958-0.26,1.438
			c-0.559,1.717-2.057,3.315-4.393,4.633c-3.255,1.817-7.588,2.796-12.221,2.756c-4.613-0.06-8.926-1.118-12.142-3.015
			c-2.257-1.338-3.734-2.956-4.254-4.633c-0.18-0.499-0.26-1.018-0.26-1.538c0.04-2.237,1.677-4.393,4.653-6.051
			c3.235-1.837,7.589-2.816,12.201-2.756c4.633,0.04,8.947,1.118,12.162,3.015C105.44,368.523,107.037,370.7,107.017,372.937z"/>
		<path id="XMLID_1688_" style="fill:#27DEBF;" d="M106.758,374.375c-0.559,1.717-2.057,3.315-4.393,4.633
			c-3.255,1.817-7.588,2.796-12.221,2.756c-4.613-0.06-8.926-1.118-12.142-3.015c-2.257-1.338-3.734-2.956-4.254-4.633
			c0.559-1.717,2.057-3.315,4.393-4.613c3.235-1.837,7.589-2.816,12.201-2.776c4.633,0.06,8.947,1.138,12.162,3.036
			C104.761,371.1,106.218,372.697,106.758,374.375z"/>
		<path id="XMLID_1687_" style="fill:#263238;" d="M98.067,384.287c0.804-0.453,1.449-0.072,1.438,0.851
			c-0.01,0.924-0.671,2.04-1.476,2.494s-1.449,0.073-1.438-0.851C96.602,385.857,97.262,384.741,98.067,384.287z"/>
		<g id="XMLID_1298_">
			<path id="XMLID_1686_" style="fill:#E0E0E0;" d="M71.83,377.829c-2.017,3.974-6.031,13.44-0.819,17.294
				c0.22,0.16,0.42,0.3,0.639,0.439l-0.02,1.917c-0.519-0.319-1.058-0.679-1.578-1.058c-7.788-5.771,0.998-20.589,1.378-21.208
				c0.1-0.18,0.26-0.28,0.439-0.34L71.83,377.829z"/>
			<path id="XMLID_1685_" style="fill:#E0E0E0;" d="M98.75,386.337c-0.22,0.459-5.891,11.303-15.217,13.48
				c-1.078,0.26-2.137,0.379-3.215,0.379c-2.896,0-5.791-0.899-8.687-2.716l0.02-1.917c3.854,2.676,7.728,3.594,11.523,2.716
				c8.607-2.017,14.119-12.581,14.159-12.681c0.2-0.4,0.699-0.539,1.078-0.34C98.81,385.458,98.969,385.937,98.75,386.337z"/>
		</g>
	</g>
</g>
<g id="Gear">
	<g id="XMLID_2229_">
		<g id="XMLID_1692_">
			<path id="XMLID_1719_" style="fill:#27DEBF;" d="M174.925,281.053l-3.793-2.19c-1.196-0.69-2.165-2.369-2.165-3.75
				l-0.001-173.237c0-1.381,0.969-3.06,2.165-3.75l125.655-72.547c1.196-0.69,3.134-0.69,4.33,0l3.795,2.19
				c1.196,0.69,2.165,2.369,2.165,3.75l0,173.238c0,1.381-0.969,3.06-2.165,3.75l-125.656,72.547
				C178.059,281.743,176.121,281.743,174.925,281.053z"/>
			<path id="XMLID_1818_" style="opacity:0.4;fill:#FFFFFF;" d="M307.052,31.164c-0.15-1.12-1.06-1.53-2.14-0.9l-125.66,72.55
				c-0.59,0.34-1.13,0.94-1.53,1.62l-8.12-4.69c0.39-0.68,0.93-1.27,1.53-1.62l125.65-72.55c1.2-0.69,3.14-0.69,4.33,0l3.8,2.19
				C306.002,28.394,306.912,29.864,307.052,31.164z"/>
			<path id="XMLID_1820_" style="opacity:0.1;" d="M178.752,281.274c-1.18,0.46-2.79,0.38-3.83-0.22l-3.79-2.19
				c-1.2-0.69-2.17-2.37-2.17-3.75v-173.24c0-0.69,0.25-1.45,0.64-2.13l8.12,4.69c-0.39,0.68-0.63,1.44-0.63,2.13v173.24
				C177.092,280.984,177.802,281.564,178.752,281.274z"/>
		</g>
		<g id="XMLID_1693_">
			<path id="XMLID_1902_" style="fill:#263238;" d="M316.894,167.525l0.001,0.01c-0.285-0.172-0.662-0.157-1.047,0.096l-5.058,3.329
				c-0.692,0.455-1.555,0.221-2.031-0.458c-0.305-0.436-0.635-0.839-0.986-1.208c-0.571-0.6-0.88-1.632-0.593-2.409l8.039-5.095
				l-6.001-3.463l-0.005,0.006c-0.12-0.069-0.249-0.127-0.397-0.16l-3.813-0.853c-0.808-0.181-1.776,0.267-2.161,1.001l-3.585,6.831
				c-0.385,0.734-1.363,1.425-2.166,1.629c-0.073,0.018-0.148,0.045-0.221,0.064c0.221-0.646,0.314-1.589,0.314-1.589l-6.019-3.473
				l0.002,0.007c-0.322-0.188-0.737-0.153-1.128,0.155l-5.714,4.492c-0.651,0.512-1.137,1.597-1.085,2.424l0.341,5.436
				c0.052,0.827-0.357,1.995-0.889,2.631c-0.936,1.12-1.822,2.295-2.653,3.512c-0.467,0.684-1.497,1.22-2.325,1.179l-3.673-0.181
				c-0.827-0.041-1.772,0.539-2.109,1.296l-3.453,7.742c-0.309,0.693-0.042,1.481,0.589,1.86l-0.002,0.007l4.071,2.349
				c0.131,0.334,0.175,0.702,0.095,1.054c-0.283,1.245-0.497,2.479-0.636,3.693c-0.094,0.823-0.628,1.948-1.238,2.509l-5.062,4.655
				c-0.61,0.561-0.99,1.677-0.85,2.493l0.951,5.521c0.062,0.36,0.231,0.61,0.457,0.748l-0.008,0.005l6.038,3.484l0.08-6.912
				c0.692-0.455,1.555-0.221,2.03,0.458c0.305,0.436,0.635,0.839,0.986,1.208c0.571,0.6,0.88,1.632,0.593,2.409l-2.579,6.977
				c-0.229,0.619-0.003,1.232,0.505,1.55l-0.004,0.006l6.028,3.479l1.642-4.492l2.33-5.788c0.385-0.734,1.363-1.424,2.166-1.629
				c0.767-0.195,1.551-0.453,2.348-0.776c0.768-0.311,1.564,0.031,1.803,0.824l1.289,4.279c0.096,0.32,0.274,0.543,0.491,0.668
				l-0.005,0.004l6.046,3.486l-1.058-6.685l1.85-1.455c0.651-0.512,1.137-1.597,1.085-2.424l-0.341-5.436
				c-0.052-0.827,0.357-1.995,0.889-2.631c0.937-1.12,2.35-1.718,3.181-2.934c0.467-0.684,0.97-1.797,1.797-1.756l3.673,0.181
				c0.827,0.041,1.772-0.539,2.109-1.296l3.453-7.742c0.338-0.757-0.007-1.633-0.769-1.958l-2.968-1.266
				c-0.762-0.325-1.202-1.237-1.018-2.045c0.283-1.245,0.497-2.48,0.636-3.693c0.094-0.823,0.628-1.948,1.237-2.508l5.062-4.655
				c0.433-0.398,0.74-1.076,0.837-1.728l4.598-3.586L316.894,167.525z M293.906,203.226c-6.193,4.869-12.121,3.543-13.241-2.961
				c-1.12-6.504,3.947-14.768,10.14-19.636c6.193-4.868,11.165-4.498,12.285,2.005C304.21,189.138,300.098,198.357,293.906,203.226z
				"/>
			<path id="XMLID_1915_" style="fill:#455A64;" d="M271.304,201.998l-5.005,4.602c-0.37,0.34-0.636,0.885-0.772,1.442l7.435,4.293
				l0.005-0.395c0.692-0.455,1.555-0.221,2.03,0.458c0.002,0.003,0.005,0.005,0.007,0.008l7.165-4.137L271.304,201.998z"/>
			<path id="XMLID_1914_" style="fill:#455A64;" d="M284.057,188.063c0.565-0.874,1.181-1.725,1.842-2.546l-7.135-4.122
				c-0.35,0.144-0.714,0.24-1.049,0.223l-3.673-0.181c-0.521-0.026-1.089,0.196-1.522,0.552l10.983,6.341L284.057,188.063z"/>
			<path id="XMLID_1943_" style="fill:#455A64;" d="M322.893,170.982c-0.28-0.16-0.65-0.13-1.03,0.12l-5.06,3.33
				c-0.69,0.45-1.55,0.22-2.03-0.46c-0.31-0.44-0.63-0.84-0.99-1.21c-0.57-0.6-0.88-1.63-0.59-2.41l0.48-1.29l2.17-1.43
				c0.39-0.25,0.77-0.27,1.05-0.1v-0.01L322.893,170.982z"/>
			<path id="XMLID_1912_" style="fill:#455A64;" d="M307.941,169.501c-0.059-0.065-0.108-0.143-0.168-0.206
				c-0.571-0.6-0.88-1.632-0.593-2.409l8.039-5.095l-6.001-3.463l-0.005,0.006c-0.12-0.069-0.249-0.127-0.397-0.16l-3.813-0.853
				c-0.808-0.181-1.776,0.267-2.161,1.001l-3.585,6.831c-0.173,0.33-0.475,0.645-0.818,0.917l8.099,4.676L307.941,169.501z"/>
			<path id="XMLID_1911_" style="fill:#455A64;" d="M283.387,167.935l7.438,4.294l6.113-5.602c0.173-0.621,0.247-1.37,0.247-1.37
				l-6.019-3.473l0.002,0.007c-0.322-0.188-0.737-0.153-1.128,0.155l-5.714,4.492C283.904,166.77,283.569,167.347,283.387,167.935z"
				/>
			<path id="XMLID_1843_" style="fill:#37474F;" d="M324.321,177.276l-0.951-5.521c-0.141-0.816-0.816-1.109-1.508-0.654
				l-5.058,3.329c-0.692,0.455-1.555,0.221-2.03-0.458c-0.305-0.436-0.635-0.839-0.986-1.207c-0.571-0.6-0.88-1.632-0.593-2.409
				l2.58-6.978c0.287-0.777-0.135-1.553-0.944-1.734l-3.813-0.852c-0.809-0.181-1.776,0.267-2.161,1.001l-3.585,6.831
				c-0.385,0.734-1.363,1.425-2.166,1.629c-0.767,0.195-1.551,0.453-2.348,0.776c-0.768,0.311-1.564-0.031-1.803-0.824l-1.289-4.279
				c-0.239-0.793-0.961-1.021-1.612-0.509l-5.714,4.492c-0.651,0.512-1.137,1.597-1.085,2.424l0.341,5.436
				c0.052,0.827-0.357,1.995-0.889,2.631c-0.936,1.12-1.822,2.295-2.653,3.512c-0.467,0.684-1.497,1.219-2.325,1.179l-3.673-0.181
				c-0.827-0.041-1.772,0.539-2.109,1.296l-3.453,7.742c-0.338,0.757,0.007,1.633,0.769,1.958l2.967,1.266
				c0.762,0.325,1.202,1.237,1.019,2.045c-0.283,1.245-0.497,2.48-0.636,3.693c-0.094,0.823-0.628,1.948-1.238,2.509l-5.062,4.655
				c-0.61,0.561-0.99,1.677-0.85,2.493l0.951,5.521c0.141,0.816,0.815,1.109,1.508,0.654l5.059-3.329
				c0.692-0.455,1.555-0.221,2.03,0.458c0.305,0.436,0.635,0.839,0.986,1.208c0.571,0.6,0.88,1.632,0.593,2.409l-2.579,6.977
				c-0.287,0.777,0.135,1.553,0.944,1.734l3.812,0.852c0.809,0.181,1.776-0.267,2.161-1.001l3.585-6.831
				c0.385-0.733,1.363-1.424,2.166-1.629c0.767-0.195,1.551-0.453,2.348-0.776c0.768-0.311,1.564,0.03,1.803,0.824l1.289,4.279
				c0.239,0.793,0.961,1.021,1.612,0.509l5.713-4.492c0.651-0.512,1.137-1.597,1.085-2.424l-0.341-5.436
				c-0.052-0.827,0.357-1.995,0.889-2.63c0.937-1.12,1.823-2.295,2.653-3.512c0.467-0.684,1.497-1.22,2.325-1.179l3.673,0.181
				c0.827,0.041,1.772-0.539,2.109-1.296l3.453-7.742c0.337-0.757-0.007-1.633-0.769-1.958l-2.967-1.266
				c-0.762-0.325-1.202-1.237-1.018-2.045c0.283-1.245,0.497-2.479,0.636-3.693c0.094-0.823,0.628-1.948,1.238-2.508l5.062-4.655
				C324.081,179.209,324.461,178.093,324.321,177.276z M299.92,206.697c-6.192,4.869-12.121,3.543-13.241-2.961
				c-1.12-6.504,2.992-15.723,9.185-20.591c6.192-4.869,12.12-3.544,13.24,2.96C310.224,192.609,306.113,201.828,299.92,206.697z"/>
		</g>
		<g id="XMLID_1694_">
			<path id="XMLID_1813_" style="fill:#263238;" d="M288.298,114.073l-5.923-3.415c0,0-0.001,0.005-0.001,0.005
				c-0.244-0.139-0.569-0.149-0.929,0.014l-10.7,4.823c-0.755,0.34-1.532-0.036-1.782-0.825c-0.622-1.966-1.424-3.737-2.385-5.305
				c-0.433-0.706-0.531-1.85-0.163-2.592l7.132-14.379c0.368-0.742,0.085-1.68-0.633-2.094l-7.739-4.468
				c-0.718-0.414-1.671-0.191-2.13,0.499L254.159,99.7c-0.459,0.69-1.499,1.177-2.327,1.155c-1.006-0.026-2.044,0.026-3.104,0.145
				v-9.774l-5.938-3.424v0.001c-0.263-0.14-0.608-0.123-0.971,0.087l-12.021,6.94c-0.717,0.414-1.359,1.419-1.434,2.244
				l-1.204,13.376c-0.074,0.825-0.641,1.937-1.25,2.498c-2.339,2.154-4.574,4.528-6.678,7.068c-0.528,0.638-1.579,0.942-2.362,0.669
				l-7.716-2.695c-0.782-0.273-1.752,0.087-2.166,0.804l-8.837,15.306c-0.414,0.717-0.241,1.737,0.386,2.278l6.192,5.335
				c0.628,0.541,0.889,1.604,0.601,2.381c-1.148,3.092-2.087,6.215-2.783,9.318c-0.181,0.808-0.86,1.853-1.538,2.33l-10.981,7.73
				c-0.677,0.477-1.227,1.535-1.227,2.363v13.88c0,0.428,0.165,0.737,0.427,0.892c0,0-0.003,0.003-0.003,0.003l5.921,3.414
				l8.794-4.162c0.34,0.712,0.701,1.4,1.096,2.044c0.433,0.706,0.531,1.85,0.162,2.592l-7.132,14.379
				c-0.368,0.742-0.085,1.68,0.633,2.094l7.739,4.468c0.717,0.414,1.671,0.191,2.13-0.499l8.887-13.366
				c0.459-0.69,1.499-1.177,2.327-1.155c1.839,0.048,3.773-0.142,5.787-0.587c0.809-0.179,1.522,0.306,1.605,1.131l1.173,11.678
				c0.04,0.399,0.214,0.679,0.463,0.819l-0.003,0.002l5.911,3.408l7.099-10.428c0.717-0.414,1.359-1.419,1.434-2.244l1.204-13.375
				c0.074-0.825,0.774-1.703,1.538-2.023c3.434-1.439,6.906-3.924,9.337-6.55c0.563-0.608,1.613-0.913,2.394-0.638l4.737,1.668
				c0.781,0.275,1.751-0.083,2.165-0.801l8.837-15.306c0.414-0.717,0.241-1.737-0.386-2.278l-4.07-3.507
				c-0.628-0.541-0.888-1.604-0.661-2.401c0.976-3.425,1.197-7.905,1.104-11.092c-0.024-0.828,0.477-1.886,1.154-2.363l10.982-7.73
				c0.677-0.477,1.227-1.535,1.227-2.363l5.248-6.291L288.298,114.073z M235.807,169.088c-11.215,6.476-18.187,1.882-18.187-11.069
				c0-12.95,9.268-28.815,20.484-35.29c11.215-6.476,18.01-1.765,18.01,11.185C256.115,146.865,247.023,162.613,235.807,169.088z"/>
			<path id="XMLID_1910_" style="fill:#455A64;" d="M271.189,97.153l2.359-4.756c0.368-0.742,0.085-1.68-0.633-2.094l-7.739-4.468
				c-0.718-0.414-1.671-0.191-2.13,0.499L254.159,99.7c-0.144,0.217-0.357,0.402-0.591,0.57l9.948,5.743L271.189,97.153z"/>
			<path id="XMLID_1909_" style="fill:#455A64;" d="M201.858,154.842c-0.257,0.363-0.549,0.692-0.848,0.903l-10.981,7.73
				c-0.276,0.195-0.518,0.497-0.723,0.83l6.701,3.869l14.579-8.294L201.858,154.842z"/>
			<path id="XMLID_1907_" style="fill:#455A64;" d="M208.534,117.902c-0.619,0.023-1.237,0.359-1.546,0.894l-8.837,15.306
				c-0.193,0.333-0.246,0.732-0.198,1.118l7.617,4.398l12.096-16.364L208.534,117.902z"/>
			<path id="XMLID_1906_" style="fill:#455A64;" d="M228.596,96.28l9.425,5.442l10.706-6.181v-4.313l-5.938-3.424v0.001
				c-0.263-0.14-0.608-0.123-0.971,0.087l-12.021,6.94C229.303,95.117,228.858,95.686,228.596,96.28z"/>
			<path id="XMLID_1808_" style="fill:#37474F;" d="M288.724,128.849v-13.881c0-0.828-0.612-1.224-1.367-0.883l-10.699,4.823
				c-0.755,0.34-1.532-0.035-1.782-0.825c-0.622-1.966-1.425-3.737-2.386-5.305c-0.433-0.706-0.53-1.85-0.163-2.592l7.132-14.38
				c0.368-0.742,0.085-1.68-0.633-2.094l-7.739-4.468c-0.717-0.414-1.671-0.191-2.13,0.499l-8.888,13.366
				c-0.459,0.69-1.499,1.177-2.327,1.155c-1.838-0.048-3.773,0.143-5.787,0.587c-0.809,0.179-1.522-0.306-1.605-1.131l-1.173-11.677
				c-0.083-0.824-0.732-1.157-1.449-0.743l-12.021,6.94c-0.717,0.414-1.359,1.419-1.434,2.244l-1.204,13.375
				c-0.074,0.825-0.641,1.937-1.25,2.498c-2.339,2.154-4.573,4.528-6.678,7.068c-0.529,0.638-1.58,0.942-2.362,0.669l-7.717-2.695
				c-0.782-0.273-1.752,0.087-2.166,0.805l-8.837,15.307c-0.414,0.717-0.241,1.737,0.386,2.278l6.192,5.335
				c0.628,0.541,0.889,1.604,0.601,2.381c-1.148,3.092-2.086,6.214-2.782,9.317c-0.181,0.808-0.86,1.853-1.538,2.33l-10.981,7.73
				c-0.677,0.477-1.227,1.535-1.227,2.363v13.88c0,0.829,0.612,1.224,1.367,0.884l10.7-4.823c0.755-0.34,1.532,0.035,1.782,0.825
				c0.622,1.966,1.424,3.737,2.385,5.305c0.433,0.706,0.531,1.851,0.162,2.593l-7.132,14.379c-0.368,0.742-0.085,1.679,0.633,2.094
				l7.739,4.468c0.717,0.414,1.671,0.191,2.13-0.499l8.888-13.365c0.459-0.69,1.499-1.177,2.328-1.156
				c1.839,0.048,3.773-0.143,5.787-0.587c0.809-0.179,1.522,0.306,1.605,1.131l1.173,11.678c0.083,0.824,0.732,1.157,1.449,0.742
				l12.021-6.941c0.717-0.414,1.359-1.419,1.434-2.244l1.204-13.376c0.074-0.825,0.641-1.936,1.25-2.497
				c2.339-2.154,4.573-4.527,6.676-7.066c0.528-0.638,1.58-0.943,2.362-0.67l7.717,2.694c0.782,0.273,1.752-0.087,2.166-0.805
				l8.837-15.306c0.414-0.717,0.241-1.737-0.386-2.278l-6.192-5.335c-0.628-0.541-0.889-1.604-0.601-2.381
				c1.148-3.092,2.087-6.214,2.783-9.317c0.181-0.808,0.86-1.853,1.538-2.33l10.981-7.73
				C288.175,130.736,288.724,129.678,288.724,128.849z M241.719,172.497c-11.216,6.475-20.309,1.226-20.309-11.725
				c0-12.95,9.093-28.698,20.309-35.174c11.215-6.475,20.307-1.226,20.307,11.724C262.026,150.274,252.934,166.021,241.719,172.497z
				"/>
			<path id="XMLID_1922_" style="fill:#455A64;" d="M288.302,114.074v0.01c-0.24-0.16-0.58-0.17-0.95,0l-10.7,4.82
				c-0.75,0.34-1.53-0.03-1.78-0.82c-0.42-1.35-0.93-2.6-1.53-3.76l8.1-3.65c0.36-0.16,0.69-0.15,0.93-0.01v-0.01L288.302,114.074z"
				/>
		</g>
	</g>
</g>
<g id="Character_2">
	<g id="XMLID_1827_">
		<g id="XMLID_2148_">
			<g id="XMLID_2203_">
				<path id="XMLID_2209_" style="fill:#263238;" d="M372.537,374.67v-1.138c-0.449,1.335-2.53,7.081-5.688,9.961
					c-2.51,2.289-5.934,4.934-6.805,7.486c-0.906,2.655,4.765,3.546,7.11,3.131c2.725-0.482,6.25-2.028,8.169-4.386
					c1.349-1.658,2.208-3.622,3.171-4.926c0.963-1.303,3.184-2.759,3.705-4.267c0.286-0.829-0.054-2.644-0.456-4.177
					c-0.369-1.407-0.769-2.954-1.249-2.822c-0.001,0.172,0,0.867,0,0.867c-0.578,0.64-2.176,1.276-3.978,1.345
					C375.352,375.789,372.528,375.558,372.537,374.67z"/>
				<path id="XMLID_2208_" style="fill:#FFA8A7;" d="M364.578,385.507c0.778-0.695,1.562-1.374,2.272-2.022
					c2.206-2.012,3.887-5.424,4.853-7.753c0.551-1.329,0.835-2.748,0.835-4.187v-4.535h7.957v7.382v0v0.001v0.197l-0.04,0.02
					c-0.383,1.654-4.035,6.052-6.109,8.92c-1.391,1.923-4.033,4.369-7.191,4.79C364.162,388.719,362.633,387.776,364.578,385.507z"
					/>
				<path id="XMLID_2207_" style="fill:#263238;" d="M341.499,366.826v-1.138c-0.449,1.335-2.53,7.081-5.688,9.961
					c-2.51,2.289-5.934,4.934-6.805,7.486c-0.906,2.655,4.765,3.546,7.11,3.131c2.725-0.483,6.25-2.029,8.169-4.386
					c1.349-1.657,2.208-3.622,3.172-4.925c0.963-1.303,3.184-2.759,3.705-4.267c0.286-0.829-0.054-2.644-0.456-4.177
					c-0.369-1.407-0.769-2.954-1.249-2.822c-0.001,0.172,0,0.868,0,0.868c-0.578,0.64-2.176,1.276-3.978,1.345
					C344.314,367.945,341.49,367.714,341.499,366.826z"/>
				<path id="XMLID_2206_" style="fill:#FFA8A7;" d="M333.539,377.662c0.778-0.695,1.562-1.374,2.272-2.022
					c2.206-2.012,3.887-5.424,4.853-7.753c0.551-1.329,0.835-2.748,0.835-4.187v-4.535h7.957v7.382v0v0.001v0.197l-0.04,0.02
					c-0.383,1.654-4.034,6.052-6.109,8.92c-1.39,1.923-4.033,4.369-7.191,4.79C333.124,380.875,331.595,379.931,333.539,377.662z"/>
				<path id="XMLID_2205_" style="fill:#37474F;" d="M378.911,251.005c6.169,13.474-0.223,60.937-0.223,60.937
					c0.186,2.187,2.685,6.489,3.617,16.112c1.1,11.371-1.727,39.921-1.727,39.921s-3.684,2.409-8.042,0.32
					c0,0-7.584-42.999-9.01-54.304c-1.244-9.866-3.633-31.56-3.633-31.56l-6.789,31.507c0,0,1.743,5.527,2.15,9.738
					c0.644,6.65-5.799,37.611-5.799,37.611s-2.746,1.007-7.957,0.24c0,0-2.279-41.087-2.88-49.097
					c-1.009-13.453,2.564-55.43,5.032-63.394L378.911,251.005z"/>
				<path id="XMLID_2204_" style="fill:#263238;" d="M359.894,282.429l-2.003-12.514c0,0-8.473-1.755-12.316-5.368
					c0,0,4.032,5.015,10.02,6.658l2.249,9.635l-3.932,29.174L359.894,282.429z"/>
			</g>
			<g id="XMLID_2199_">
				<g id="XMLID_2234_">
					<path id="XMLID_2236_" style="fill:#FFA8A7;" d="M346.848,242.51c4.669-15.541,10.626-38.682,8.378-38.682
						s-5.699-0.206-8.226,2.333c-4.981,5.005-5.891,14.28-6.936,19.574c-1.046,5.294-1.794,9.474-3.461,17.329
						c-1.266,5.965-2.807,13.163-5.065,17.767c-0.4,0.816-1.106,1.438-1.946,1.782c-2.257,0.921-3.304,2.086-5.115,3.426
						c-1.418,1.049-2.495,1.185-2.406,1.612c0.114,0.549,0.827,1.529,2.375,1.335c0.779-0.098,1.835-0.511,3.16-1.066
						c0,0-1.285,2.354-3.839,4.571c-3.46,3.005-3.958,5.133,1.796,6.182c3.606,0.658,6.873-1.071,10.969-8.558
						c1.18-2.157,3.032-5.564,4.086-8.497C343.361,253.981,345.436,247.209,346.848,242.51z"/>
				</g>
				<path id="XMLID_2201_" style="fill:#27DEBF;" d="M368.03,204.195L368.03,204.195c7.909,0.544,8.464,4.363,10.443,8.541
					c1.507,3.18,1.524,6.868,0.374,10.194l-5.511,15.944c0,0,2.581,6.238,5.576,12.131c-13.831,7.72-31.101,3.662-35.26-1.972
					c-0.176-1.195,0.893-10.536,1.551-16.638c-2.436-6.111-3.079-9.984-2.051-14.023c1.908-7.498,9.314-14.802,12.591-14.537
					L368.03,204.195z"/>
				<g id="XMLID_2149_">
					<g id="XMLID_2192_">
						<path id="XMLID_2196_" style="fill:#263238;" d="M360.427,197.641h3.069c8.928,0,16.165-7.237,16.165-16.165v0
							c0-8.976-7.276-16.253-16.253-16.253h-2.894c-8.976,0-16.253,7.277-16.253,16.253l0,0
							C344.261,190.403,351.499,197.641,360.427,197.641z"/>
					</g>
					<path id="XMLID_2224_" style="fill:#263238;" d="M388.317,206.161L388.317,206.161c-5.275,0-9.551-4.276-9.551-9.551v-20.452
						l0,0c5.275,0,9.551,4.276,9.551,9.551V206.161z"/>
					<path id="XMLID_2268_" style="fill:#263238;" d="M380.517,172.531l-2.394,3.848c1.061,0.71,2.458,0.424,3.119-0.639
						C381.902,174.677,381.578,173.241,380.517,172.531z"/>
					<g id="XMLID_2190_">
						<path id="XMLID_2191_" style="fill:#FFA8A7;" d="M350.076,172.381c-1.87,1.105-4.18,5.807-3.952,15.665
							c0.193,8.355,2.901,10.418,4.261,11.013c1.36,0.595,3.982,0.233,6.532-0.192v5.014c0,0-3.523,4.093-3.302,6.392
							c0.222,2.299,5.088,2.843,8.385,0.596c3.297-2.246,5.411-5.665,5.411-5.665v-12.12c0,0,1.721,2.298,4.536,0.429
							c2.815-1.869,2.922-6.497,1.285-8.158c-1.637-1.662-5.164-1.135-5.822,1.16c0,0-4.066,0.148-9.48-2.826
							C352.516,180.715,350.436,175.62,350.076,172.381z"/>
					</g>
					<g id="XMLID_2188_">
						<path id="XMLID_2189_" style="fill:#263238;" d="M356.387,185.947c-0.03,0.602,0.415,1.112,0.994,1.14
							c0.58,0.027,1.074-0.438,1.104-1.04c0.03-0.602-0.415-1.112-0.995-1.14C356.911,184.879,356.417,185.345,356.387,185.947z"/>
					</g>
					<g id="XMLID_2186_">
						<path id="XMLID_2187_" style="fill:#F28F8F;" d="M355.171,193.029l-2.44,0.778c0.202,0.698,0.913,1.09,1.587,0.876
							C354.991,194.468,355.373,193.727,355.171,193.029z"/>
					</g>
					<g id="XMLID_2180_">
						<path id="XMLID_2182_" style="fill:#263238;" d="M347.773,182.721l2.126-1.473c-0.388-0.607-1.178-0.769-1.765-0.362
							C347.546,181.292,347.385,182.114,347.773,182.721z"/>
					</g>
					<g id="XMLID_2160_">
						<path id="XMLID_2161_" style="fill:#263238;" d="M348.263,185.188c-0.03,0.602,0.415,1.112,0.995,1.14
							c0.58,0.027,1.074-0.438,1.104-1.04c0.03-0.602-0.415-1.112-0.995-1.14C348.788,184.12,348.293,184.585,348.263,185.188z"/>
					</g>
					<g id="XMLID_2158_">
						<polygon id="XMLID_2159_" style="fill:#F28F8F;" points="353.394,184.586 353.227,190.91 349.898,189.879 						"/>
					</g>
					<g id="XMLID_2156_">
						<path id="XMLID_2157_" style="fill:#F28F8F;" d="M356.916,198.867c2.687-0.352,8.215-1.94,9.076-4.125
							c0,0-0.287,1.373-1.938,2.788c-1.651,1.415-7.138,3.01-7.138,3.01V198.867z"/>
					</g>
				</g>
				<path id="XMLID_2200_" style="opacity:0.1;" d="M364.492,252.5c4.543-1.076,7.425-5.671,6.225-10.183
					c-0.046-0.171-0.093-0.318-0.141-0.435c-0.889-2.138-2.801-1.857-2.801-1.857l0,0c1.793-1.189,3.037-3.044,3.457-5.153
					l1.678-8.43c0,0-3.118-9.904-2.801-13.297l7.937,0.458c0,0,0.399,0.278,1.027,0.714c0.866,2.785,0.737,5.824-0.227,8.613
					l-5.511,15.944c0,0,2.581,6.238,5.576,12.131c-10.193,5.689-22.248,4.979-29.552,1.958
					C355.129,253.857,360.474,253.452,364.492,252.5z"/>
				<path id="XMLID_1849_" style="fill:#37474F;" d="M375.924,244.78c-2.927,0.775-11.815,1.832-12.469-4.407
					c-0.428-4.082-0.226-10.264,0.037-14.934c0.415-7.373,3.045-14.458,7.612-20.26c0.224-0.284,0.352-0.438,0.352-0.438
					s-1.284-1.048-4.045-0.563c0,0-6.003,5.687-7.825,13.967c-3.973-0.58-8.995-1.01-12.333-1.26
					c2.798-9.18,9.664-13.004,9.664-13.004c-1.476-0.777-3.522-0.057-3.522-0.057c-5.519,3.152-8.425,8.478-9.76,12.813
					c-3.184,8.818-3.069,41.641-3.014,53.299l5.487-8.739l35.031,0C380.688,248.664,375.924,244.78,375.924,244.78z"/>
			</g>
			<g id="XMLID_2197_">
				<path id="XMLID_2198_" style="fill:#FFA8A7;" d="M393.035,236.254c0,0-3.735-7.975-8.922-19.796
					c-3.749-8.543-4.588-10.468-10.549-11.392l-2.109-0.327c-2.825,9.286-0.879,13.492,2.845,19.851l7.355,14.256
					C384.582,238.266,393.098,237.138,393.035,236.254z"/>
			</g>
			<path id="XMLID_1821_" style="fill:#FFA8A7;" d="M381.655,238.847c2.187,4.393,4.058,7.11,6.706,7.821
				c2.648,0.71,24.544,0.458,24.544,0.458v-8.279l-20.832-3.164L381.655,238.847z"/>
		</g>
		<g id="XMLID_1817_">
			<path id="XMLID_1728_" style="fill:#27DEBF;" d="M425.43,329.755h-34.439v67.09c-0.162,2.662,1.499,5.355,5.019,7.387
				c6.73,3.886,17.642,3.886,24.372,0c3.369-1.945,5.051-4.495,5.047-7.044h0.001V329.755z"/>
			<path id="XMLID_1723_" style="fill:#27DEBF;" d="M421.806,323.664h0.016c-3.809-2.491-1.44-8.55-1.44-8.55H396.01
				c0,0,2.305,6.021-1.439,8.55h0.015c-5.252,3.903-4.786,9.541,1.424,13.126c6.73,3.886,17.642,3.886,24.372,0
				C426.593,333.205,427.058,327.568,421.806,323.664z"/>
			<path id="XMLID_1730_" style="opacity:0.05;" d="M421.806,323.664h0.016c-3.809-2.491-1.44-8.55-1.44-8.55H396.01
				c0,0,2.305,6.021-1.439,8.55h0.015c-5.252,3.903-4.786,9.541,1.424,13.126c6.73,3.886,17.642,3.886,24.372,0
				C426.593,333.205,427.058,327.568,421.806,323.664z"/>
			<path id="XMLID_1814_" style="opacity:0.05;" d="M419.708,318.095c0.164-1.659,0.674-2.98,0.674-2.98H396.01
				c0,0,0.497,1.314,0.652,2.969C403.202,321.496,413.16,321.5,419.708,318.095z"/>
			<path id="XMLID_1725_" style="fill:#27DEBF;" d="M425.43,303.388h-2.037c-0.781-0.842-1.781-1.635-3.011-2.345
				c-6.73-3.886-17.642-3.886-24.372,0c-1.23,0.71-2.23,1.503-3.011,2.345h-2.036v4.69l0,0c0,2.546,1.682,5.093,5.048,7.036
				c6.73,3.886,17.642,3.886,24.372,0c3.365-1.943,5.048-4.489,5.048-7.036l0,0V303.388z"/>
			<g id="XMLID_1729_">
				<path id="XMLID_1720_" style="fill:#27DEBF;" d="M396.01,310.424c6.73,3.886,17.642,3.886,24.372,0
					c6.73-3.886,6.73-10.186,0-14.071c-6.73-3.886-17.642-3.886-24.372,0C389.28,300.238,389.28,306.538,396.01,310.424z"/>
				<path id="XMLID_1724_" style="opacity:0.4;fill:#FFFFFF;" d="M396.01,310.424c6.73,3.886,17.642,3.886,24.372,0
					c6.73-3.886,6.73-10.186,0-14.071c-6.73-3.886-17.642-3.886-24.372,0C389.28,300.238,389.28,306.538,396.01,310.424z"/>
			</g>
			<path id="XMLID_1722_" style="opacity:0.2;" d="M408.205,399.826L408.205,399.826c-1.855,0-3.359-1.504-3.359-3.359v-47.924
				c0-1.855,1.504-3.359,3.359-3.359l0,0c1.855,0,3.359,1.504,3.359,3.359v47.924C411.564,398.322,410.06,399.826,408.205,399.826z"
				/>
			<path id="XMLID_1726_" style="opacity:0.2;" d="M419.679,397.804L419.679,397.804c-1.607,0.585-2.909-0.244-2.909-1.85v-48.824
				c0-1.607,1.302-3.383,2.909-3.968l0,0c1.607-0.585,2.909,0.244,2.909,1.85v48.824
				C422.588,395.443,421.286,397.219,419.679,397.804z"/>
			<path id="XMLID_1727_" style="opacity:0.2;" d="M396.731,397.804L396.731,397.804c1.607,0.585,2.909-0.244,2.909-1.85v-48.824
				c0-1.607-1.302-3.383-2.909-3.968l0,0c-1.607-0.585-2.909,0.244-2.909,1.85v48.824
				C393.822,395.443,395.125,397.219,396.731,397.804z"/>
			<g id="XMLID_1816_">
				<path id="XMLID_1752_" style="fill:#E0E0E0;" d="M412.905,182.713l-7.037-4.063l-4.435,20.892c0,0,4.436,7.251,4.436,11.942
					v89.118l4.654,5.434l2.382-1.372v-89.119c0-4.69,4.436-6.82,4.436-6.82L412.905,182.713z"/>
				<path id="XMLID_1753_" style="fill:#EBEBEB;" d="M410.523,184.085l-7.037-4.063l-4.435,20.892c0,0,4.436,7.251,4.436,11.942
					v89.118l7.036,4.062v-89.118c0-4.691,4.436-6.82,4.436-6.82L410.523,184.085z"/>
				<polygon id="XMLID_1731_" style="fill:#FAFAFA;" points="403.487,180.022 405.869,178.65 412.905,182.713 410.523,184.085 				
					"/>
				<polygon id="XMLID_1815_" style="fill:#F5F5F5;" points="412.905,182.713 410.523,184.085 414.959,210.098 417.341,208.726 				
					"/>
			</g>
		</g>
		<path id="XMLID_1819_" style="fill:#FFA8A7;" d="M412.905,232.282c0.361-1.573,2.846-2.456,2.6,0.169
			c-0.246,2.625,1.011,4.452,1.366,5.673c0.746,2.566,0.576,7.42-0.433,8.374c-1.009,0.954-2.303,2.063-4.227,1.916
			c-1.924-0.147-3.276-0.601-5.269-2.148c-1.621-1.258-3.356-8.501,0.406-7.475c5.592,1.526,5.556-2.496,5.556-2.496V232.282z"/>
	</g>
</g>
<g id="Character_1">
	<g id="XMLID_2067_">
		<g id="XMLID_1884_">
			<g id="XMLID_1918_">
				<g id="XMLID_2047_">
					<path id="XMLID_1916_" style="fill:#FFA8A7;" d="M229.061,256.023c3.934,0.789,6.258,3.677,10.992,11.037
						c4.734,7.36,12.084,19.935,12.084,19.935l18.381,7.035l-0.787,8.267c0,0-20.053-3.558-22.796-5.597
						c-2.743-2.039-13.367-17.418-13.367-17.418L229.061,256.023z"/>
					<path id="XMLID_2059_" style="fill:#E6E6E6;" d="M225.773,254.51c4.082,0.723,8.117,1.715,10.625,5.6
						c2.507,3.885,11.656,18.747,11.656,18.747s-3.338,7.82-9.411,9.004l-8.744-12.593L225.773,254.51z"/>
					<path id="XMLID_2049_" style="fill:#F5F5F5;" d="M210.811,254.845c-1.401,0.337-2.814,0.425-4.048,0.673
						c-6.072,1.22-7.195,4.376-7.339,11.708c-0.24,12.271-0.033,40.67-0.033,40.67c5.407,3.939,25.392,6.345,36.771-1.966
						c0,0-0.579-32.672-0.579-38.46c0-5.788-3.216-12.742-12.096-13.258L210.811,254.845z"/>
				</g>
				<g id="XMLID_2071_">
					
						<rect id="XMLID_2078_" x="197.987" y="408.009" transform="matrix(-1 -1.224647e-16 1.224647e-16 -1 403.8247 829.4583)" style="fill:#FFA8A7;" width="7.851" height="13.44"/>
					<polygon id="XMLID_2077_" style="fill:#FFA8A7;" points="230.098,411.272 237.944,411.541 238.337,397.318 230.098,397.049 
											"/>
					<path id="XMLID_1898_" style="fill:#37474F;" d="M237.295,305.931L237.295,305.931l-1.405-31.894l-24.704,3.981
						c0,0,0.222,5.847-0.874,15.103c-0.467,3.939-4.245,9.307-10.944,11.081c0,0-0.41,4.775-0.06,15.488
						c0.121,3.718-1.625,44.85-1.625,44.85c-0.183,2.157-2.26,5.993-2.421,13.763c-0.234,11.269,2.388,36.426,2.388,36.426
						s3.811,2.227,8.741,0.173c0,0,5.277-36.158,6.684-47.312c1.228-9.734,6.353-37.106,6.353-37.106l6,32.905
						c0,0-1.447,5.806-0.973,12.477c0.367,5.159,5.144,31.001,5.144,31.001s3.695,2.507,9.065,0.694c0,0,0.468-40.564,0.559-45.297
						C239.329,356.866,237.295,305.934,237.295,305.931z"/>
					<path id="XMLID_1904_" style="fill:#37474F;" d="M235.89,274.037c-0.259-6.312-1.14-12.138-6.582-17.596
						c-1.475-1.48-3.502-2.28-5.591-2.28h-1.163c0,0,5.456,4.334,7.592,10.615c1.852,5.445,1.735,12.24,1.735,12.24L235.89,274.037z
						"/>
					<path id="XMLID_2075_" style="fill:#263238;" d="M205.838,417.574c0,0-0.001-1.121,0-1.121c0.421-0.009,0.682,0.409,0.842,1.42
						c0.115,0.723,0.221,1.269,0.459,2.221c0.364,1.454,0.691,2.343,1.371,4.018c1.11,2.735,2.042,3.754,4.583,6.951
						c0.603,0.759,1.964,1.963,2.438,2.808c0.475,0.845,0.642,3.195-0.165,3.733c-2.964,1.976-7.465,2.031-10.649,1.098
						c-2.449-0.718-4.217-2.674-4.623-5.194c-0.117-0.724-0.074-1.464-0.157-2.192c-0.189-1.661-1.024-3.179-1.966-4.561
						c-0.547-0.801-1.141-1.584-1.508-2.482c-0.659-1.614-0.131-3.429,0.291-5.036c0.364-1.388,0.758-2.914,1.232-2.784
						c0.001,0.169,0,0.856,0,0.856c0.57,0.632,2.147,1.259,3.925,1.327C203.061,418.678,205.847,418.45,205.838,417.574z"/>
					<path id="XMLID_2074_" style="fill:#263238;" d="M238.027,409.121c0.408,0.014,0.74,0.589,1.639,1.563
						c1.087,1.176,2.864,2.445,4.618,3.323c2.94,1.471,8.655,3.735,11.242,4.901c1.616,0.728,1.54,2.68-0.13,3.791
						c-1.671,1.111-5.703,1.911-10.546,0.828c-2.638-0.59-6.072-3.026-8.246-2.895c-2.173,0.132-6.241,0.1-7.845-1.006
						c-1.604-1.106-0.962-3.468-0.509-5.497c0.495-2.215,1.114-5.669,1.847-5.518v0.763c0.944,1.429,5.815,2.011,7.888,0.959
						L238.027,409.121z"/>
					<path id="XMLID_2073_" style="fill:#263238;" d="M219.429,330.483c0,0,6.275-1.768,10.932-6.268c0,0-2.109,3.95-8.383,7.625
						l3.035,29.269L219.429,330.483z"/>
				</g>
				<g id="XMLID_1932_">
					<g id="XMLID_1958_">
						<circle id="XMLID_2046_" style="fill:#263238;" cx="224.718" cy="228.746" r="10.79"/>
						<path id="XMLID_2044_" style="fill:#263238;" d="M206.067,236.418c0,0,1.748,8.214,2.449,9.564
							c0.701,1.35,2.15,1.733,2.15,1.733l-0.122-5.778L206.067,236.418z"/>
						<path id="XMLID_2042_" style="fill:#263238;" d="M208.261,224.65c0,0-1.883-0.323-3.351,1.178
							c-1.439,1.472-0.635,6.078,1.157,10.589l3.293,0.378L208.261,224.65z"/>
						<path id="XMLID_2038_" style="fill:#FFA8A7;" d="M210.348,236.798c-0.66,0.394-1.602-0.874-2.417-1.726
							c-0.814-0.852-3.473-2.016-4.799,0.778c-1.351,2.848,1.171,6.611,3.264,7.268c3.607,1.132,4.148-1.182,4.148-1.182
							l0.266,13.409l0,0c4.485,5.75,16.93,5.264,11.745-0.742l-0.01-3.96c0,0,3.268,0.496,4.863,0.25
							c2.653-0.41,4.322-2.503,5.126-5.374c1.292-4.612,1.783-8.336,0.687-17.406c-1.202-9.942-12.765-10.045-19.009-6.115
							C207.967,225.928,210.348,236.798,210.348,236.798z"/>
						<path id="XMLID_1721_" style="fill:#37474F;" d="M211.181,279.958c0.184-8.156-1.682-20.255-4.418-24.44
							c0,0,1.938-0.956,4.048-0.673c0,0,5.136,8,4.916,25.113L211.181,279.958z"/>
						<path id="XMLID_2036_" style="fill:#263238;" d="M210.348,237.909c-0.332,0.006-1.595-2.089-2.417-2.837
							c-1.139-1.036,0.33-10.422,0.33-10.422s-1.409-2.653,0.784-5.067c1.56-1.717,3.737-3.814,10.818-2.977
							c5.047,0.597,10.541,2.171,14.979-0.009c0.665,2.762,0.128,5.842-2.631,8.025c0,0-1.607,1.036-5.832,1.55
							c-4.225,0.514-10.807-0.099-11.706-0.222c-1.225-0.168-1.487,1.02-2.147,4.264
							C211.945,233.061,211.464,237.888,210.348,237.909z"/>
						<path id="XMLID_1965_" style="fill:#263238;" d="M208.268,225.38l-3.993-2.143c0.567-1.144,1.92-1.592,3.022-1
							C208.4,222.829,208.835,224.236,208.268,225.38z"/>
						<path id="XMLID_1959_" style="fill:#F28F8F;" d="M222.545,250.643c0,0-5.921-1.193-7.992-2.293
							c-1.386-0.737-2.527-2.013-2.862-2.831c0,0,0.388,1.757,1.626,3.34c1.514,1.935,9.227,3.361,9.227,3.361L222.545,250.643z"/>
					</g>
					<g id="XMLID_1935_">
						<path id="XMLID_1957_" style="fill:#263238;" d="M222.324,236.068c0,0.681-0.531,1.232-1.187,1.23
							c-0.656-0.002-1.187-0.555-1.187-1.236c0-0.681,0.531-1.231,1.187-1.23C221.793,234.834,222.324,235.388,222.324,236.068z"/>
						<path id="XMLID_1953_" style="fill:#263238;" d="M221.066,231.588l-2.539,1.401c-0.374-0.729-0.109-1.634,0.592-2.021
							C219.82,230.581,220.692,230.859,221.066,231.588z"/>
						<path id="XMLID_1952_" style="fill:#F28F8F;" d="M222.009,243.515l2.709,1.016c-0.268,0.776-1.092,1.178-1.84,0.898
							C222.13,245.148,221.741,244.292,222.009,243.515z"/>
						<path id="XMLID_1950_" style="fill:#263238;" d="M232.906,232.576l-2.315-1.783c0.472-0.663,1.373-0.801,2.012-0.309
							C233.243,230.977,233.378,231.913,232.906,232.576z"/>
						<path id="XMLID_1945_" style="fill:#263238;" d="M232.193,235.731c0,0.681-0.531,1.231-1.187,1.229
							c-0.655-0.002-1.186-0.555-1.186-1.236c0-0.681,0.531-1.231,1.186-1.23C231.662,234.496,232.193,235.05,232.193,235.731z"/>
						<polygon id="XMLID_1944_" style="fill:#F28F8F;" points="225.836,234.832 226.225,241.968 229.951,240.698 						"/>
					</g>
				</g>
			</g>
		</g>
		<g id="XMLID_1903_">
			<path id="XMLID_1900_" style="fill:#455A64;" d="M282.46,248.087c0.014-2.192,1.838-5.262,1.276-6.898l-4.06-2.345l-8.134,20.45
				l-8.298,4.717l-4.1-5.981l12.266-18.308l-4.06-2.345c-0.515,0.238-1.029,0.504-1.556,0.803
				c-9.269,5.27-16.841,18.251-16.912,28.995c-0.036,5.421,1.845,9.223,4.905,10.991l-0.001,0l4.047,2.337l0.47-1.227
				c0.1-0.001,0.196,0.007,0.297,0.003v95.152c-5.695,6.347-9.665,15.265-9.717,23.035c-0.027,4.029,1.002,7.161,2.784,9.243
				l4.06,2.345l4.074-22.796l8.298-4.717l4.1,5.981l-8.205,20.653l4.06,2.345c0,0,14.337-21.399,14.408-32.144
				c0.021-3.156-0.617-5.753-1.75-7.73l1.013-0.852l-4.029-2.327l0.006,0.013c-1.417-0.861-3.092-1.282-4.957-1.208v-95.152
				C278.438,264.774,282.409,255.856,282.46,248.087z"/>
			<polygon id="XMLID_1899_" style="fill:#263238;" points="258.599,374.432 262.659,376.778 262.659,281.626 258.599,279.28 			"/>
			<path id="XMLID_1905_" style="fill:#37474F;" d="M276.803,368.619v-95.152c5.695-6.347,9.665-15.265,9.717-23.035
				c0.027-4.029-1.002-7.161-2.784-9.243l-8.134,20.45l-8.298,4.717l-4.1-5.981l8.205-20.653c-0.515,0.238-1.029,0.504-1.556,0.803
				c-9.27,5.27-16.841,18.251-16.912,28.995c-0.052,7.876,3.941,12.335,9.717,12.105v95.152c-5.695,6.347-9.665,15.265-9.717,23.035
				c-0.027,4.029,1.002,7.161,2.784,9.243l8.134-20.45l8.298-4.717l4.1,5.981l-8.205,20.653c0.515-0.238,1.029-0.504,1.556-0.803
				c9.269-5.27,16.841-18.251,16.912-28.995C286.572,372.847,282.579,368.388,276.803,368.619z"/>
			<polygon id="XMLID_1897_" style="fill:#263238;" points="270.393,384.891 272.158,383.888 276.257,389.869 268.052,410.522 
				263.992,408.177 272.197,387.524 			"/>
		</g>
		<path id="XMLID_1917_" style="fill:#FFA8A7;" d="M276.803,290.401c0,1.529-2.322,3.234-4.027,4.3
			c-1.705,1.066-3.852,2.558-3.045,5.648c0.807,3.091,4.132,3.877,5.816,3.062c1.684-0.815,3.35-2.234,3.771-5.081
			c0.421-2.847,1.381-9.674-2.515-10.469V290.401z"/>
		<g id="XMLID_1754_">
			<path id="XMLID_1765_" style="fill:#FFA8A7;" d="M183.629,298.578c6.758-30.346,10.988-36.963,20.4-40.47l-1.277,18.247
				c0,0-8.824,19.665-10.153,26.618c-1.167,6.109-2.474,13.79-2.272,19.016c0.036,0.926,0.436,1.798,1.078,2.466
				c1.723,1.792,2.217,3.311,3.351,5.308c0.888,1.564,1.836,2.136,1.576,2.497c-0.333,0.465-1.403,1.084-2.767,0.262
				c-0.686-0.413-1.499-1.236-2.505-2.301c0,0,0.225,2.726,1.688,5.849c1.983,4.232,1.567,6.422-4.231,5.02
				c-3.633-0.878-5.965-3.841-6.686-12.514c-0.208-2.499-0.526-6.441-0.295-9.61C182.135,310.712,182.541,303.462,183.629,298.578z"
				/>
		</g>
		<path id="XMLID_2076_" style="fill:#E6E6E6;" d="M204.854,256.023c0,0-3.692,0-6.792,2.085c-2.364,1.59-6.294,7.998-8.784,15.93
			c-2.49,7.932-3.798,12.334-3.798,12.334s4.077,6.213,12.878,3.758c0,0,4.956-12.402,4.672-11.611
			C203.03,278.517,209.587,266.293,204.854,256.023z"/>
	</g>
</g>
</svg>
