<?xml version="1.0" encoding="utf-8"?>
<!-- Generator: Adobe Illustrator 27.5.0, SVG Export Plug-In . SVG Version: 6.00 Build 0)  -->
<svg version="1.1" xmlns="http://www.w3.org/2000/svg" xmlns:xlink="http://www.w3.org/1999/xlink" x="0px" y="0px"
	 viewBox="0 0 500 500" style="enable-background:new 0 0 500 500;" xml:space="preserve">
<g id="Floor">
	<path id="Floor_9_" style="fill:#F5F5F5;" d="M96.11,434.086c85.816,42.114,224.952,42.115,310.766,0.001
		c85.816-42.116,85.816-110.396,0-152.511c-85.816-42.115-224.951-42.115-310.767-0.001C10.293,323.69,10.293,391.971,96.11,434.086
		z"/>
</g>
<g id="Shadow">
	<path id="Shadow_2_" style="fill:#E0E0E0;" d="M177.135,422.056c-18.237,8.693-47.803,8.693-66.04,0
		c-18.237-8.69-18.237-22.783,0-31.476c18.237-8.69,47.803-8.69,66.04,0C195.371,399.273,195.371,413.366,177.135,422.056z"/>
	<path id="Shadow_1_" style="fill:#E0E0E0;" d="M412.026,356.576c-18.237,8.693-47.803,8.693-66.039,0
		c-18.237-8.69-18.237-22.783,0-31.476c18.236-8.691,47.803-8.691,66.039,0C430.263,333.793,430.263,347.886,412.026,356.576z"/>
</g>
<g id="Device_1_">
	<g id="Device">
		<g id="XMLID_2408_">
			<path id="XMLID_2415_" style="fill:#263238;" d="M201.756,245.014L162.15,267.88c-1.469,0.848-2.896,2.892-3.185,4.563
				l-9.843,56.828c-0.29,1.672,0.667,3.715,2.136,4.563l25.538,14.745c1.469,0.848,3.852,0.848,5.321,0l54.582-31.513
				c1.469-0.848,2.661-2.826,2.661-4.418c0-1.592-1.191-3.57-2.66-4.418l-19.639-11.338c-1.469-0.848-2.8-2.905-2.972-4.593
				l-4.37-42.883c-0.172-1.688-1.429-3.702-2.807-4.498C205.534,244.123,203.226,244.165,201.756,245.014z"/>
			<path id="XMLID_2411_" style="fill:#455A64;" d="M179.457,338.588l0.001,10.628c0.963,0,1.926-0.212,2.661-0.636l54.582-31.513
				c1.469-0.848,2.661-2.827,2.661-4.418c0-0.931-0.415-1.99-1.047-2.882h-8.937L179.457,338.588z"/>
			<path id="XMLID_2410_" style="fill:#263238;" d="M206.748,247.896l-39.606,22.867c-1.469,0.848-2.895,2.891-3.185,4.563
				l-8.935,51.588c-0.29,1.672,0.667,3.715,2.136,4.564l19.639,11.338c1.469,0.848,3.852,0.848,5.321,0l54.582-31.513
				c1.469-0.848,1.469-2.224,0-3.072l-19.639-11.338c-1.469-0.848-2.8-2.905-2.972-4.593l-4.37-42.883
				C209.548,247.728,208.218,247.048,206.748,247.896z"/>
			<path id="XMLID_2409_" style="fill:#37474F;" d="M236.701,308.23l-19.639-11.338c-0.724-0.418-1.413-1.131-1.948-1.948
				l-59.716,34.477c0.384,0.859,1.001,1.618,1.76,2.056l19.639,11.338c1.47,0.848,3.852,0.848,5.321,0l54.582-31.513
				C238.17,310.454,238.17,309.079,236.701,308.23z"/>
		</g>
		<g id="XMLID_2402_">
			<path id="XMLID_2407_" style="fill:#455A64;" d="M75.894,358.039l-2.535-1.464c-2.057-1.188-3.725-4.076-3.725-6.452
				l-0.001-170.089c0-2.375,1.67-5.26,3.73-6.443l207.796-119.3c2.06-1.183,5.398-1.179,7.455,0.009l1.934,1.116
				c2.057,1.188,3.725,4.076,3.725,6.452v170.088c0,2.376-1.668,5.264-3.725,6.452L83.344,358.039
				C81.287,359.227,77.952,359.227,75.894,358.039z"/>
			<path id="XMLID_2406_" style="fill:#263238;" d="M84.609,184.38l-13.883-8.015c-0.675,1.166-1.093,2.482-1.093,3.67
				l0.001,170.089c0,2.376,1.668,5.264,3.725,6.452l2.535,1.464c2.057,1.188,5.393,1.188,7.45,0l1.266-0.731L84.609,184.38z"/>
			<path id="XMLID_2405_" style="fill:#37474F;" d="M79.619,355.888V185.8c0-2.375,1.668-5.264,3.725-6.452l207.203-119.63
				c2.057-1.188,3.725-0.225,3.725,2.151v170.088c0,2.376-1.668,5.264-3.725,6.452L83.344,358.039
				C81.287,359.227,79.619,358.264,79.619,355.888z"/>
			<path id="XMLID_2404_" style="fill:#E0E0E0;" d="M176.916,292.49l19.638-11.338c1.469-0.848,2.661-0.246,2.661,1.346
				c0,1.592-1.191,3.57-2.661,4.418l-19.638,11.338c-1.469,0.848-2.661,0.246-2.661-1.346
				C174.255,295.317,175.447,293.339,176.916,292.49z"/>
			<path id="XMLID_2403_" style="fill:#FFFFFF;" d="M89.164,184.549L284.307,71.566c1.175-0.68,2.127-0.131,2.127,1.226v148.241
				c0,1.357-0.953,3.008-2.129,3.687L89.165,337.384c-1.176,0.679-2.129,0.129-2.129-1.229V188.239
				C87.037,186.882,87.989,185.23,89.164,184.549z"/>
		</g>
		<g id="Tab_1_">
			<path id="XMLID_2334_" style="fill:#E6E6E6;" d="M96.438,187.392L275.484,84.033c3.25-1.876,5.909-0.341,5.909,3.411v128.712
				c0,1.743-1.235,3.881-2.744,4.753L95.379,326.705c-1.509,0.871-2.744,0.158-2.744-1.584V193.978
				C92.635,191.563,94.346,188.6,96.438,187.392z"/>
			<polygon id="XMLID_2245_" style="fill:#F5F5F5;" points="169.854,164.91 268.522,107.944 268.523,127.758 169.853,184.725 			"/>
			<polygon id="XMLID_2323_" style="fill:#F0F0F0;" points="169.854,192.572 268.522,135.605 268.523,185.244 169.853,242.21 			"/>
			<path id="XMLID_2333_" style="fill:#27DEBF;" d="M281.393,90.527v-3.083c0-3.752-2.659-5.288-5.909-3.411L96.438,187.392
				c-2.091,1.207-3.802,4.171-3.802,6.585v5.517L281.393,90.527z"/>
			<path id="XMLID_2332_" style="fill:#FFFFFF;" d="M256.613,97.554c-1.124,0.649-2.035,2.227-2.035,3.525
				c0,1.298,0.911,1.824,2.035,1.175c1.124-0.649,2.035-2.227,2.035-3.525C258.648,97.431,257.737,96.905,256.613,97.554z"/>
			<path id="XMLID_2331_" style="fill:#FFFFFF;" d="M264.689,92.892c-1.124,0.649-2.035,2.227-2.035,3.525
				c0,1.298,0.911,1.824,2.035,1.175c1.124-0.649,2.035-2.227,2.035-3.525C266.724,92.769,265.813,92.243,264.689,92.892z"/>
			<path id="XMLID_2330_" style="fill:#FFFFFF;" d="M272.765,88.229c-1.124,0.649-2.035,2.227-2.035,3.525
				c0,1.298,0.911,1.824,2.035,1.175c1.124-0.649,2.035-2.227,2.035-3.525C274.8,88.106,273.888,87.581,272.765,88.229z"/>
			<g id="XMLID_2223_">
				<path style="fill:#FAFAFA;" d="M101.214,269.992c-0.182,0-0.364-0.047-0.528-0.141c-0.327-0.189-0.528-0.538-0.528-0.915V204.54
					c0-0.377,0.201-0.725,0.527-0.914l55.68-32.252c0.327-0.188,0.73-0.189,1.057-0.001c0.327,0.188,0.529,0.538,0.529,0.915v64.449
					c0,0.377-0.201,0.726-0.527,0.914l-55.68,32.198C101.579,269.944,101.396,269.992,101.214,269.992z M102.27,205.148v61.957
					l53.567-30.977V174.12L102.27,205.148z"/>
			</g>
			<g id="XMLID_2244_">
				<path style="fill:#FAFAFA;" d="M120.4,246.749c-2.022,0-3.899-0.476-5.563-1.436c-4.004-2.31-6.21-7.097-6.21-13.479
					c0-12.688,8.925-28.18,19.896-34.535c5.508-3.191,10.744-3.678,14.742-1.374c4.006,2.31,6.213,7.1,6.213,13.489
					c0,12.699-8.926,28.19-19.896,34.534C126.364,245.809,123.239,246.749,120.4,246.749z M137.706,196.607
					c-2.467,0-5.233,0.846-8.123,2.52c-10.39,6.018-18.842,20.69-18.842,32.707c0,5.595,1.83,9.732,5.153,11.649
					c3.316,1.914,7.803,1.429,12.631-1.363c10.39-6.008,18.842-20.68,18.842-32.706c0-5.602-1.831-9.743-5.155-11.659
					C140.88,196.988,139.36,196.607,137.706,196.607z"/>
			</g>
		</g>
	</g>
</g>
<g id="Gear">
	<g id="XMLID_113_">
		<g id="XMLID_158_">
			<path id="XMLID_177_" style="fill:#27DEBF;" d="M339.517,278.627l-3.872-2.233l0,0.003c-0.16-0.091-0.372-0.097-0.608,0.009
				l-6.995,3.153c-0.494,0.223-1.002-0.023-1.165-0.54c-0.407-1.285-0.931-2.443-1.559-3.468c-0.283-0.462-0.347-1.21-0.106-1.695
				l4.662-9.401c0.241-0.485,0.055-1.098-0.414-1.369l-5.06-2.921c-0.469-0.271-1.092-0.125-1.392,0.326l-5.81,8.738
				c-0.3,0.451-0.98,0.77-1.522,0.755c-0.658-0.017-1.336,0.017-2.03,0.095v-6.39l-3.882-2.238v0.001
				c-0.172-0.091-0.398-0.08-0.635,0.057l-7.859,4.538c-0.469,0.271-0.889,0.928-0.937,1.467l-0.787,8.745
				c-0.049,0.539-0.419,1.266-0.817,1.633c-1.529,1.409-2.99,2.96-4.366,4.621c-0.346,0.417-1.033,0.616-1.544,0.437l-5.044-1.762
				c-0.511-0.178-1.145,0.057-1.416,0.526l-5.778,10.007c-0.271,0.469-0.158,1.136,0.253,1.489l4.048,3.488
				c0.41,0.354,0.581,1.049,0.393,1.557c-0.75,2.022-1.364,4.063-1.819,6.092c-0.118,0.529-0.563,1.212-1.005,1.523l-7.179,5.054
				c-0.443,0.312-0.802,1.004-0.802,1.545v9.074c0,0.28,0.108,0.482,0.279,0.583l-0.002,0.002l3.871,2.232l5.749-2.721
				c0.222,0.466,0.458,0.915,0.716,1.336c0.283,0.462,0.347,1.21,0.106,1.695l-4.662,9.401c-0.241,0.485-0.055,1.098,0.414,1.369
				l5.06,2.921c0.469,0.271,1.092,0.125,1.392-0.326l5.81-8.738c0.3-0.451,0.98-0.77,1.522-0.755
				c1.202,0.031,2.467-0.093,3.784-0.384c0.529-0.117,0.995,0.2,1.049,0.739l0.767,7.635c0.026,0.261,0.14,0.444,0.302,0.535
				l-0.002,0.002l3.864,2.228l4.641-6.817c0.469-0.271,0.889-0.928,0.937-1.467l0.787-8.745c0.049-0.539,0.506-1.113,1.006-1.323
				c2.245-0.941,4.515-2.565,6.104-4.282c0.368-0.397,1.054-0.597,1.565-0.417l3.097,1.09c0.511,0.18,1.145-0.055,1.415-0.524
				l5.778-10.007c0.271-0.469,0.158-1.136-0.252-1.49l-2.661-2.293c-0.41-0.354-0.58-1.049-0.432-1.57
				c0.638-2.239,0.783-5.168,0.722-7.252c-0.016-0.541,0.312-1.233,0.755-1.545l7.179-5.054c0.443-0.312,0.802-1.004,0.802-1.545
				l3.431-4.113L339.517,278.627z M305.2,314.594c-7.332,4.234-11.89,1.23-11.89-7.237c0-8.467,6.059-18.839,13.392-23.072
				c7.332-4.234,11.774-1.154,11.774,7.313C318.476,300.066,312.532,310.361,305.2,314.594z"/>
			<path id="XMLID_174_" style="opacity:0.1;" d="M339.517,278.627l-3.872-2.233l0,0.003c-0.16-0.091-0.372-0.097-0.608,0.009
				l-6.995,3.153c-0.494,0.223-1.002-0.023-1.165-0.54c-0.407-1.285-0.931-2.443-1.559-3.468c-0.283-0.462-0.347-1.21-0.106-1.695
				l4.662-9.401c0.241-0.485,0.055-1.098-0.414-1.369l-5.06-2.921c-0.469-0.271-1.092-0.125-1.392,0.326l-5.81,8.738
				c-0.3,0.451-0.98,0.77-1.522,0.755c-0.658-0.017-1.336,0.017-2.03,0.095v-6.39l-3.882-2.238v0.001
				c-0.172-0.091-0.398-0.08-0.635,0.057l-7.859,4.538c-0.469,0.271-0.889,0.928-0.937,1.467l-0.787,8.745
				c-0.049,0.539-0.419,1.266-0.817,1.633c-1.529,1.409-2.99,2.96-4.366,4.621c-0.346,0.417-1.033,0.616-1.544,0.437l-5.044-1.762
				c-0.511-0.178-1.145,0.057-1.416,0.526l-5.778,10.007c-0.271,0.469-0.158,1.136,0.253,1.489l4.048,3.488
				c0.41,0.354,0.581,1.049,0.393,1.557c-0.75,2.022-1.364,4.063-1.819,6.092c-0.118,0.529-0.563,1.212-1.005,1.523l-7.179,5.054
				c-0.443,0.312-0.802,1.004-0.802,1.545v9.074c0,0.28,0.108,0.482,0.279,0.583l-0.002,0.002l3.871,2.232l5.749-2.721
				c0.222,0.466,0.458,0.915,0.716,1.336c0.283,0.462,0.347,1.21,0.106,1.695l-4.662,9.401c-0.241,0.485-0.055,1.098,0.414,1.369
				l5.06,2.921c0.469,0.271,1.092,0.125,1.392-0.326l5.81-8.738c0.3-0.451,0.98-0.77,1.522-0.755
				c1.202,0.031,2.467-0.093,3.784-0.384c0.529-0.117,0.995,0.2,1.049,0.739l0.767,7.635c0.026,0.261,0.14,0.444,0.302,0.535
				l-0.002,0.002l3.864,2.228l4.641-6.817c0.469-0.271,0.889-0.928,0.937-1.467l0.787-8.745c0.049-0.539,0.506-1.113,1.006-1.323
				c2.245-0.941,4.515-2.565,6.104-4.282c0.368-0.397,1.054-0.597,1.565-0.417l3.097,1.09c0.511,0.18,1.145-0.055,1.415-0.524
				l5.778-10.007c0.271-0.469,0.158-1.136-0.252-1.49l-2.661-2.293c-0.41-0.354-0.58-1.049-0.432-1.57
				c0.638-2.239,0.783-5.168,0.722-7.252c-0.016-0.541,0.312-1.233,0.755-1.545l7.179-5.054c0.443-0.312,0.802-1.004,0.802-1.545
				l3.431-4.113L339.517,278.627z M305.2,314.594c-7.332,4.234-11.89,1.23-11.89-7.237c0-8.467,6.059-18.839,13.392-23.072
				c7.332-4.234,11.774-1.154,11.774,7.313C318.476,300.066,312.532,310.361,305.2,314.594z"/>
			<g id="XMLID_168_">
				<path id="XMLID_173_" style="fill:#27DEBF;" d="M328.332,267.565l1.542-3.109c0.241-0.485,0.055-1.098-0.414-1.369l-5.06-2.921
					c-0.469-0.271-1.092-0.125-1.392,0.326l-5.81,8.738c-0.094,0.142-0.233,0.263-0.386,0.373l6.504,3.755L328.332,267.565z"/>
				<path id="XMLID_172_" style="fill:#27DEBF;" d="M283.005,305.28c-0.168,0.237-0.359,0.452-0.555,0.59l-7.179,5.054
					c-0.181,0.127-0.339,0.325-0.473,0.543l4.381,2.529l9.531-5.422L283.005,305.28z"/>
				<path id="XMLID_171_" style="fill:#27DEBF;" d="M287.369,281.13c-0.404,0.015-0.809,0.234-1.011,0.584l-5.778,10.007
					c-0.126,0.218-0.161,0.479-0.13,0.731l4.98,2.875l7.908-10.699L287.369,281.13z"/>
				<path id="XMLID_170_" style="fill:#27DEBF;" d="M300.486,266.994l6.162,3.558l6.999-4.041v-2.82l-3.882-2.238v0.001
					c-0.172-0.091-0.398-0.08-0.635,0.057l-7.859,4.538C300.948,266.234,300.657,266.606,300.486,266.994z"/>
				<path id="XMLID_169_" style="fill:#27DEBF;" d="M339.52,278.628v0.007c-0.157-0.105-0.379-0.111-0.621,0l-6.995,3.151
					c-0.49,0.222-1-0.02-1.164-0.536c-0.275-0.883-0.608-1.7-1-2.458l5.296-2.386c0.235-0.105,0.451-0.098,0.608-0.007v-0.006
					L339.52,278.628z"/>
			</g>
			<g id="XMLID_162_" style="opacity:0.4;">
				<path id="XMLID_167_" style="fill:#FFFFFF;" d="M328.332,267.565l1.542-3.109c0.241-0.485,0.055-1.098-0.414-1.369l-5.06-2.921
					c-0.469-0.271-1.092-0.125-1.392,0.326l-5.81,8.738c-0.094,0.142-0.233,0.263-0.386,0.373l6.504,3.755L328.332,267.565z"/>
				<path id="XMLID_166_" style="fill:#FFFFFF;" d="M283.005,305.28c-0.168,0.237-0.359,0.452-0.555,0.59l-7.179,5.054
					c-0.181,0.127-0.339,0.325-0.473,0.543l4.381,2.529l9.531-5.422L283.005,305.28z"/>
				<path id="XMLID_165_" style="fill:#FFFFFF;" d="M287.369,281.13c-0.404,0.015-0.809,0.234-1.011,0.584l-5.778,10.007
					c-0.126,0.218-0.161,0.479-0.13,0.731l4.98,2.875l7.908-10.699L287.369,281.13z"/>
				<path id="XMLID_164_" style="fill:#FFFFFF;" d="M300.486,266.994l6.162,3.558l6.999-4.041v-2.82l-3.882-2.238v0.001
					c-0.172-0.091-0.398-0.08-0.635,0.057l-7.859,4.538C300.948,266.234,300.657,266.606,300.486,266.994z"/>
				<path id="XMLID_163_" style="fill:#FFFFFF;" d="M339.52,278.628v0.007c-0.157-0.105-0.379-0.111-0.621,0l-6.995,3.151
					c-0.49,0.222-1-0.02-1.164-0.536c-0.275-0.883-0.608-1.7-1-2.458l5.296-2.386c0.235-0.105,0.451-0.098,0.608-0.007v-0.006
					L339.52,278.628z"/>
			</g>
			<path id="XMLID_159_" style="fill:#27DEBF;" d="M339.796,288.287v-9.075c0-0.542-0.4-0.8-0.894-0.578l-6.995,3.153
				c-0.494,0.223-1.002-0.023-1.165-0.54c-0.407-1.285-0.931-2.443-1.56-3.468c-0.283-0.462-0.347-1.21-0.106-1.695l4.662-9.401
				c0.241-0.485,0.056-1.098-0.413-1.369l-5.06-2.921c-0.469-0.271-1.092-0.125-1.392,0.326l-5.81,8.738
				c-0.3,0.451-0.98,0.77-1.521,0.755c-1.202-0.031-2.466,0.093-3.783,0.384c-0.529,0.117-0.995-0.2-1.049-0.739l-0.767-7.634
				c-0.054-0.539-0.478-0.756-0.947-0.485l-7.859,4.537c-0.469,0.271-0.889,0.928-0.937,1.467l-0.787,8.744
				c-0.049,0.539-0.419,1.266-0.817,1.633c-1.529,1.409-2.99,2.96-4.366,4.621c-0.345,0.417-1.033,0.616-1.544,0.438l-5.045-1.762
				c-0.511-0.179-1.145,0.057-1.416,0.526l-5.778,10.007c-0.271,0.469-0.158,1.136,0.253,1.489l4.048,3.488
				c0.41,0.354,0.582,1.049,0.393,1.556c-0.75,2.022-1.364,4.063-1.819,6.091c-0.118,0.529-0.562,1.212-1.005,1.523l-7.179,5.054
				c-0.443,0.312-0.802,1.004-0.802,1.545v9.075c0,0.542,0.4,0.8,0.894,0.578l6.995-3.153c0.494-0.223,1.002,0.023,1.165,0.54
				c0.407,1.285,0.931,2.443,1.559,3.468c0.283,0.462,0.347,1.21,0.106,1.695l-4.662,9.401c-0.241,0.485-0.055,1.098,0.414,1.369
				l5.06,2.921c0.469,0.271,1.092,0.125,1.392-0.326l5.811-8.738c0.3-0.451,0.98-0.77,1.522-0.756
				c1.202,0.031,2.467-0.094,3.783-0.384c0.529-0.117,0.995,0.2,1.049,0.739l0.767,7.635c0.054,0.539,0.478,0.756,0.947,0.485
				l7.859-4.538c0.469-0.271,0.889-0.928,0.937-1.467l0.787-8.745c0.048-0.539,0.419-1.266,0.817-1.633
				c1.529-1.408,2.99-2.96,4.365-4.62c0.346-0.417,1.033-0.617,1.544-0.438l5.045,1.761c0.511,0.178,1.145-0.057,1.416-0.526
				l5.778-10.007c0.271-0.469,0.158-1.136-0.253-1.489l-4.048-3.488c-0.41-0.354-0.581-1.049-0.393-1.557
				c0.751-2.022,1.364-4.063,1.819-6.091c0.119-0.529,0.563-1.212,1.005-1.523l7.179-5.054
				C339.437,289.521,339.796,288.829,339.796,288.287z M309.065,316.823c-7.332,4.234-13.277,0.801-13.277-7.665
				c0-8.467,5.945-18.762,13.277-22.996c7.332-4.233,13.276-0.802,13.276,7.665C322.341,302.294,316.397,312.589,309.065,316.823z"
				/>
		</g>
		<g id="XMLID_136_">
			<path id="XMLID_155_" style="fill:#27DEBF;" d="M300.823,349.755l0.001,0.007c-0.187-0.112-0.433-0.103-0.685,0.063l-3.307,2.176
				c-0.452,0.298-1.017,0.144-1.328-0.299c-0.2-0.285-0.415-0.548-0.645-0.789c-0.374-0.392-0.576-1.067-0.388-1.575l5.255-3.331
				l-3.923-2.264l-0.003,0.004c-0.078-0.045-0.163-0.083-0.259-0.105l-2.493-0.557c-0.528-0.118-1.161,0.175-1.413,0.654
				l-2.344,4.466c-0.252,0.48-0.891,0.931-1.416,1.065c-0.048,0.012-0.096,0.029-0.144,0.042c0.144-0.423,0.205-1.039,0.205-1.039
				l-3.935-2.271l0.001,0.004c-0.211-0.123-0.482-0.1-0.737,0.101l-3.735,2.937c-0.426,0.335-0.743,1.044-0.71,1.585l0.223,3.554
				c0.034,0.54-0.234,1.304-0.581,1.72c-0.612,0.732-1.191,1.5-1.734,2.296c-0.305,0.447-0.979,0.797-1.52,0.771l-2.401-0.119
				c-0.541-0.027-1.158,0.353-1.379,0.847l-2.258,5.061c-0.202,0.453-0.028,0.968,0.385,1.216l-0.001,0.005l2.662,1.536
				c0.086,0.218,0.114,0.459,0.062,0.689c-0.185,0.814-0.325,1.621-0.416,2.415c-0.062,0.538-0.411,1.274-0.809,1.64l-3.31,3.043
				c-0.399,0.367-0.647,1.096-0.555,1.63l0.622,3.61c0.04,0.235,0.151,0.399,0.298,0.489l-0.005,0.003l3.947,2.278l0.052-4.519
				c0.452-0.298,1.017-0.144,1.327,0.299c0.2,0.285,0.415,0.548,0.645,0.79c0.373,0.392,0.575,1.067,0.387,1.575l-1.686,4.561
				c-0.15,0.405-0.002,0.806,0.331,1.013l-0.003,0.004l3.941,2.275l1.074-2.936l1.523-3.784c0.252-0.48,0.891-0.931,1.416-1.065
				c0.502-0.128,1.014-0.296,1.535-0.507c0.502-0.203,1.022,0.02,1.178,0.539l0.843,2.797c0.063,0.209,0.179,0.355,0.321,0.436
				l-0.003,0.003l3.953,2.279l-0.691-4.371l1.21-0.951c0.426-0.335,0.743-1.044,0.71-1.585l-0.223-3.554
				c-0.034-0.541,0.234-1.304,0.581-1.72c0.612-0.732,1.537-1.123,2.08-1.919c0.305-0.447,0.634-1.174,1.175-1.148l2.401,0.118
				c0.541,0.027,1.158-0.353,1.379-0.847l2.258-5.061c0.221-0.495-0.004-1.068-0.503-1.28l-1.94-0.828
				c-0.498-0.212-0.786-0.809-0.666-1.337c0.185-0.814,0.325-1.621,0.416-2.414c0.062-0.538,0.41-1.273,0.809-1.64l3.31-3.043
				c0.283-0.26,0.484-0.704,0.547-1.13l3.006-2.344L300.823,349.755z M285.794,373.095c-4.048,3.183-7.924,2.316-8.656-1.936
				c-0.732-4.252,2.581-9.655,6.629-12.838c4.048-3.183,7.299-2.941,8.032,1.311C292.53,363.885,289.842,369.912,285.794,373.095z"
				/>
			<path id="XMLID_152_" style="opacity:0.1;" d="M300.823,349.755l0.001,0.007c-0.187-0.112-0.433-0.103-0.685,0.063l-3.307,2.176
				c-0.452,0.298-1.017,0.144-1.328-0.299c-0.2-0.285-0.415-0.548-0.645-0.789c-0.374-0.392-0.576-1.067-0.388-1.575l5.255-3.331
				l-3.923-2.264l-0.003,0.004c-0.078-0.045-0.163-0.083-0.259-0.105l-2.493-0.557c-0.528-0.118-1.161,0.175-1.413,0.654
				l-2.344,4.466c-0.252,0.48-0.891,0.931-1.416,1.065c-0.048,0.012-0.096,0.029-0.144,0.042c0.144-0.423,0.205-1.039,0.205-1.039
				l-3.935-2.271l0.001,0.004c-0.211-0.123-0.482-0.1-0.737,0.101l-3.735,2.937c-0.426,0.335-0.743,1.044-0.71,1.585l0.223,3.554
				c0.034,0.54-0.234,1.304-0.581,1.72c-0.612,0.732-1.191,1.5-1.734,2.296c-0.305,0.447-0.979,0.797-1.52,0.771l-2.401-0.119
				c-0.541-0.027-1.158,0.353-1.379,0.847l-2.258,5.061c-0.202,0.453-0.028,0.968,0.385,1.216l-0.001,0.005l2.662,1.536
				c0.086,0.218,0.114,0.459,0.062,0.689c-0.185,0.814-0.325,1.621-0.416,2.415c-0.062,0.538-0.411,1.274-0.809,1.64l-3.31,3.043
				c-0.399,0.367-0.647,1.096-0.555,1.63l0.622,3.61c0.04,0.235,0.151,0.399,0.298,0.489l-0.005,0.003l3.947,2.278l0.052-4.519
				c0.452-0.298,1.017-0.144,1.327,0.299c0.2,0.285,0.415,0.548,0.645,0.79c0.373,0.392,0.575,1.067,0.387,1.575l-1.686,4.561
				c-0.15,0.405-0.002,0.806,0.331,1.013l-0.003,0.004l3.941,2.275l1.074-2.936l1.523-3.784c0.252-0.48,0.891-0.931,1.416-1.065
				c0.502-0.128,1.014-0.296,1.535-0.507c0.502-0.203,1.022,0.02,1.178,0.539l0.843,2.797c0.063,0.209,0.179,0.355,0.321,0.436
				l-0.003,0.003l3.953,2.279l-0.691-4.371l1.21-0.951c0.426-0.335,0.743-1.044,0.71-1.585l-0.223-3.554
				c-0.034-0.541,0.234-1.304,0.581-1.72c0.612-0.732,1.537-1.123,2.08-1.919c0.305-0.447,0.634-1.174,1.175-1.148l2.401,0.118
				c0.541,0.027,1.158-0.353,1.379-0.847l2.258-5.061c0.221-0.495-0.004-1.068-0.503-1.28l-1.94-0.828
				c-0.498-0.212-0.786-0.809-0.666-1.337c0.185-0.814,0.325-1.621,0.416-2.414c0.062-0.538,0.41-1.273,0.809-1.64l3.31-3.043
				c0.283-0.26,0.484-0.704,0.547-1.13l3.006-2.344L300.823,349.755z M285.794,373.095c-4.048,3.183-7.924,2.316-8.656-1.936
				c-0.732-4.252,2.581-9.655,6.629-12.838c4.048-3.183,7.299-2.941,8.032,1.311C292.53,363.885,289.842,369.912,285.794,373.095z"
				/>
			<g id="XMLID_146_">
				<path id="XMLID_151_" style="fill:#27DEBF;" d="M271.017,372.292l-3.273,3.009c-0.242,0.222-0.416,0.579-0.505,0.943
					l4.861,2.807l0.003-0.259c0.452-0.298,1.017-0.144,1.327,0.299c0.001,0.002,0.003,0.003,0.004,0.005l4.684-2.704
					L271.017,372.292z"/>
				<path id="XMLID_150_" style="fill:#27DEBF;" d="M279.355,363.182c0.369-0.571,0.772-1.128,1.204-1.665l-4.664-2.695
					c-0.229,0.094-0.467,0.157-0.686,0.146l-2.401-0.119c-0.341-0.017-0.712,0.128-0.995,0.361l7.18,4.146L279.355,363.182z"/>
				<path id="XMLID_149_" style="fill:#27DEBF;" d="M304.745,352.015c-0.183-0.105-0.425-0.085-0.673,0.079l-3.308,2.177
					c-0.451,0.294-1.013,0.144-1.327-0.301c-0.203-0.288-0.412-0.549-0.647-0.791c-0.373-0.392-0.575-1.066-0.386-1.576l0.314-0.843
					l1.419-0.935c0.255-0.163,0.503-0.177,0.686-0.065v-0.007L304.745,352.015z"/>
				<path id="XMLID_148_" style="fill:#27DEBF;" d="M294.97,351.047c-0.038-0.042-0.071-0.094-0.11-0.135
					c-0.374-0.392-0.576-1.067-0.388-1.575l5.255-3.331l-3.923-2.264l-0.003,0.004c-0.078-0.045-0.163-0.083-0.259-0.105
					l-2.493-0.557c-0.528-0.118-1.161,0.175-1.413,0.654l-2.344,4.466c-0.113,0.216-0.31,0.422-0.535,0.599l5.295,3.057
					L294.97,351.047z"/>
				<path id="XMLID_147_" style="fill:#27DEBF;" d="M278.917,350.023l4.863,2.807l3.997-3.663c0.113-0.406,0.162-0.895,0.162-0.895
					l-3.935-2.271l0.001,0.004c-0.211-0.123-0.482-0.1-0.737,0.101l-3.735,2.937C279.255,349.262,279.035,349.638,278.917,350.023z"
					/>
			</g>
			<g id="XMLID_140_" style="opacity:0.4;">
				<path id="XMLID_145_" style="fill:#FFFFFF;" d="M271.017,372.292l-3.273,3.009c-0.242,0.222-0.416,0.579-0.505,0.943
					l4.861,2.807l0.003-0.259c0.452-0.298,1.017-0.144,1.327,0.299c0.001,0.002,0.003,0.003,0.004,0.005l4.684-2.704
					L271.017,372.292z"/>
				<path id="XMLID_144_" style="fill:#FFFFFF;" d="M279.355,363.182c0.369-0.571,0.772-1.128,1.204-1.665l-4.664-2.695
					c-0.229,0.094-0.467,0.157-0.686,0.146l-2.401-0.119c-0.341-0.017-0.712,0.128-0.995,0.361l7.18,4.146L279.355,363.182z"/>
				<path id="XMLID_143_" style="fill:#FFFFFF;" d="M304.745,352.015c-0.183-0.105-0.425-0.085-0.673,0.079l-3.308,2.177
					c-0.451,0.294-1.013,0.144-1.327-0.301c-0.203-0.288-0.412-0.549-0.647-0.791c-0.373-0.392-0.575-1.066-0.386-1.576l0.314-0.843
					l1.419-0.935c0.255-0.163,0.503-0.177,0.686-0.065v-0.007L304.745,352.015z"/>
				<path id="XMLID_142_" style="fill:#FFFFFF;" d="M294.97,351.047c-0.038-0.042-0.071-0.094-0.11-0.135
					c-0.374-0.392-0.576-1.067-0.388-1.575l5.255-3.331l-3.923-2.264l-0.003,0.004c-0.078-0.045-0.163-0.083-0.259-0.105
					l-2.493-0.557c-0.528-0.118-1.161,0.175-1.413,0.654l-2.344,4.466c-0.113,0.216-0.31,0.422-0.535,0.599l5.295,3.057
					L294.97,351.047z"/>
				<path id="XMLID_141_" style="fill:#FFFFFF;" d="M278.917,350.023l4.863,2.807l3.997-3.663c0.113-0.406,0.162-0.895,0.162-0.895
					l-3.935-2.271l0.001,0.004c-0.211-0.123-0.482-0.1-0.737,0.101l-3.735,2.937C279.255,349.262,279.035,349.638,278.917,350.023z"
					/>
			</g>
			<path id="XMLID_137_" style="fill:#27DEBF;" d="M305.678,356.13l-0.622-3.61c-0.092-0.534-0.533-0.725-0.986-0.427l-3.307,2.176
				c-0.452,0.298-1.017,0.144-1.328-0.299c-0.2-0.285-0.415-0.548-0.645-0.789c-0.374-0.392-0.576-1.067-0.388-1.575l1.687-4.562
				c0.188-0.508-0.088-1.016-0.617-1.134l-2.493-0.557c-0.529-0.118-1.161,0.175-1.413,0.654l-2.344,4.466
				c-0.252,0.479-0.891,0.931-1.416,1.065c-0.502,0.128-1.014,0.296-1.535,0.507c-0.502,0.203-1.022-0.02-1.178-0.538l-0.843-2.797
				c-0.156-0.519-0.628-0.668-1.054-0.333l-3.735,2.937c-0.426,0.335-0.743,1.044-0.71,1.585l0.223,3.554
				c0.034,0.541-0.234,1.304-0.581,1.72c-0.612,0.732-1.191,1.5-1.734,2.296c-0.305,0.447-0.979,0.797-1.52,0.771l-2.401-0.119
				c-0.541-0.027-1.158,0.353-1.379,0.847l-2.258,5.061c-0.221,0.495,0.004,1.068,0.503,1.28l1.94,0.827
				c0.498,0.212,0.786,0.809,0.666,1.337c-0.185,0.814-0.325,1.621-0.416,2.414c-0.062,0.538-0.411,1.274-0.809,1.64l-3.309,3.043
				c-0.399,0.367-0.647,1.096-0.556,1.63l0.622,3.61c0.092,0.534,0.533,0.725,0.986,0.427l3.307-2.176
				c0.453-0.298,1.017-0.144,1.328,0.299c0.2,0.285,0.415,0.548,0.644,0.789c0.373,0.392,0.575,1.067,0.388,1.575l-1.686,4.561
				c-0.188,0.508,0.088,1.016,0.617,1.134l2.492,0.557c0.529,0.118,1.161-0.175,1.413-0.654l2.344-4.466
				c0.252-0.48,0.891-0.931,1.416-1.065c0.502-0.128,1.014-0.296,1.535-0.507c0.502-0.203,1.022,0.02,1.178,0.539l0.843,2.797
				c0.156,0.519,0.628,0.668,1.054,0.333l3.735-2.937c0.426-0.335,0.743-1.044,0.71-1.585l-0.223-3.554
				c-0.034-0.541,0.234-1.304,0.581-1.72c0.612-0.732,1.192-1.5,1.735-2.296c0.305-0.447,0.979-0.797,1.52-0.771l2.401,0.119
				c0.541,0.027,1.158-0.353,1.379-0.847l2.258-5.061c0.221-0.495-0.004-1.068-0.502-1.28l-1.94-0.827
				c-0.498-0.212-0.786-0.809-0.666-1.337c0.185-0.814,0.325-1.621,0.416-2.414c0.062-0.538,0.41-1.273,0.809-1.64l3.31-3.043
				C305.521,357.394,305.77,356.664,305.678,356.13z M289.726,375.364c-4.048,3.183-7.924,2.316-8.656-1.936
				c-0.732-4.252,1.956-10.279,6.005-13.462c4.048-3.183,7.924-2.317,8.656,1.935C296.462,366.154,293.774,372.181,289.726,375.364z
				"/>
		</g>
		<g id="XMLID_114_">
			<path id="XMLID_133_" style="fill:#27DEBF;" d="M268.669,343.132l-3.872-2.233l0,0.003c-0.16-0.091-0.372-0.097-0.608,0.009
				l-6.995,3.153c-0.494,0.223-1.002-0.023-1.165-0.54c-0.407-1.285-0.931-2.443-1.559-3.468c-0.283-0.462-0.347-1.21-0.106-1.695
				l4.662-9.401c0.241-0.485,0.056-1.098-0.414-1.369l-5.06-2.921c-0.469-0.271-1.092-0.125-1.392,0.326l-5.81,8.738
				c-0.3,0.451-0.98,0.77-1.522,0.755c-0.658-0.017-1.336,0.017-2.03,0.095v-6.39l-3.882-2.238v0.001
				c-0.172-0.091-0.398-0.08-0.635,0.057l-7.859,4.538c-0.469,0.271-0.889,0.928-0.937,1.467l-0.787,8.745
				c-0.048,0.539-0.419,1.266-0.817,1.633c-1.529,1.408-2.99,2.96-4.366,4.621c-0.346,0.417-1.033,0.616-1.544,0.437l-5.044-1.762
				c-0.511-0.179-1.145,0.057-1.416,0.526l-5.778,10.007c-0.271,0.469-0.158,1.136,0.253,1.489l4.048,3.488
				c0.41,0.353,0.581,1.049,0.393,1.557c-0.75,2.022-1.364,4.063-1.819,6.092c-0.118,0.528-0.562,1.212-1.005,1.523l-7.179,5.054
				c-0.443,0.312-0.802,1.004-0.802,1.545v9.075c0,0.28,0.108,0.482,0.279,0.583l-0.002,0.002l3.871,2.232l5.749-2.721
				c0.222,0.466,0.458,0.915,0.716,1.336c0.283,0.462,0.347,1.21,0.106,1.695l-4.662,9.401c-0.241,0.485-0.056,1.098,0.414,1.369
				l5.06,2.921c0.469,0.271,1.092,0.125,1.392-0.326l5.81-8.738c0.3-0.451,0.98-0.77,1.522-0.755
				c1.202,0.031,2.467-0.093,3.783-0.384c0.529-0.117,0.995,0.2,1.049,0.739l0.767,7.635c0.026,0.261,0.14,0.444,0.302,0.535
				l-0.002,0.002l3.865,2.228l4.641-6.817c0.469-0.271,0.889-0.928,0.937-1.467l0.787-8.745c0.048-0.539,0.506-1.113,1.006-1.323
				c2.245-0.94,4.515-2.565,6.104-4.282c0.368-0.397,1.054-0.597,1.565-0.417l3.097,1.09c0.511,0.18,1.145-0.055,1.415-0.524
				l5.778-10.007c0.271-0.469,0.158-1.136-0.253-1.489l-2.661-2.293c-0.41-0.354-0.58-1.049-0.432-1.57
				c0.638-2.239,0.783-5.168,0.722-7.252c-0.016-0.541,0.312-1.233,0.755-1.544l7.179-5.054c0.443-0.312,0.802-1.004,0.802-1.545
				l3.431-4.113L268.669,343.132z M234.352,379.099c-7.332,4.234-11.89,1.23-11.89-7.237c0-8.467,6.059-18.839,13.392-23.072
				c7.332-4.234,11.774-1.154,11.774,7.313C247.628,364.571,241.684,374.866,234.352,379.099z"/>
			<path id="XMLID_130_" style="opacity:0.1;" d="M268.669,343.132l-3.872-2.233l0,0.003c-0.16-0.091-0.372-0.097-0.608,0.009
				l-6.995,3.153c-0.494,0.223-1.002-0.023-1.165-0.54c-0.407-1.285-0.931-2.443-1.559-3.468c-0.283-0.462-0.347-1.21-0.106-1.695
				l4.662-9.401c0.241-0.485,0.056-1.098-0.414-1.369l-5.06-2.921c-0.469-0.271-1.092-0.125-1.392,0.326l-5.81,8.738
				c-0.3,0.451-0.98,0.77-1.522,0.755c-0.658-0.017-1.336,0.017-2.03,0.095v-6.39l-3.882-2.238v0.001
				c-0.172-0.091-0.398-0.08-0.635,0.057l-7.859,4.538c-0.469,0.271-0.889,0.928-0.937,1.467l-0.787,8.745
				c-0.048,0.539-0.419,1.266-0.817,1.633c-1.529,1.408-2.99,2.96-4.366,4.621c-0.346,0.417-1.033,0.616-1.544,0.437l-5.044-1.762
				c-0.511-0.179-1.145,0.057-1.416,0.526l-5.778,10.007c-0.271,0.469-0.158,1.136,0.253,1.489l4.048,3.488
				c0.41,0.353,0.581,1.049,0.393,1.557c-0.75,2.022-1.364,4.063-1.819,6.092c-0.118,0.528-0.562,1.212-1.005,1.523l-7.179,5.054
				c-0.443,0.312-0.802,1.004-0.802,1.545v9.075c0,0.28,0.108,0.482,0.279,0.583l-0.002,0.002l3.871,2.232l5.749-2.721
				c0.222,0.466,0.458,0.915,0.716,1.336c0.283,0.462,0.347,1.21,0.106,1.695l-4.662,9.401c-0.241,0.485-0.056,1.098,0.414,1.369
				l5.06,2.921c0.469,0.271,1.092,0.125,1.392-0.326l5.81-8.738c0.3-0.451,0.98-0.77,1.522-0.755
				c1.202,0.031,2.467-0.093,3.783-0.384c0.529-0.117,0.995,0.2,1.049,0.739l0.767,7.635c0.026,0.261,0.14,0.444,0.302,0.535
				l-0.002,0.002l3.865,2.228l4.641-6.817c0.469-0.271,0.889-0.928,0.937-1.467l0.787-8.745c0.048-0.539,0.506-1.113,1.006-1.323
				c2.245-0.94,4.515-2.565,6.104-4.282c0.368-0.397,1.054-0.597,1.565-0.417l3.097,1.09c0.511,0.18,1.145-0.055,1.415-0.524
				l5.778-10.007c0.271-0.469,0.158-1.136-0.253-1.489l-2.661-2.293c-0.41-0.354-0.58-1.049-0.432-1.57
				c0.638-2.239,0.783-5.168,0.722-7.252c-0.016-0.541,0.312-1.233,0.755-1.544l7.179-5.054c0.443-0.312,0.802-1.004,0.802-1.545
				l3.431-4.113L268.669,343.132z M234.352,379.099c-7.332,4.234-11.89,1.23-11.89-7.237c0-8.467,6.059-18.839,13.392-23.072
				c7.332-4.234,11.774-1.154,11.774,7.313C247.628,364.571,241.684,374.866,234.352,379.099z"/>
			<g id="XMLID_124_">
				<path id="XMLID_129_" style="fill:#27DEBF;" d="M257.483,332.07l1.542-3.109c0.241-0.485,0.056-1.098-0.414-1.369l-5.06-2.921
					c-0.469-0.271-1.092-0.125-1.392,0.326l-5.81,8.738c-0.094,0.142-0.233,0.263-0.386,0.372l6.504,3.755L257.483,332.07z"/>
				<path id="XMLID_128_" style="fill:#27DEBF;" d="M212.157,369.785c-0.168,0.237-0.359,0.453-0.555,0.59l-7.179,5.054
					c-0.181,0.127-0.339,0.325-0.473,0.543l4.381,2.529l9.531-5.422L212.157,369.785z"/>
				<path id="XMLID_127_" style="fill:#27DEBF;" d="M216.521,345.635c-0.404,0.015-0.809,0.234-1.011,0.584l-5.778,10.007
					c-0.126,0.218-0.161,0.479-0.13,0.731l4.98,2.875l7.908-10.699L216.521,345.635z"/>
				<path id="XMLID_126_" style="fill:#27DEBF;" d="M229.638,331.499l6.162,3.557l6.999-4.041v-2.82l-3.882-2.238v0.001
					c-0.172-0.091-0.398-0.08-0.635,0.057l-7.859,4.538C230.099,330.739,229.809,331.111,229.638,331.499z"/>
				<path id="XMLID_125_" style="fill:#27DEBF;" d="M268.672,343.133v0.007c-0.157-0.105-0.379-0.111-0.621,0l-6.995,3.151
					c-0.49,0.222-1-0.02-1.164-0.536c-0.275-0.883-0.608-1.7-1-2.458l5.296-2.386c0.235-0.105,0.451-0.098,0.608-0.007v-0.007
					L268.672,343.133z"/>
			</g>
			<g id="XMLID_118_" style="opacity:0.4;">
				<path id="XMLID_123_" style="fill:#FFFFFF;" d="M257.483,332.07l1.542-3.109c0.241-0.485,0.056-1.098-0.414-1.369l-5.06-2.921
					c-0.469-0.271-1.092-0.125-1.392,0.326l-5.81,8.738c-0.094,0.142-0.233,0.263-0.386,0.372l6.504,3.755L257.483,332.07z"/>
				<path id="XMLID_122_" style="fill:#FFFFFF;" d="M212.157,369.785c-0.168,0.237-0.359,0.453-0.555,0.59l-7.179,5.054
					c-0.181,0.127-0.339,0.325-0.473,0.543l4.381,2.529l9.531-5.422L212.157,369.785z"/>
				<path id="XMLID_121_" style="fill:#FFFFFF;" d="M216.521,345.635c-0.404,0.015-0.809,0.234-1.011,0.584l-5.778,10.007
					c-0.126,0.218-0.161,0.479-0.13,0.731l4.98,2.875l7.908-10.699L216.521,345.635z"/>
				<path id="XMLID_120_" style="fill:#FFFFFF;" d="M229.638,331.499l6.162,3.557l6.999-4.041v-2.82l-3.882-2.238v0.001
					c-0.172-0.091-0.398-0.08-0.635,0.057l-7.859,4.538C230.099,330.739,229.809,331.111,229.638,331.499z"/>
				<path id="XMLID_119_" style="fill:#FFFFFF;" d="M268.672,343.133v0.007c-0.157-0.105-0.379-0.111-0.621,0l-6.995,3.151
					c-0.49,0.222-1-0.02-1.164-0.536c-0.275-0.883-0.608-1.7-1-2.458l5.296-2.386c0.235-0.105,0.451-0.098,0.608-0.007v-0.007
					L268.672,343.133z"/>
			</g>
			<path id="XMLID_115_" style="fill:#27DEBF;" d="M268.948,352.793v-9.075c0-0.542-0.4-0.8-0.894-0.578l-6.995,3.153
				c-0.494,0.223-1.002-0.023-1.165-0.539c-0.407-1.285-0.931-2.443-1.56-3.468c-0.283-0.462-0.347-1.21-0.106-1.695l4.663-9.401
				c0.241-0.485,0.055-1.098-0.414-1.369l-5.06-2.921c-0.469-0.271-1.092-0.125-1.392,0.326l-5.811,8.738
				c-0.3,0.451-0.98,0.77-1.521,0.755c-1.202-0.031-2.467,0.093-3.783,0.384c-0.529,0.117-0.995-0.2-1.049-0.739l-0.767-7.634
				c-0.054-0.539-0.478-0.756-0.947-0.486l-7.859,4.537c-0.469,0.271-0.889,0.928-0.937,1.467l-0.787,8.745
				c-0.049,0.539-0.419,1.266-0.817,1.633c-1.529,1.408-2.99,2.96-4.366,4.621c-0.346,0.417-1.033,0.616-1.544,0.437l-5.045-1.762
				c-0.511-0.179-1.145,0.057-1.416,0.526l-5.778,10.008c-0.271,0.469-0.158,1.136,0.253,1.489l4.048,3.488
				c0.41,0.354,0.581,1.049,0.393,1.556c-0.75,2.022-1.364,4.063-1.819,6.091c-0.118,0.529-0.562,1.212-1.005,1.523l-7.179,5.054
				c-0.443,0.312-0.802,1.004-0.802,1.545v9.074c0,0.542,0.4,0.8,0.894,0.578l6.995-3.153c0.494-0.223,1.002,0.023,1.165,0.54
				c0.407,1.285,0.931,2.443,1.559,3.469c0.283,0.462,0.347,1.21,0.106,1.695l-4.662,9.401c-0.241,0.485-0.055,1.098,0.414,1.369
				l5.06,2.921c0.469,0.271,1.092,0.125,1.392-0.326l5.811-8.738c0.3-0.451,0.98-0.77,1.522-0.756
				c1.202,0.031,2.467-0.094,3.783-0.384c0.529-0.117,0.995,0.2,1.049,0.739l0.767,7.635c0.054,0.539,0.478,0.756,0.947,0.485
				l7.859-4.538c0.469-0.271,0.889-0.928,0.937-1.467l0.787-8.745c0.049-0.539,0.419-1.266,0.817-1.633
				c1.529-1.408,2.99-2.96,4.365-4.62c0.345-0.417,1.033-0.617,1.544-0.438l5.045,1.761c0.511,0.179,1.145-0.057,1.416-0.526
				l5.778-10.007c0.271-0.469,0.158-1.136-0.253-1.489l-4.048-3.488c-0.41-0.353-0.581-1.049-0.393-1.556
				c0.75-2.022,1.364-4.063,1.819-6.091c0.118-0.529,0.562-1.212,1.005-1.523l7.179-5.054
				C268.589,354.026,268.948,353.334,268.948,352.793z M238.217,381.328c-7.333,4.233-13.277,0.801-13.277-7.665
				c0-8.467,5.945-18.762,13.277-22.996c7.332-4.233,13.276-0.802,13.276,7.665C251.493,366.799,245.549,377.094,238.217,381.328z"
				/>
		</g>
	</g>
</g>
<g id="Character_2">
	<g id="Character_girl_3_">
		<path id="XMLID_30790_" style="fill:#263238;" d="M359.437,182.753h32.651v-29.266c0-9.016-7.309-16.326-16.326-16.326l0,0
			c-9.016,0-16.326,7.309-16.326,16.326L359.437,182.753z"/>
		<g id="XMLID_30761_">
			<g id="Girl_arm_1_">
				<path id="XMLID_30759_" style="fill:#FFA8A7;" d="M369.71,174.815l-23.366,0.891c-0.816-0.698-5.44-6.214-5.44-6.214
					s-12.698-1.628-12.775-1.167c-0.077,0.461,12.491,13.901,13.734,15.257c0.688,0.751,1.318,1.351,2.966,1.45
					c3.287,0.197,21.392,1.335,21.392,1.335L369.71,174.815z"/>
			</g>
			<g id="Tab_2_">
				<g id="XMLID_30733_">
					<path id="XMLID_30736_" style="fill:#27DEBF;" d="M249.34,280.15l-0.697-0.402c-1.114-0.643-2.017-2.207-2.017-3.493l0-71.798
						c0-1.286,0.903-2.85,2.017-3.493l92.22-53.236c1.114-0.643,2.919-0.643,4.033,0l0.696,0.402
						c1.114,0.643,2.017,2.207,2.017,3.493l0,71.799c0,1.286-0.903,2.85-2.017,3.493l-92.22,53.236
						C252.259,280.793,250.453,280.793,249.34,280.15z"/>
					<path id="XMLID_30743_" style="opacity:0.4;fill:#FFFFFF;" d="M347.59,151.298c-0.137-1.046-0.982-1.426-1.996-0.845
						l-92.225,53.245c-0.56,0.317-1.056,0.877-1.426,1.5l-4.721-2.725c0.359-0.634,0.866-1.183,1.426-1.51l92.214-53.234
						c1.12-0.644,2.926-0.644,4.034,0l0.697,0.401C346.608,148.721,347.463,150.084,347.59,151.298z"/>
					<path id="XMLID_30749_" style="opacity:0.1;" d="M253.031,280.308c-1.109,0.475-2.683,0.422-3.686-0.158l-0.708-0.401
						c-1.109-0.644-2.007-2.207-2.007-3.496v-71.794c0-0.644,0.222-1.362,0.591-1.986l4.721,2.725
						c-0.359,0.634-0.591,1.352-0.591,1.986v71.805C251.352,280.139,252.081,280.678,253.031,280.308z"/>
				</g>
				<g id="XMLID_2155_">
					<path id="XMLID_678_" style="fill:#FAFAFA;" d="M260.673,207.652l6.937-4.005c0.505-0.292,0.914-0.055,0.914,0.528
						l-0.001,7.795c0,0.583-0.412,1.289-0.919,1.576l-6.926,3.915c-0.508,0.287-0.919,0.047-0.919-0.536v-7.688
						C259.758,208.653,260.168,207.944,260.673,207.652z"/>
					<g id="XMLID_1665_">
						<path id="XMLID_2202_" style="fill:#37474F;" d="M266.71,212.436c-0.229,0.132-0.448,0.144-0.599,0.029l-2.144-1.622
							c-0.287-0.216-0.251-0.814,0.08-1.336c0.331-0.523,0.832-0.769,1.117-0.552l1.494,1.13l4.15-8.919
							c0.259-0.557,0.755-0.93,1.107-0.835c0.353,0.095,0.428,0.624,0.17,1.18l-4.737,10.183c-0.143,0.307-0.366,0.573-0.607,0.723
							C266.731,212.424,266.721,212.43,266.71,212.436z"/>
					</g>
				</g>
				<g id="XMLID_2211_">
					<path id="XMLID_2214_" style="fill:#FAFAFA;" d="M260.673,224.646l6.937-4.005c0.505-0.292,0.914-0.055,0.914,0.528
						l-0.001,7.795c0,0.583-0.412,1.289-0.919,1.576l-6.926,3.915c-0.508,0.287-0.919,0.047-0.919-0.537v-7.688
						C259.758,225.647,260.168,224.938,260.673,224.646z"/>
					<g id="XMLID_2212_">
						<path id="XMLID_2213_" style="fill:#37474F;" d="M266.71,229.43c-0.229,0.133-0.448,0.144-0.599,0.029l-2.144-1.622
							c-0.287-0.216-0.251-0.814,0.08-1.336c0.331-0.523,0.832-0.769,1.117-0.552l1.494,1.13l4.15-8.919
							c0.259-0.557,0.755-0.93,1.107-0.835c0.353,0.095,0.428,0.624,0.17,1.18l-4.737,10.183c-0.143,0.307-0.366,0.573-0.607,0.723
							C266.731,229.418,266.721,229.424,266.71,229.43z"/>
					</g>
				</g>
				<g id="XMLID_2215_">
					<path id="XMLID_2218_" style="fill:#FAFAFA;" d="M260.673,241.64l6.937-4.005c0.505-0.292,0.914-0.055,0.914,0.528
						l-0.001,7.795c0,0.583-0.412,1.289-0.919,1.576l-6.926,3.915c-0.508,0.287-0.919,0.047-0.919-0.536v-7.689
						C259.758,242.641,260.168,241.932,260.673,241.64z"/>
					<g id="XMLID_2216_">
						<path id="XMLID_2217_" style="fill:#37474F;" d="M266.71,246.424c-0.229,0.133-0.448,0.144-0.599,0.03l-2.144-1.622
							c-0.287-0.216-0.251-0.814,0.08-1.336c0.331-0.523,0.832-0.769,1.117-0.552l1.494,1.13l4.15-8.92
							c0.259-0.557,0.755-0.93,1.107-0.835c0.353,0.095,0.428,0.624,0.17,1.18l-4.737,10.183c-0.143,0.307-0.366,0.573-0.607,0.723
							C266.731,246.412,266.721,246.418,266.71,246.424z"/>
					</g>
				</g>
				<g id="XMLID_2219_">
					<path id="XMLID_2222_" style="fill:#FAFAFA;" d="M260.673,258.68l6.937-4.005c0.505-0.292,0.914-0.055,0.914,0.528
						l-0.001,7.795c0,0.583-0.412,1.289-0.919,1.576l-6.926,3.915c-0.508,0.287-0.919,0.047-0.919-0.536v-7.688
						C259.758,259.68,260.168,258.971,260.673,258.68z"/>
					<g id="XMLID_2220_">
						<path id="XMLID_2221_" style="fill:#37474F;" d="M266.71,263.464c-0.229,0.133-0.448,0.144-0.599,0.03l-2.144-1.622
							c-0.287-0.216-0.251-0.814,0.08-1.336c0.331-0.523,0.832-0.769,1.117-0.552l1.494,1.13l4.15-8.919
							c0.259-0.557,0.755-0.93,1.107-0.835c0.353,0.095,0.428,0.624,0.17,1.18l-4.737,10.183c-0.143,0.307-0.366,0.573-0.607,0.723
							C266.731,263.451,266.721,263.458,266.71,263.464z"/>
					</g>
				</g>
				<path id="XMLID_2210_" style="fill:#455A64;" d="M277.103,200.337c0,0.943,0.819,1.235,1.829,0.652l26.372-15.225
					c1.01-0.583,1.829-1.821,1.829-2.765s-0.819-1.236-1.829-0.653l-26.371,15.226C277.923,198.156,277.104,199.394,277.103,200.337
					z"/>
				<path id="XMLID_2225_" style="fill:#F0F0F0;" d="M277.103,206.064c0,0.943,0.819,1.235,1.829,0.652l56.401-32.517
					c1.01-0.583,1.829-1.821,1.829-2.765c0-0.944-0.819-1.236-1.829-0.653L278.933,203.3
					C277.923,203.883,277.104,205.121,277.103,206.064z"/>
				<path id="XMLID_2227_" style="fill:#455A64;" d="M277.103,216.961c0,0.943,0.819,1.235,1.829,0.652l26.372-15.225
					c1.01-0.583,1.829-1.821,1.829-2.765s-0.819-1.236-1.829-0.653l-26.371,15.226C277.923,214.78,277.104,216.018,277.103,216.961z
					"/>
				<path id="XMLID_2226_" style="fill:#F0F0F0;" d="M277.103,222.688c0,0.943,0.819,1.235,1.829,0.652l56.401-32.517
					c1.01-0.583,1.829-1.821,1.829-2.765s-0.819-1.236-1.829-0.653l-56.401,32.518C277.923,220.507,277.104,221.745,277.103,222.688
					z"/>
				<path id="XMLID_2231_" style="fill:#455A64;" d="M277.103,234.642c0,0.943,0.819,1.235,1.829,0.652l26.372-15.225
					c1.01-0.583,1.829-1.821,1.829-2.765c0-0.944-0.819-1.236-1.829-0.652l-26.371,15.226
					C277.923,232.461,277.104,233.699,277.103,234.642z"/>
				<path id="XMLID_2228_" style="fill:#F0F0F0;" d="M277.103,240.369c0,0.943,0.819,1.235,1.829,0.652l56.401-32.517
					c1.01-0.583,1.829-1.821,1.829-2.765s-0.819-1.236-1.829-0.653l-56.401,32.518C277.923,238.188,277.104,239.426,277.103,240.369
					z"/>
				<path id="XMLID_2243_" style="fill:#455A64;" d="M277.103,252.323c0,0.943,0.819,1.235,1.829,0.652l26.372-15.225
					c1.01-0.583,1.829-1.821,1.829-2.765c0-0.944-0.819-1.236-1.829-0.653l-26.371,15.226
					C277.923,250.142,277.104,251.38,277.103,252.323z"/>
				<path id="XMLID_2242_" style="fill:#F0F0F0;" d="M277.103,258.05c0,0.943,0.819,1.235,1.829,0.652l56.401-32.517
					c1.01-0.583,1.829-1.821,1.829-2.765c0-0.944-0.819-1.236-1.829-0.653l-56.401,32.518
					C277.923,255.87,277.104,257.107,277.103,258.05z"/>
			</g>
		</g>
		<g id="XMLID_30720_">
			<g id="XMLID_30731_">
				<path id="XMLID_30732_" style="fill:#263238;" d="M359.144,333.584c-1.884,2.063-3.963,3.716-6.193,5.387
					c-0.333,0.25-0.679,0.514-0.86,0.89c-0.292,0.607-0.746,2.111,2.024,3.077c2.706,0.944,6.08,0.723,8.545-0.82
					c2.275-1.424,2.376-4.386,4.522-6.074c1.591-1.252,3.577-1.573,4.862-3.208c0.895-1.138,0.662-2.654,0.195-4.529
					c-0.509-2.047-0.744-3.597-1.422-3.439l0.111,0.942c-0.845,1.349-5.228,1.748-7.178,0.816
					C363.749,326.626,360.373,332.238,359.144,333.584z"/>
			</g>
			<g id="XMLID_30729_">
				<path id="XMLID_30730_" style="fill:#FFA8A7;" d="M357.223,335.499c0-0.002,0-0.012,0-0.015
					c0.658-0.603,1.303-1.225,1.922-1.902c0.792-0.868,2.477-3.506,3.576-5.272c0.668-1.074,1.155-2.358,1.002-3.773
					c-0.153-1.415-0.545-5.046-0.545-5.046l6.944-0.491l0.807,6.809l0,0c0.168,1.543-1.107,2.913-3.367,4.86
					c-2.259,1.947-5.129,6.488-7.174,7.63c-2.046,1.142-3.508,1.1-4.381,0.516C355.108,338.212,355.019,337.751,357.223,335.499z"/>
			</g>
			<g id="XMLID_30727_">
				<path id="XMLID_30728_" style="fill:#263238;" d="M390.334,334.205v-1.044c-0.411,1.224-2.321,6.494-5.216,9.135
					c-2.302,2.099-5.442,4.525-6.24,6.865c-0.831,2.435,4.37,3.252,6.52,2.872c2.499-0.443,5.732-1.86,7.491-4.022
					c1.237-1.52,2.025-3.322,2.909-4.517c0.883-1.195,2.92-2.53,3.397-3.913c0.262-0.76-0.049-2.424-0.418-3.831
					c-0.338-1.29-0.705-2.709-1.145-2.588c-0.001,0.157,0,0.796,0,0.796c-0.53,0.587-1.995,1.17-3.648,1.233
					C392.916,335.231,390.326,335.019,390.334,334.205z"/>
			</g>
			<g id="XMLID_30725_">
				<path id="XMLID_30726_" style="fill:#FFA8A7;" d="M383.035,344.143c0.714-0.637,1.432-1.26,2.084-1.854
					c2.023-1.846,3.565-4.975,4.45-7.11c0.506-1.219,0.766-2.52,0.766-3.84v-4.159h7.297v6.77v0v0.001v0.18l-0.037,0.019
					c-0.351,1.516-3.7,5.55-5.603,8.18c-1.275,1.763-3.699,4.006-6.594,4.393C382.654,347.089,381.251,346.224,383.035,344.143z"/>
			</g>
			<g id="XMLID_30723_">
				<path id="XMLID_30724_" style="fill:#27DEBF;" d="M396.18,220.795c5.658,12.356-0.204,55.883-0.204,55.883
					c0.17,2.005,2.463,5.951,3.317,14.776c1.009,10.428-1.583,36.61-1.583,36.61s-3.379,2.209-7.375,0.293
					c0,0-6.955-39.434-8.262-49.801c-1.141-9.048-3.332-30.316-3.332-30.316l-6.566,30.326c0,0,1.345,4.95,1.279,8.985
					c-0.101,6.126-2.956,32.964-2.956,32.964s-2.54,1.488-7.32,0.784c0,0-4.603-35.266-4.466-43.488
					c0.073-4.4,1.992-51.239,1.992-51.239L396.18,220.795z"/>
			</g>
			<g id="XMLID_30721_" style="opacity:0.15;">
				<path id="XMLID_30722_" style="fill:#263238;" d="M378.74,248.241l-1.837-10.104c0,0-7.77-1.61-11.294-4.923
					c0,0,3.697,4.599,9.189,6.105l2.063,8.836l-3.731,26.001L378.74,248.241z"/>
			</g>
		</g>
		<g id="XMLID_30694_">
			<g id="XMLID_30695_">
				<path id="XMLID_30789_" style="fill:#263238;" d="M379.419,138.158l0.377-4.28c-1.202-0.146-2.26,0.694-2.364,1.876
					C377.328,136.937,378.217,138.013,379.419,138.158z"/>
				<path id="XMLID_30788_" style="fill:#263238;" d="M379.649,138.591l3.466-2.54c-0.683-0.999-2.013-1.241-2.97-0.539
					C379.188,136.213,378.966,137.592,379.649,138.591z"/>
				<g id="XMLID_30713_">
					<path id="XMLID_30714_" style="fill:#37474F;" d="M383.247,175.124c0,0,8.332,0.723,9.506,1.249
						c-5.979,6.547,3.114,9.263,3.114,9.263l-6.227,22.286c3.736,5.704,6.125,10.117,7.532,15.736
						c-4.203,7.405-27.815,8.434-36.469,2.915c0.753-10.337,2.432-17.737,1.873-20.84c-2.948-12.677-2.839-15.353-2.453-18.251
						c0.755-5.662,6.375-10.598,9.586-12.667c0,0,2.405,0,2.996,0L383.247,175.124z"/>
				</g>
				<g id="XMLID_30711_">
					<path id="XMLID_30712_" style="fill:#FFA8A7;" d="M366.31,145.139c-1.759,1.04-3.934,5.465-3.719,14.741
						c0.182,7.862,2.73,9.804,4.01,10.364c1.28,0.56,3.747,0.219,6.146-0.181v4.718c0,0-3.316,3.851-3.107,6.015
						c0.209,2.163,4.788,2.675,7.89,0.561c3.103-2.114,5.716-6.233,5.716-6.233l-0.054-10.849c0,0,1.412,1.371,3.806-0.722
						c1.976-1.728,2.642-4.642,1.102-6.205c-1.54-1.564-4.387-1.138-5.478,1.092c-0.658,1.428-2.16,1.452-2.174-0.176
						c-0.072-8.361-1.061-8.805-1.9-12.232C373.555,144.399,369.982,144.998,366.31,145.139z"/>
				</g>
				<g id="XMLID_30708_">
					<path id="XMLID_30709_" style="fill:#263238;" d="M371.368,157.904c-0.028,0.567,0.391,1.047,0.936,1.073
						c0.545,0.026,1.01-0.412,1.039-0.979c0.029-0.566-0.391-1.047-0.936-1.072C371.862,156.9,371.397,157.338,371.368,157.904z"/>
				</g>
				<g id="XMLID_30706_">
					<path id="XMLID_30707_" style="fill:#F28F8F;" d="M371.105,164.569l-2.296,0.732c0.191,0.657,0.859,1.026,1.493,0.824
						C370.936,165.923,371.295,165.226,371.105,164.569z"/>
				</g>
				<g id="XMLID_30704_">
					<path id="XMLID_30705_" style="fill:#263238;" d="M363.425,155.282l2-1.386c-0.365-0.571-1.109-0.724-1.661-0.341
						C363.212,153.938,363.06,154.711,363.425,155.282z"/>
				</g>
				<g id="XMLID_30702_">
					<path id="XMLID_30703_" style="fill:#263238;" d="M374.246,155.601l-2-1.387c0.365-0.571,1.109-0.724,1.661-0.341
						C374.459,154.256,374.61,155.03,374.246,155.601z"/>
				</g>
				<g id="XMLID_30700_">
					<path id="XMLID_30701_" style="fill:#263238;" d="M363.724,157.19c-0.028,0.567,0.391,1.047,0.936,1.073
						c0.545,0.026,1.01-0.412,1.039-0.979c0.029-0.567-0.39-1.047-0.936-1.072C364.217,156.185,363.752,156.623,363.724,157.19z"/>
				</g>
				<g id="XMLID_30698_">
					<polygon id="XMLID_30699_" style="fill:#F28F8F;" points="368.388,156.624 368.23,162.575 365.098,161.605 					"/>
				</g>
				<g id="XMLID_30696_">
					<path id="XMLID_30697_" style="fill:#F28F8F;" d="M372.747,170.063c2.528-0.332,7.73-1.826,8.54-3.882
						c0,0-0.27,1.292-1.824,2.624c-1.554,1.332-6.717,2.832-6.717,2.832V170.063z"/>
				</g>
				<path id="XMLID_30787_" style="fill:#263238;" d="M371.518,138.25L371.518,138.25c-7.569,0-13.706,6.136-13.706,13.706v1.777
					h6.707c3.122,0,5.764-2.307,6.184-5.401h0l0.246,5.401l0,0c2.574,0,4.72-1.967,4.944-4.531l0.077-0.88l0,0
					c0.244,3.056,2.796,5.411,5.862,5.411h0.594l0.687-9.684L371.518,138.25z"/>
			</g>
		</g>
		<g id="XMLID_30692_">
			<path id="XMLID_30693_" style="fill:#FFA8A7;" d="M387.294,180.035c-1.865,2.751-12.47,25.997-12.47,25.997
				s-15.994-1.08-22.764-1.8c-2.133-0.227-1.656-2.512-2.512-4.775c-0.856-2.263-1.938-1.819-1.938-1.819v3.016
				c0.071,2.032-3.28,3.119-4.715,3.677c-2.364,0.919-4.951,1.505-7.39,2.264c-0.826,0.257-1.725,0.57-2.166,1.313
				c-0.399,0.673-0.305,1.556,0.075,2.24c1.105,1.993,3.264,3.095,5.472,3.357c2.723,0.324,5.363-0.458,8.008-0.93
				c3.13-0.558,5.515-1.003,8.616-0.59c2.975,0.396,6.859,1.22,9.813,1.755c3.403,0.616,8.459,1.201,11.423,1.326
				c2.136,0.09,3.679-0.324,5.526-2.925c1.848-2.601,11.983-23.525,11.983-23.525c4.233-6.018,1.804-11.083-1.336-12.158
				C390.952,175.782,389.159,177.283,387.294,180.035z"/>
		</g>
		<path id="XMLID_30691_" style="fill:#FFA8A7;" d="M322.721,157.635c0.81,0.112,1.608,0.307,2.372,0.579
			c1.945,0.692,3.704,1.987,4.781,3.748c0.475,0.776,0.697,1.952,0.581,2.853c-0.033,0.255-0.094,0.511-0.222,0.734
			c-0.242,0.421-0.689,0.673-1.115,0.905c-1.767,0.962-3.021,1.036-4.808,0.072c-1.982-1.07-3.999-2.128-6.164-2.777
			c-1.084-0.325-2.2-0.541-3.332-0.591c-0.735-0.033-1.162,0.294-1.784,0.653c-0.396-1.021-0.176-1.8,0.453-2.683
			c1.072-1.503,2.688-2.581,4.449-3.13C319.47,157.518,321.12,157.414,322.721,157.635z"/>
	</g>
</g>
<g id="Character_1">
	<g id="XMLID_1_">
		<g id="XMLID_17_">
			<circle id="XMLID_42_" style="fill:#263238;" cx="145.814" cy="216.028" r="10.485"/>
			
				<rect id="XMLID_41_" x="120.705" y="393.446" transform="matrix(-1 -1.224647e-16 1.224647e-16 -1 248.7965 799.5358)" style="fill:#FFA8A7;" width="7.386" height="12.644"/>
			<polygon id="XMLID_40_" style="fill:#FFA8A7;" points="146.313,392.771 153.694,393.025 154.064,379.645 146.313,379.391 			"/>
			<path id="XMLID_39_" style="fill:#37474F;" d="M121.19,285.08c0,7.053-0.912,57.933-0.912,57.933
				c-0.172,2.029-2.075,5.771-1.663,13.566c0.559,10.588,1.774,43.189,1.774,43.189s3.585,2.095,8.223,0.162
				c0,0,6.517-43.315,7.841-53.808c1.155-9.158,3.114-34.036,3.114-34.036l4.004,29.896c0,0-1.361,5.462-0.915,11.738
				c0.345,4.854,3.189,34.906,3.189,34.906s3.476,2.359,8.528,0.652c0,0,3.732-42.844,3.818-47.297
				c0.097-5.077-2.456-56.902-2.456-56.902H121.19z"/>
			<path id="XMLID_38_" style="fill:#27DEBF;" d="M154.719,242.154c4.33,3.561,12.152,10.784,12.152,10.784l-12.205,6.716
				l-7.751-20.815C146.915,238.839,149.957,238.238,154.719,242.154z"/>
			<path id="XMLID_37_" style="opacity:0.1;" d="M154.719,242.154c4.33,3.561,12.152,10.784,12.152,10.784l-12.205,6.716
				l-7.751-20.815C146.915,238.839,149.957,238.238,154.719,242.154z"/>
			<path id="XMLID_36_" style="fill:#27DEBF;" d="M123.702,243.914c0,0-2.763,2.767-2.763,9.467v14.471l-0.212,27.325
				c10.601,5.588,23.987,5.912,35.297-2.347c0,0-0.541-35.123-0.541-40.876c0-5.753-3.206-13.231-12.032-13.744l-11.394,2.646
				L123.702,243.914z"/>
			<g id="XMLID_21_">
				<g id="XMLID_29_">
					<path id="XMLID_35_" style="fill:#263238;" d="M127.69,223.483c0,0,1.699,7.983,2.38,9.294
						c0.681,1.312,2.089,1.684,2.089,1.684l-0.119-5.615L127.69,223.483z"/>
					<path id="XMLID_34_" style="fill:#263238;" d="M129.822,212.047c0,0-1.83-0.314-3.257,1.145
						c-1.398,1.43-0.617,5.907,1.124,10.291l3.201,0.367L129.822,212.047z"/>
					<path id="XMLID_33_" style="fill:#FFA8A7;" d="M131.85,223.853c-0.642,0.383-1.557-0.849-2.349-1.678
						c-0.791-0.828-3.375-1.96-4.664,0.756c-1.313,2.768,1.138,6.424,3.172,7.063c3.505,1.1,4.032-1.148,4.032-1.148l0.268,12.644
						c0,0,3.021,4.988,10.791,6.201c3.971,0.62,4.936-3.245,0.613-6.535l-0.01-3.848c0,0,3.176,0.482,4.726,0.242
						c2.578-0.398,4.2-2.432,4.982-5.223c1.256-4.482,1.733-8.101,0.667-16.915c-1.168-9.661-12.405-9.762-18.473-5.943
						C129.536,213.289,131.85,223.853,131.85,223.853z"/>
					<path id="XMLID_32_" style="fill:#263238;" d="M131.85,224.933c-0.323,0.006-1.55-2.03-2.349-2.758
						c-1.107-1.007,0.321-10.128,0.321-10.128s-1.064-2.267,1.068-4.613c1.516-1.669,4.051-1.854,8.377-2.534
						c2.27-0.357,5.712-0.992,7.979-1.414c2.707-0.503,4.948-1.036,6.859,0.625c1.488,1.293,2.128,3.577,1.327,5.378
						c-0.188,0.422-0.46,0.804-0.769,1.148c-0.548,0.609-1.168,1.089-1.948,1.342c0,0-1.18,1.047-5.287,1.547
						c-4.106,0.5-10.502-0.096-11.376-0.216c-1.191-0.163-1.445,0.991-2.087,4.144C133.402,220.221,132.935,224.912,131.85,224.933z
						"/>
					<path id="XMLID_31_" style="fill:#263238;" d="M129.828,212.757l-3.88-2.083c0.551-1.112,1.866-1.547,2.937-0.972
						C129.957,210.277,130.379,211.645,129.828,212.757z"/>
					<path id="XMLID_30_" style="fill:#F28F8F;" d="M143.703,237.308c0,0-5.755-1.159-7.766-2.229
						c-1.347-0.716-2.456-1.956-2.781-2.751c0,0,0.377,1.707,1.58,3.245c1.471,1.881,8.967,3.266,8.967,3.266L143.703,237.308z"/>
				</g>
				<g id="XMLID_22_">
					<path id="XMLID_28_" style="fill:#263238;" d="M142.32,222.414c0,0.662-0.516,1.197-1.153,1.195
						c-0.637-0.002-1.153-0.54-1.153-1.201c0-0.662,0.516-1.197,1.153-1.195C141.804,221.215,142.32,221.753,142.32,222.414z"/>
					<path id="XMLID_27_" style="fill:#263238;" d="M141.097,218.061l-2.467,1.361c-0.364-0.709-0.106-1.588,0.575-1.964
						C139.886,217.082,140.733,217.352,141.097,218.061z"/>
					<path id="XMLID_26_" style="fill:#F28F8F;" d="M143.182,230.38l2.633,0.988c-0.261,0.755-1.061,1.145-1.788,0.872
						C143.299,231.968,142.921,231.135,143.182,230.38z"/>
					<path id="XMLID_25_" style="fill:#263238;" d="M152.603,219.021l-2.249-1.733c0.459-0.644,1.334-0.778,1.955-0.3
						C152.93,217.466,153.062,218.376,152.603,219.021z"/>
					<path id="XMLID_24_" style="fill:#263238;" d="M151.911,222.086c0,0.662-0.516,1.197-1.153,1.195
						c-0.637-0.002-1.153-0.539-1.153-1.201c0-0.662,0.516-1.197,1.153-1.195C151.395,220.886,151.911,221.424,151.911,222.086z"/>
					<polygon id="XMLID_23_" style="fill:#F28F8F;" points="146.036,220.992 146.414,227.928 150.035,226.693 					"/>
				</g>
			</g>
			<path id="XMLID_20_" style="fill:#263238;" d="M128.091,402.444v-1.056c0.707,0.308,2.349,6.572,5.279,9.245
				c2.33,2.125,5.508,4.579,6.316,6.948c0.841,2.464-4.426,3.824-6.602,3.439c-2.529-0.448-6.912-2.229-8.012-3.879
				c-1.1-1.651-1.616-4.086-2.51-5.296c-0.894-1.21-2.955-2.56-3.439-3.961c-0.266-0.769,0.05-2.454,0.423-3.877
				c0.342-1.306,0.714-2.742,1.159-2.619c0.001,0.159,0,0.805,0,0.805c0.536,0.594,2.02,1.184,3.693,1.248
				C125.479,403.483,128.1,403.268,128.091,402.444z"/>
			<path id="XMLID_19_" style="fill:#263238;" d="M153.773,390.748c0.383,0.013,0.696,0.554,1.542,1.47
				c1.022,1.107,2.695,2.3,4.345,3.126c2.766,1.384,8.142,3.514,10.576,4.61c1.52,0.685,1.449,2.521-0.122,3.566
				c-1.571,1.045-5.365,1.798-9.921,0.779c-2.482-0.555-5.712-2.847-7.757-2.723c-2.045,0.124-5.871,0.094-7.38-0.946
				c-1.509-1.04-0.905-3.262-0.479-5.171c0.465-2.084,1.048-5.333,1.738-5.191v0.718c0.888,1.345,5.47,1.892,7.421,0.902
				L153.773,390.748z"/>
			<path id="XMLID_18_" style="fill:#263238;" d="M139.568,312.087c0,0,5.903-1.663,10.285-5.897c0,0-1.984,3.716-7.886,7.174
				l1.262,26.061L139.568,312.087z"/>
		</g>
		<g id="XMLID_8_">
			<path id="XMLID_16_" style="fill:#F5F5F5;" d="M148.777,340.07l-0.697-0.402c-1.114-0.643-2.017-2.207-2.017-3.493l0-71.798
				c0-1.286,0.903-2.85,2.017-3.493l62.179-35.899c1.114-0.643,2.919-0.643,4.033,0l0.696,0.402
				c1.114,0.643,2.017,2.207,2.017,3.493l0,71.799c0,1.286-0.903,2.85-2.017,3.493L152.81,340.07
				C151.696,340.713,149.89,340.713,148.777,340.07z"/>
			<g id="XMLID_12_">
				<path id="XMLID_15_" style="fill:#455A64;" d="M182.725,254.264c10.776-6.222,19.511-1.178,19.511,11.265
					c0,12.443-8.735,27.573-19.511,33.795c-10.776,6.222-19.511,1.178-19.511-11.265
					C163.214,275.616,171.949,260.485,182.725,254.264z"/>
				<path id="XMLID_14_" style="fill:#27DEBF;" d="M182.588,264.057c3.496-2.019,6.33-0.382,6.33,3.654
					c0,4.037-2.834,8.946-6.33,10.964c-3.496,2.018-6.33,0.382-6.33-3.655C176.258,270.983,179.092,266.075,182.588,264.057z"/>
				<path id="XMLID_13_" style="fill:#27DEBF;" d="M195.063,285.581c0-6.632-4.657-9.321-10.399-6.004l-3.591,2.073
					c-5.743,3.316-10.399,11.38-10.399,18.013v1.785c3.32,1.102,7.499,0.505,12.052-2.124c4.682-2.703,8.976-7.09,12.338-12.204
					V285.581z"/>
			</g>
			<path id="XMLID_11_" style="fill:#FAFAFA;" d="M216.986,228.555c-0.137-1.046-0.982-1.426-1.996-0.845l-62.184,35.908
				c-0.56,0.317-1.056,0.877-1.426,1.5l-4.721-2.725c0.359-0.634,0.866-1.183,1.426-1.51l62.173-35.897
				c1.12-0.644,2.926-0.644,4.034,0l0.697,0.401C216.004,225.979,216.859,227.341,216.986,228.555z"/>
			<path id="XMLID_10_" style="fill:#E0E0E0;" d="M152.468,340.229c-1.109,0.475-2.682,0.422-3.686-0.158l-0.708-0.401
				c-1.109-0.644-2.007-2.207-2.007-3.496v-71.794c0-0.644,0.222-1.362,0.592-1.986l4.721,2.725
				c-0.359,0.634-0.591,1.352-0.591,1.986v71.805C150.789,340.06,151.518,340.598,152.468,340.229z"/>
			<path id="XMLID_9_" style="fill:#27DEBF;" d="M161.275,322.169v0.038c0,2.042,1.433,2.869,3.201,1.848l36.496-21.072
				c1.768-1.021,3.202-3.503,3.202-5.545v-0.037c0-2.042-1.432-2.869-3.201-1.848l-36.498,21.071
				C162.708,317.645,161.275,320.128,161.275,322.169z"/>
		</g>
		<g id="XMLID_3_">
			<g id="XMLID_6_">
				<path id="XMLID_7_" style="fill:#FFA8A7;" d="M111.849,287.156c-3.788-2.632-3.738-6.557-2.526-11.038
					c8.25-30.502,10.774-30.664,14.379-32.204l2.888,12.001l-7.711,24.99c5.773,4.097,11.711,6.878,17.25,8.09
					c0.981,0.215,2.972,0.087,3.848-0.404c2.349-1.32,3.676-1.321,6.081-1.967l0,3.934c0,0,2.799,0.47,6.474-0.215
					c4.981-0.928,7.165,0.104,4.116,5.807c-1.911,3.573-5.622,4.752-14.92,3.148c-2.679-0.462-6.752-1.504-10.015-2.609
					C123.216,293.811,115.948,290.003,111.849,287.156z"/>
			</g>
			<path id="XMLID_5_" style="fill:#27DEBF;" d="M123.702,243.914c0,0,3.545,2.225,4.307,7.82
				c0.762,5.595-4.617,20.795-4.617,20.795s-8.69-0.832-12.296-5.113c0,0,5.024-13.903,5.965-17.044
				C118.557,245.38,122.333,244.415,123.702,243.914z"/>
			<path id="XMLID_4_" style="opacity:0.1;" d="M123.702,243.914c0,0,3.545,2.225,4.307,7.82c0.762,5.595-4.617,20.795-4.617,20.795
				s-8.69-0.832-12.296-5.113c0,0,5.024-13.903,5.965-17.044C118.557,245.38,122.333,244.415,123.702,243.914z"/>
		</g>
		<path id="XMLID_2_" style="fill:#FFA8A7;" d="M217.004,245.875l-0.001,4.441c0,0-2.404,3.656-4.983,4.999
			c-2.579,1.344-2.562,6.742,0.653,7.501c3.215,0.759,7.624-3.203,7.999-5.383C221.046,255.252,220.23,245.641,217.004,245.875z"/>
	</g>
</g>
</svg>
