<?xml version="1.0" encoding="utf-8"?>
<!-- Generator: Adobe Illustrator 27.5.0, SVG Export Plug-In . SVG Version: 6.00 Build 0)  -->
<svg version="1.1" xmlns="http://www.w3.org/2000/svg" xmlns:xlink="http://www.w3.org/1999/xlink" x="0px" y="0px"
	 viewBox="0 0 500 500" style="enable-background:new 0 0 500 500;" xml:space="preserve">
<g id="Floor">
	<path id="Floor_11_" style="fill:#F5F5F5;" d="M97.859,427.482c81.257,39.877,213,39.878,294.255,0.001
		c81.257-39.878,81.257-104.531,0-144.408c-81.257-39.877-213-39.877-294.256-0.001C16.602,322.951,16.602,387.605,97.859,427.482z"
		/>
</g>
<g id="Shadows">
	<path id="Shadow_18_" style="fill:#E0E0E0;" d="M143.076,365.95l11.225,6.432c1.197,0.688,3.137,0.685,4.333-0.005l126.142-72.811
		c1.196-0.69,1.194-1.807-0.003-2.494l-11.199-6.415c-1.198-0.687-3.138-0.685-4.334,0.006l-126.166,72.793
		C141.877,364.145,141.878,365.262,143.076,365.95z"/>
	<path id="Shadow_16_" style="fill:#E0E0E0;" d="M378.64,396.599c-11.358,5.996-29.772,5.996-41.129,0
		c-11.358-5.995-11.358-15.716,0-21.712c11.358-5.995,29.771-5.995,41.129,0C389.997,380.883,389.997,390.604,378.64,396.599z"/>
	<path id="Shadow_17_" style="fill:#E0E0E0;" d="M350.919,414.208c-12.903,6.812-33.823,6.812-46.726,0
		c-12.903-6.811-12.903-17.855,0-24.667c12.903-6.811,33.823-6.811,46.726,0C363.822,396.353,363.822,407.397,350.919,414.208z"/>
</g>
<g id="Clouds">
	<g id="Clouds_1_">
		<path id="Cloud_5_" style="fill:#EBEBEB;" d="M368.341,76.796l7.407,4.276c-0.037-0.331-0.062-0.659-0.062-0.98v-2.146
			c0-3.819,2.681-5.366,5.988-3.457c1.339,0.773,2.571,1.998,3.569,3.432c0.542-4.802,4.309-6.59,8.884-3.949
			c4.948,2.856,8.958,9.803,8.958,15.516v3.21c0,1.48-0.274,2.726-0.758,3.719l6.152,3.552c1.835,1.059,3.322,3.635,3.322,5.753
			c0,2.118-1.487,2.977-3.322,1.918l-40.138-23.174c-1.834-1.059-3.322-3.635-3.322-5.753
			C365.019,76.596,366.507,75.737,368.341,76.796z"/>
		<path id="Cloud_4_" style="fill:#EBEBEB;" d="M337.565,95.878l5.43,3.135c-0.027-0.242-0.046-0.483-0.046-0.719v-1.573
			c0-2.799,1.965-3.934,4.39-2.534c0.982,0.567,1.885,1.465,2.616,2.516c0.397-3.52,3.159-4.831,6.513-2.895
			c3.627,2.094,6.567,7.187,6.567,11.375v2.353c0,1.085-0.201,1.998-0.556,2.726l4.51,2.604c1.345,0.777,2.435,2.665,2.435,4.217
			c0,1.553-1.09,2.182-2.435,1.406l-29.425-16.988c-1.345-0.776-2.435-2.665-2.435-4.217
			C335.13,95.731,336.221,95.101,337.565,95.878z"/>
	</g>
</g>
<g id="Device">
	<g id="Device_1_">
		<g id="Device_2_2_">
			<path id="XMLID_1025_" style="fill:#37474F;" d="M154.187,365.619l-2.821-1.629c-2.291-1.323-4.148-4.54-4.148-7.185V109.628
				c0-2.645,1.857-5.862,4.148-7.185l113.999-65.818c2.291-1.323,6.005-1.323,8.296,0l2.823,1.63
				c2.291,1.323,4.148,4.539,4.148,7.185v247.176c0,2.645-1.857,5.862-4.148,7.185l-114.002,65.818
				C160.192,366.942,156.478,366.941,154.187,365.619z"/>
			<path id="XMLID_1024_" style="fill:#263238;" d="M163.894,114.467l-15.461-8.926c-0.751,1.3-1.215,2.765-1.215,4.088v247.177
				c0,2.645,1.857,5.862,4.148,7.185l2.821,1.629c2.291,1.323,6.005,1.323,8.296,0l1.411-0.815V114.467z"/>
			<path id="XMLID_1023_" style="fill:#455A64;" d="M158.335,116.047v247.177c0,2.645,1.857,3.718,4.148,2.395l114.002-65.818
				c2.291-1.323,4.148-4.539,4.148-7.185V45.44c0-2.645-1.857-3.717-4.148-2.395l-114.001,65.818
				C160.192,110.185,158.335,113.402,158.335,116.047z"/>
			<path id="XMLID_1022_" style="fill:#FAFAFA;" d="M167.449,131.672l104.068-60.083c1.964-1.134,3.556-0.215,3.556,2.053v197.193
				c0,2.267-1.592,5.025-3.555,6.158l-104.066,60.083c-1.964,1.134-3.555,0.215-3.555-2.053l-0.001-197.193
				C163.894,135.563,165.486,132.805,167.449,131.672z"/>
			<path id="XMLID_944_" style="fill:#263238;" d="M219.483,82.372c1.535-0.886,2.78-0.168,2.78,1.605
				c0,1.772-1.244,3.928-2.78,4.814c-1.535,0.886-2.779,0.168-2.779-1.605C216.703,85.414,217.948,83.259,219.483,82.372z"/>
			<g id="XMLID_941_">
				<path id="XMLID_943_" style="fill:#263238;" d="M211.457,96.257c5.647-3.122,15.722-9.118,21.29-12.393
					c0.945-0.556,1.711-0.173,1.711,0.856c0,1.029-0.77,2.307-1.719,2.855l-21.326,12.317c-0.95,0.548-1.719,0.159-1.719-0.87
					C209.693,97.993,210.497,96.787,211.457,96.257z"/>
				<path id="XMLID_942_" style="fill:#263238;" d="M206.069,99.37c0.862-0.498,1.561-0.094,1.561,0.901s-0.699,2.205-1.561,2.703
					c-0.862,0.498-1.561,0.094-1.561-0.901C204.508,101.078,205.207,99.868,206.069,99.37z"/>
			</g>
			<path id="XMLID_940_" style="fill:#263238;" d="M219.483,313.453c3.07-1.772,5.559-0.335,5.559,3.21
				c0,3.545-2.489,7.856-5.559,9.628c-3.07,1.772-5.559,0.336-5.559-3.209C213.924,319.536,216.413,315.226,219.483,313.453z"/>
		</g>
		<g id="XMLID_2449_">
			<g id="XMLID_1978_">
				<polygon id="XMLID_1977_" style="fill:#EBEBEB;" points="173.659,273.923 173.658,167.868 265.503,114.841 265.503,220.896 				
					"/>
				<g id="XMLID_751_">
					<defs>
						<polygon id="XMLID_795_" points="173.658,167.87 265.503,114.842 265.503,220.897 173.659,273.924 						"/>
					</defs>
					<clipPath id="XMLID_00000109750411956803914580000010279545099690054571_">
						<use xlink:href="#XMLID_795_"  style="overflow:visible;"/>
					</clipPath>
					<g id="XMLID_755_" style="clip-path:url(#XMLID_00000109750411956803914580000010279545099690054571_);">
						<g id="Character_5_">
							<g id="XMLID_1179_">
								<g id="XMLID_1785_">
									<path id="XMLID_1794_" style="fill:#263238;" d="M260.568,188.928l-21.139,1.849c-8.529,0.746-15.443-5.563-15.443-14.092
										v-3.751c-0.275-10.078,7.742-19.191,17.844-20.35l0,0c10.102-1.159,18.514,6.071,18.789,16.149L260.568,188.928z"/>
								</g>
								<path id="XMLID_1113_" style="fill:#263238;" d="M227.24,162.64l-4.181-1.879c0.593-1.25,2.01-1.843,3.165-1.324
									C227.379,159.956,227.834,161.39,227.24,162.64z"/>
								<path id="XMLID_1171_" style="fill:#263238;" d="M227.308,161.407l-1.339-4.435c1.27-0.53,2.598,0.033,2.968,1.258
									C229.307,159.454,228.577,160.877,227.308,161.407z"/>
								<path id="XMLID_1071_" style="fill:#263238;" d="M193.899,178.395l-4.181-1.879c0.593-1.25,2.01-1.843,3.165-1.324
									C194.037,175.712,194.492,177.145,193.899,178.395z"/>
								<path id="XMLID_1773_" style="fill:#B16668;" d="M250.884,190.592c2.602-0.523,6.326-2.579,10.15,4.23
									c3.825,6.809,11.246,21.482,11.246,21.482l16.441-13.596l4.631,4.636c0,0-16.545,17.612-18.971,20.242
									c-1.928,2.09-4.226,2.536-6.727-0.419c-2.94-3.474-12.213-17.73-12.213-17.73L250.884,190.592z"/>
								<g id="XMLID_796_">
									<g id="XMLID_797_">
										<g id="XMLID_18232_">
											<path id="XMLID_18154_" style="fill:#27DEBF;" d="M287.217,208.135l45.746-29.596l0.932,2.574l-45.139,29.203
												C286.311,211.861,285.282,209.283,287.217,208.135z"/>
										</g>
										<g id="XMLID_798_" style="opacity:0.1;">
											<path id="XMLID_799_" d="M287.217,208.135l45.746-29.596l0.932,2.574l-45.139,29.203
												C286.311,211.861,285.282,209.283,287.217,208.135z"/>
										</g>
										<g id="XMLID_800_">
											<path id="XMLID_18245_" style="fill:#37474F;" d="M341.206,161.926l-8.176,5.436c-0.231,0.153-0.418,0.493-0.418,0.76
												v19.393c0,0.266,0.187,0.358,0.418,0.204l8.176-5.436c0.231-0.153,0.418-0.494,0.418-0.76l0-19.393
												C341.624,161.864,341.437,161.773,341.206,161.926z"/>
											<path id="XMLID_18244_" style="fill:#455A64;" d="M333.031,167.361l8.176-5.436c0.206-0.137,0.377-0.078,0.411,0.127
												c-0.031-0.246-0.203-0.507-0.411-0.609l-0.34-0.167c-0.231-0.113-0.605-0.08-0.835,0.073l-8.176,5.436
												c-0.115,0.077-0.22,0.2-0.295,0.338l1.175,0.576C332.811,167.561,332.915,167.438,333.031,167.361z"/>
											<path id="XMLID_18243_" style="fill:#263238;" d="M331.438,186.939c0,0.266,0.187,0.574,0.418,0.687l0.34,0.167
												c0.209,0.102,0.533,0.084,0.764-0.033c-0.197,0.092-0.347-0.006-0.347-0.244v-19.393c0-0.133,0.047-0.285,0.122-0.422
												l-1.175-0.576c-0.076,0.137-0.122,0.289-0.122,0.422L331.438,186.939z"/>
											<g id="XMLID_18231_">
												<g id="XMLID_18230_">
													<path id="XMLID_18155_" style="fill:#27DEBF;" d="M339.051,173.561l2.573-1.711c0.527-0.35,0.954-0.215,0.954,0.302
														c0,0.517-0.427,1.221-0.954,1.571l-2.567,1.706C338.531,175.781,338.524,173.912,339.051,173.561z"/>
													<path id="XMLID_892_" style="fill:#27DEBF;" d="M339.051,177.102l2.573-1.711c0.527-0.35,0.954-0.215,0.954,0.303
														c0,0.517-0.427,1.221-0.954,1.571l-2.567,1.706C338.531,179.321,338.524,177.452,339.051,177.102z"/>
												</g>
											</g>
											<path id="XMLID_18235_" style="fill:#263238;" d="M334.447,167.488c-0.377,0.251-0.683,0.83-0.682,1.294v1.472
												c0,0.464,0.306,0.637,0.683,0.386c0.377-0.251,0.682-0.83,0.682-1.294l0-1.472
												C335.13,167.411,334.824,167.238,334.447,167.488z"/>
											<g id="XMLID_18237_">
												<path id="XMLID_18239_" style="fill:#F5F5F5;" d="M334.447,168.043c-0.162,0.108-0.294,0.347-0.294,0.535
													c0,0.187,0.132,0.252,0.294,0.144c0.162-0.108,0.294-0.347,0.294-0.535C334.741,167.999,334.61,167.935,334.447,168.043
													z"/>
											</g>
											<g id="XMLID_18234_">
												<path id="XMLID_18236_" style="fill:#F5F5F5;" d="M334.447,169.199c-0.162,0.108-0.294,0.347-0.294,0.535
													c0,0.187,0.132,0.252,0.294,0.144c0.162-0.108,0.294-0.347,0.294-0.535C334.741,169.155,334.61,169.091,334.447,169.199
													z"/>
											</g>
											<path id="XMLID_891_" style="fill:#27DEBF;" d="M342.102,171.411c0.263,0.114,0.476,0.453,0.476,0.757v3.87
												c0,0.304-0.209,0.699-0.468,0.882l-0.486,0.345l0.002-6.06C341.626,171.205,341.839,171.297,342.102,171.411z"/>
										</g>
									</g>
									<g id="XMLID_801_">
										<path id="XMLID_817_" style="fill:#B16668;" d="M284.63,206.091c1.852-1.895,4.971-5.499,6.692-6.322
											c1.721-0.824,7.406-1.396,8.678-2.031c1.272-0.635,1.558,1.002,0.277,1.948l-11.833,7.656L284.63,206.091z"/>
										<path id="XMLID_831_" style="fill:#B16668;" d="M289.963,209.536c0.306-0.198,2.906-1.88,2.906-1.88
											c-0.479-0.33-1.075-0.738-1.392-1.227c-0.317-0.489-0.27-1.307-0.065-1.895c0.227-0.653,0.825-1.12,1.409-1.506
											c1.362-0.899,3.182-1.98,4.78-2.187c1.293-0.168,2.797-0.505,4.065-0.25c0.489,0.098,1.105,0.503,1.25,0.775
											c0.377,0.712,0.808,2.582,0.761,3.37c-0.048,0.788-1.243,1.603-2.064,1.837c0,0,0.241,2.121-2.655,2.405
											c0,0-0.037,1.404-1.991,1.713c-1.955,0.309-2.784-0.399-4.853-0.094s-4.943,3.333-4.943,3.333L289.963,209.536z"/>
									</g>
								</g>
								<path id="XMLID_1573_" style="fill:#27DEBF;" d="M207.88,207.829c3.379-1.528,20.475-5.779,26.815-6.219l1.884,14.497
									l-22.346,6.695L207.88,207.829z"/>
								<path id="XMLID_832_" style="opacity:0.1;" d="M207.88,207.829c3.379-1.528,20.475-5.779,26.815-6.219l1.884,14.497
									l-22.346,6.695L207.88,207.829z"/>
								<g id="XMLID_1065_">
									<g id="XMLID_1066_">
										<g id="XMLID_1967_">
											<g id="XMLID_1969_">
												<polygon id="XMLID_2488_" style="fill:#FFA8A7;" points="229.926,358.315 238.245,357.793 238.245,347.174 
													229.926,347.696 												"/>
											</g>
										</g>
										<g id="XMLID_1939_">
											<g id="XMLID_1966_">
												<path id="XMLID_2466_" style="fill:#263238;" d="M251.83,353.47c0.446,1.264,2.635,2.104,4.211,3.145
													c1.429,0.944,1.596,2.7,1.003,3.775c-0.594,1.074-3.383,1.85-6.357,1.628c-3.362-0.251-6.894-1.731-7.502-4.656
													c-0.851-4.091-0.901-4.349-1.984-7.122c-0.58-1.484-1.601-2.837-1.364-4.398c0.229-1.51,1.391-2.965,2.518-3.797
													c0,0,6.137,12.342,7.69,12.502C251.597,354.706,251.83,353.47,251.83,353.47z"/>
											</g>
											<g id="XMLID_1940_">
												<path id="XMLID_2456_" style="fill:#FFA8A7;" d="M252.082,336.738c0,0-1.165,4.245-1.553,5.638
													c-0.388,1.393,0.155,8.242,0.874,10.092c0.679,1.749,0.921,1.85,1.843,2.621c0,0,2.237,1.743-0.353,2.358
													c-2.052,0.487-4.656,0.151-6.502-1.797c-1.714-1.809-1.924-7.407-3.074-9.606c-0.737-1.409-1.277-2.275-1.471-2.743
													c-0.194-0.468,0.509-0.789,1.224-2.942c0.716-2.153,1.27-6.364,1.27-6.364L252.082,336.738z"/>
											</g>
										</g>
										<g id="XMLID_1936_">
											<g id="XMLID_1938_">
												<path id="XMLID_2453_" style="fill:#27DEBF;" d="M225.762,243.235c-3.531,9.922-0.766,26.498,0.426,39.339
													c1.037,11.175,2.377,20.641,2.377,20.641s-2.095,5.426-1.944,13.673c0.16,8.764,3.213,32.999,3.213,32.999
													s4.311,2.272,8.515-0.539c0,0,1.2-14.691,2.393-24.863c1.246-10.623,1.663-18.331,2.748-24.573
													c1.352-7.779,2.171-32.242,2.171-32.242l6.109,25.474c0,0-2.732,5.765-4.337,12.132
													c-1.605,6.367-3.933,32.21-3.933,32.21s2.888,3.431,7.959,2.444c0,0,13.278-40.195,14.737-44.338
													c2.004-5.69-2.025-42.43-3.142-54.477L225.762,243.235z"/>
											</g>
										</g>
										<path id="XMLID_1760_" style="opacity:0.1;" d="M245.66,267.671l0.493-6.274c0,0,5.345-0.156,9.622-3.595
											c0,0-2.732,3.734-7.365,5.136l-0.601,5.741l2.663,19.058L245.66,267.671z"/>
										<g id="XMLID_1933_">
											<g id="XMLID_1934_">
												<path id="XMLID_2450_" style="fill:#F5F5F5;" d="M235.734,194.56c0,0-2.99,0.883-5.259,1.788
													c3.173,7.196-0.396,20.118-0.396,20.118l4.688,12.478c-4.011,4.858-8.975,9.353-10.337,16.249
													c2.699,2.891,20.665,6.832,38.622-4.076c0,0-0.677-11.062-3.137-17.928c2.696-11.494,2.825-14.477,2.056-17.387
													c-2.165-8.19-4.574-10.062-11.087-15.21L235.734,194.56z"/>
											</g>
										</g>
										<g id="XMLID_1930_">
											<g id="XMLID_1931_">
												<path id="XMLID_2443_" style="fill:#263238;" d="M238.245,354.194v-1.043c0.207,1.571,2.319,6.286,5.212,8.672
													c2.3,1.897,5.438,4.045,6.236,6.314c0.83,2.36-3.706,3.72-6.68,3.683c-3.481-0.043-6.197-1.897-7.484-3.261
													c-1.893-2.004-2.887-3.605-3.77-4.722c-0.883-1.117-2.918-2.273-3.395-3.613c-0.262-0.737,0.049-2.427,0.418-3.865
													c0.338-1.319,0.704-2.768,1.145-2.686c0.001,0.157,0,0.795,0,0.795c0.529,0.54,1.994,0.995,3.646,0.913
													C234.638,355.329,238.254,355.007,238.245,354.194z"/>
											</g>
										</g>
										<g id="XMLID_1928_">
											<g id="XMLID_1929_">
												<path id="XMLID_2427_" style="fill:#FFA8A7;" d="M229.926,354.468c0.529,0.54,1.994,0.994,3.645,0.913
													c1.067-0.052,4.683-0.374,4.674-1.187v-1.043c0.208,1.571,2.319,6.286,5.212,8.672c0.551,0.454,1.15,0.923,1.752,1.404
													c1.223,1.256,0.876,2.475-1.999,2.975c-2.875,0.499-6.431-1.13-8.612-3.616
													C232.419,360.1,229.926,354.468,229.926,354.468z"/>
											</g>
										</g>
										<g id="XMLID_1758_">
											<g id="XMLID_1759_">
												<polygon id="XMLID_2034_" style="fill:#E0E0E0;" points="231.998,221.573 239.276,230.799 234.767,228.944 												
													"/>
											</g>
										</g>
									</g>
								</g>
								<g id="XMLID_1180_">
									<g id="XMLID_1181_">
										<g id="XMLID_1390_">
											<path id="XMLID_1404_" style="fill:#B16668;" d="M253.324,159.465c1.963,0.917,4.483,5.491,4.525,15.68
												c0.035,8.636-2.705,11.085-4.093,11.859c-1.388,0.775-4.108,0.712-6.755,0.577l0.047,3.573c0,0,4.75,4.781,4.585,7.178
												c-0.164,2.397-6.077,4.149-9.548,2.225c-3.47-1.925-6.341-5.657-6.341-5.657l-0.388-12.345c0,0-1.51,1.68-4.201-0.311
												c-2.222-1.644-3.04-4.753-1.396-6.66c1.645-1.907,4.784-1.799,6.049,0.506c0,0,4.206-0.329,9.717-4.037
												C251.037,168.346,253.044,162.847,253.324,159.465z"/>
										</g>
										<g id="XMLID_1211_">
											<path id="XMLID_1253_" style="fill:#263238;" d="M247.048,174.088c0.049,0.617-0.397,1.196-0.995,1.293
												c-0.598,0.097-1.122-0.325-1.17-0.942c-0.048-0.617,0.397-1.196,0.996-1.293
												C246.477,173.049,247,173.471,247.048,174.088z"/>
										</g>
										<g id="XMLID_1209_">
											<path id="XMLID_1210_" style="fill:#9A4A4D;" d="M247.538,181.356l2.544,0.513c-0.19,0.744-0.913,1.232-1.615,1.09
												C247.764,182.818,247.348,182.1,247.538,181.356z"/>
										</g>
										<g id="XMLID_1207_">
											<path id="XMLID_1208_" style="fill:#263238;" d="M255.859,170.183l-2.238-1.267c0.384-0.672,1.196-0.933,1.814-0.583
												C256.053,168.683,256.243,169.512,255.859,170.183z"/>
										</g>
										<g id="XMLID_1205_">
											<path id="XMLID_1206_" style="fill:#263238;" d="M255.423,172.784c0.048,0.617-0.398,1.196-0.996,1.293
												c-0.598,0.097-1.122-0.325-1.17-0.942c-0.048-0.617,0.397-1.196,0.995-1.293
												C254.85,171.745,255.374,172.167,255.423,172.784z"/>
										</g>
										<g id="XMLID_1184_">
											<polygon id="XMLID_1185_" style="fill:#9A4A4D;" points="250.507,171.744 250.635,178.809 254.045,177.352 											
												"/>
										</g>
										<g id="XMLID_1182_">
											<path id="XMLID_1183_" style="fill:#9A4A4D;" d="M247.001,187.582c-2.786-0.045-8.543-1.027-9.495-3.177
												c0,0,0.335,1.382,2.081,2.645c1.747,1.263,7.437,2.273,7.437,2.273L247.001,187.582z"/>
										</g>
									</g>
								</g>
							</g>
							<path id="XMLID_1178_" style="fill:#FFA8A7;" d="M247.048,191.155l-0.017-1.295c0,0,4.957-1.062,7.325-0.469
								c1.526,0.382,3.659,0.752,5.488,2.224c1.009,0.811,2.162,3.603,2.127,5.42c-0.049,2.517-2.459,3.594-5.712,1.845
								c-1.749-0.941-2.426-3.004-3.585-4C249.37,193.804,247.048,191.155,247.048,191.155z"/>
							<path id="XMLID_1177_" style="fill:#B16668;" d="M230.475,196.348c-5.698,2.375-6.496,4.788-8.614,13.219
								c-1.867,7.431-2.81,12.761-2.81,12.761l-7.5,15.324c0,0,13.226-2.764,14.228-5.435c2.178-5.808,5.683-17.093,6.658-21.681
								C233.509,205.493,234.408,200.209,230.475,196.348z"/>
						</g>
						<g id="XMLID_786_">
							<g id="XMLID_1757_">
								<polygon id="XMLID_1653_" style="fill:#FFA8A7;" points="181.459,387.571 189.477,386.87 189.477,373.145 181.459,373.846 
																	"/>
								<polygon id="XMLID_1652_" style="fill:#FFA8A7;" points="209.257,370.681 217.27,370.256 217.671,355.696 209.257,356.157 
																	"/>
								<path id="XMLID_1574_" style="fill:#37474F;" d="M180.33,255.113c0,7.656,1.174,69.167,1.174,69.167
									c-0.187,2.22-2.252,6.462-1.805,14.884c0.607,11.441,1.417,41.574,1.417,41.574s3.892,1.934,8.927-0.605
									c0,0,7.584-42.499,9.02-54.015c1.254-10.05,3.381-43.706,3.381-43.706l4.346,38.536c0,0-1.478,6.058-0.993,12.829
									c0.375,5.236,2.953,32.449,2.953,32.449s3.774,2.23,9.257-0.102c0,0,4.561-41.722,4.654-46.565
									c0.106-5.521-2.666-68-2.666-68L180.33,255.113z"/>
								<path id="XMLID_1496_" style="fill:#263238;" d="M189.477,382.912v-1.147c0.767,0.267,2.549,6.911,5.731,9.535
									c2.529,2.085,5.979,4.448,6.856,6.943c0.913,2.595-4.804,4.571-7.167,4.36c-2.745-0.246-7.503-1.763-8.698-3.45
									c-1.194-1.687-1.754-4.282-2.724-5.51c-0.971-1.228-3.208-2.499-3.733-3.973c-0.288-0.81,0.054-2.668,0.459-4.249
									c0.372-1.45,0.775-3.044,1.258-2.953c0.001,0.173,0,0.874,0,0.874c0.582,0.594,2.192,1.093,4.009,1.004
									C186.64,384.288,189.486,383.806,189.477,382.912z"/>
								<path id="XMLID_1495_" style="fill:#263238;" d="M217.355,367.776c0.416-0.022,0.755,0.536,1.673,1.449
									c1.11,1.104,2.925,2.241,4.716,2.981c3.002,1.24,8.839,3.041,11.48,4c1.65,0.599,1.573,2.599-0.133,3.883
									c-1.706,1.284-5.824,2.461-10.769,1.788c-2.694-0.367-6.201-2.548-8.421-2.22c-2.22,0.329-6.373,0.66-8.012-0.326
									c-1.638-0.986-0.983-3.455-0.52-5.568c0.505-2.306,1.137-5.889,1.886-5.8v0.78c0.964,1.375,5.938,1.534,8.055,0.274
									L217.355,367.776z"/>
								<path id="XMLID_1427_" style="fill:#263238;" d="M202.444,282.413c0,0,6.408-2.366,11.165-7.378
									c0,0-2.154,4.222-8.561,8.536l1.37,34.633L202.444,282.413z"/>
							</g>
							<g id="XMLID_1072_">
								<g id="XMLID_1169_">
									<path id="XMLID_1170_" style="fill:#27DEBF;" d="M185.458,213.618c0,0-5.822,2.154-5.822,12.048l0.423,18.018
										l-0.084,28.194c5.896,5.898,32.033-1.769,40.981-9.009c0,0-0.968-28.224-1.572-40.663
										c-0.429-8.843-3.415-14.87-11.915-14.316l-10.914,2.454L185.458,213.618z"/>
									<g id="XMLID_835_">
										<path id="XMLID_838_" style="fill:#FFA8A7;" d="M165.31,254.5c3.253-25.392,10.734-38.528,19.856-40.794l-0.647,16.121
											c0,0-4.865,14.251-8.681,27.34c-2.18,7.477-4.594,16.193-4.234,21.444c0.064,0.93,2.501,2.724,3.17,3.322
											c1.798,1.604,2.343,3.079,3.551,4.961c0.946,1.473,1.922,1.938,1.67,2.334c-0.323,0.508-1.387,1.26-2.792,0.593
											c-0.707-0.336-1.555-1.069-2.604-2.025c0,0-0.266,3.897,1.309,6.876c2.134,4.037,1.779,6.296-4.131,5.568
											c-3.703-0.456-6.374-3.972-7.365-12.641c-0.285-2.497-0.322-6.573-0.183-9.799
											C164.589,269.399,164.659,259.581,165.31,254.5z"/>
									</g>
									<g id="XMLID_839_">
										<path id="XMLID_890_" style="fill:#27DEBF;" d="M187.153,213.118c-2.394,0.029-8.722,1.723-12.494,8.229
											c-3.772,6.506-8.046,19.401-8.457,23.258c0,0,7.075,3.278,13.434,2.627l5.53-15.687
											C185.166,231.545,188.333,225.299,187.153,213.118z"/>
										<path id="XMLID_840_" style="opacity:0.1;" d="M187.153,213.118c-2.394,0.029-8.722,1.723-12.494,8.229
											c-3.772,6.506-8.046,19.401-8.457,23.258c0,0,7.075,3.278,13.434,2.627l5.53-15.687
											C185.166,231.545,188.333,225.299,187.153,213.118z"/>
									</g>
								</g>
								<g id="XMLID_1074_">
									
										<ellipse id="XMLID_1165_" transform="matrix(0.6915 -0.7224 0.7224 0.6915 -69.1389 206.0693)" style="fill:#263238;" cx="206.682" cy="183.978" rx="12.47" ry="11.425"/>
									<g id="XMLID_1110_">
										<path id="XMLID_1164_" style="fill:#263238;" d="M187.153,192.814c0,0,1.831,8.441,2.565,9.79
											c0.734,1.349,2.251,1.618,2.251,1.618l-0.128-6.039L187.153,192.814z"/>
										<path id="XMLID_1163_" style="fill:#263238;" d="M189.451,180.291c0,0-1.972-0.165-3.509,1.541
											c-1.507,1.673-0.665,6.422,1.211,10.982l3.449,0.094L189.451,180.291z"/>
										<path id="XMLID_1117_" style="fill:#FFA8A7;" d="M191.635,192.821c-0.691,0.473-1.678-0.769-2.531-1.586
											c-0.853-0.817-3.637-1.793-5.025,1.254c-1.415,3.106,1.226,6.815,3.417,7.311c3.777,0.855,4.344-1.617,4.344-1.617
											l0.288,13.599c3.255,3.351,14.387,1.51,12.288-1.435l-0.01-4.145c0,0,3.422,0.22,5.092-0.184
											c2.778-0.672,4.525-3.017,5.368-6.097c1.353-4.948,1.867-8.892,0.719-18.289c-1.258-10.3-13.366-9.349-19.905-4.661
											C189.142,181.656,191.635,192.821,191.635,192.821z"/>
										<path id="XMLID_1114_" style="fill:#263238;" d="M191.636,193.984c-0.348,0.037-1.67-2.042-2.531-2.75
											c-1.193-0.981,0.346-10.943,0.346-10.943s-1.146-2.342,1.151-5.071c1.634-1.941,4.365-2.38,9.027-3.52
											c2.446-0.598,6.154-1.608,8.597-2.275c2.917-0.798,5.331-1.583,7.391,0.027c1.603,1.252,2.293,3.654,1.43,5.669
											c-0.202,0.473-0.495,0.909-0.828,1.309c-0.59,0.708-1.258,1.283-2.099,1.63c0,0-1.272,1.24-5.696,2.166
											c-4.424,0.926-11.316,0.886-12.258,0.84c-1.283-0.063-1.557,1.204-2.249,4.662
											C193.308,188.761,192.804,193.859,191.636,193.984z"/>
										<path id="XMLID_1111_" style="fill:#F28F8F;" d="M204.407,206.2c0,0-6.2-0.707-8.368-1.669
											c-1.451-0.644-2.646-1.876-2.996-2.703c0,0,0.406,1.804,1.702,3.348c1.585,1.888,9.662,2.674,9.662,2.674L204.407,206.2z"
											/>
									</g>
									<g id="XMLID_1075_">
										<path id="XMLID_1109_" style="fill:#263238;" d="M202.917,190.283c0,0.713-0.557,1.338-1.243,1.396
											c-0.686,0.058-1.243-0.473-1.243-1.186c0-0.713,0.556-1.338,1.243-1.396C202.36,189.04,202.917,189.571,202.917,190.283z"
											/>
										<path id="XMLID_1108_" style="fill:#263238;" d="M200.921,185.314l-2.658,1.7c-0.392-0.729-0.115-1.701,0.619-2.171
											C199.617,184.373,200.53,184.584,200.921,185.314z"/>
										<path id="XMLID_1079_" style="fill:#F28F8F;" d="M203.846,198.785l2.837,0.816c-0.281,0.837-1.143,1.334-1.927,1.109
											C203.972,200.485,203.565,199.623,203.846,198.785z"/>
										<path id="XMLID_1078_" style="fill:#263238;" d="M214.315,185.235l-2.424-1.655c0.494-0.737,1.438-0.964,2.107-0.508
											C214.668,183.53,214.81,184.498,214.315,185.235z"/>
										<path id="XMLID_1077_" style="fill:#263238;" d="M213.251,189.026c0,0.713-0.556,1.338-1.243,1.396
											c-0.686,0.058-1.242-0.473-1.242-1.186c0-0.713,0.556-1.338,1.242-1.396C212.694,187.782,213.251,188.313,213.251,189.026
											z"/>
										<polygon id="XMLID_1076_" style="fill:#F28F8F;" points="207.11,188.565 207.254,196.087 211.708,194.717 										"/>
									</g>
								</g>
							</g>
						</g>
					</g>
				</g>
			</g>
			<path id="XMLID_2400_" style="fill:#EBEBEB;" d="M196.027,132.572v1.141c0,1.825,1.281,2.565,2.862,1.652l30.07-17.361
				c1.581-0.913,2.862-3.132,2.862-4.957v-1.141c0-1.825-1.281-2.565-2.862-1.652l-30.07,17.361
				C197.309,128.528,196.027,130.747,196.027,132.572z"/>
			<path id="XMLID_2401_" style="fill:#EBEBEB;" d="M196.027,142.183c0,0.868,0.641,1.203,1.431,0.746l50.829-29.346
				c0.79-0.456,1.431-1.53,1.431-2.399c0-0.868-0.64-1.203-1.43-0.746l-50.829,29.346
				C196.668,140.241,196.027,141.315,196.027,142.183z"/>
			<g id="XMLID_16787_">
				<g id="XMLID_16788_">
					<g id="XMLID_16789_">
						<path id="XMLID_2426_" style="fill:#27DEBF;" d="M179.189,287.712l-1.788-0.473c-1.707-0.452-3.743-1.45-3.743-3.638
							c0-1.532,1.242-3.491,2.774-4.376c1.41-0.814,2.574,0.056,2.751,1.316c0.177-1.464,1.341-3.679,2.751-4.493
							c1.532-0.885,2.774-0.36,2.774,1.172c0,2.191-2.03,5.534-3.732,7.952L179.189,287.712z"/>
					</g>
				</g>
			</g>
			<g id="XMLID_2423_">
				<path style="fill:#455A64;" d="M194.028,279.257c-0.502,0-0.969-0.119-1.385-0.359c-0.987-0.57-1.53-1.734-1.53-3.278
					c0-2.989,2.106-6.637,4.694-8.131c1.337-0.772,2.617-0.883,3.605-0.314c0.987,0.57,1.531,1.734,1.531,3.278
					c0,0.65-0.099,1.345-0.294,2.066l1.522,2.083c0.098,0.134,0.112,0.311,0.037,0.459c-0.075,0.148-0.227,0.241-0.393,0.241h-2.371
					c-0.867,1.429-1.995,2.589-3.195,3.282C195.474,279.031,194.719,279.257,194.028,279.257z M198.024,267.698
					c-0.535,0-1.14,0.186-1.777,0.554c-2.346,1.354-4.254,4.66-4.254,7.368c0,1.216,0.387,2.109,1.09,2.515
					c0.702,0.405,1.671,0.293,2.724-0.313c1.129-0.653,2.196-1.782,3.003-3.18c0.079-0.136,0.224-0.22,0.381-0.22h1.754
					l-1.086-1.487c-0.118-0.109-0.17-0.276-0.122-0.44c0.214-0.722,0.322-1.409,0.322-2.042c-0.001-1.216-0.388-2.109-1.091-2.515
					C198.693,267.778,198.374,267.698,198.024,267.698z"/>
			</g>
			<g id="XMLID_2418_">
				<g id="XMLID_2417_">
					<path style="fill:#455A64;" d="M209.451,270.894c-0.02,0-0.04-0.001-0.06-0.004c-0.208-0.028-0.367-0.2-0.38-0.41l-0.389-6.336
						l-3.76-1.016c-0.172-0.046-0.299-0.192-0.322-0.368c-0.023-0.177,0.063-0.35,0.217-0.438l8.948-5.167
						c0.16-0.091,0.359-0.075,0.501,0.042c0.142,0.117,0.196,0.31,0.136,0.484l-4.474,12.916
						C209.805,270.777,209.636,270.894,209.451,270.894z M206.115,262.555l3.042,0.822c0.183,0.049,0.314,0.209,0.325,0.398
						l0.273,4.453l3.366-9.718L206.115,262.555z"/>
				</g>
				<g id="XMLID_2422_">
					<path style="fill:#455A64;" d="M209.042,264.242c-0.095,0-0.19-0.03-0.271-0.093c-0.192-0.15-0.226-0.427-0.077-0.619
						l4.882-6.265c0.15-0.191,0.426-0.225,0.619-0.077c0.192,0.15,0.226,0.427,0.077,0.619l-4.882,6.265
						C209.303,264.184,209.173,264.242,209.042,264.242z"/>
				</g>
			</g>
			<g id="XMLID_2440_">
				<path style="fill:#455A64;" d="M255.415,247.847c-0.031,0-0.063-0.003-0.095-0.01c-0.202-0.044-0.346-0.223-0.346-0.43v-10.333
					c0-0.157,0.083-0.302,0.22-0.381l6.537-3.794c0.137-0.08,0.304-0.079,0.44-0.001c0.137,0.079,0.221,0.224,0.221,0.382
					l0.001,10.332c0,0.178-0.106,0.338-0.271,0.407c-0.165,0.069-0.354,0.031-0.479-0.094l-2.84-2.825l-2.987,6.491
					C255.742,247.749,255.584,247.847,255.415,247.847z M255.855,237.328v8.068l2.41-5.237c0.061-0.131,0.181-0.224,0.322-0.25
					c0.142-0.028,0.286,0.02,0.389,0.121l2.536,2.522l-0.001-8.507L255.855,237.328z"/>
			</g>
			<g>
				<g>
					<path style="fill:#455A64;" d="M176.902,301.587c0.173-0.26,0.284-0.487,0.333-0.683c0.05-0.194,0.074-0.363,0.074-0.502
						c0-0.273-0.073-0.463-0.217-0.57c-0.145-0.106-0.384-0.063-0.719,0.131c-0.318,0.184-0.55,0.406-0.697,0.672
						c-0.146,0.264-0.253,0.556-0.316,0.873c-0.018,0.096-0.052,0.182-0.104,0.254c-0.052,0.074-0.104,0.125-0.156,0.155
						l-0.684,0.396c-0.064,0.037-0.12,0.043-0.169,0.022c-0.05-0.022-0.071-0.074-0.066-0.157c0.018-0.31,0.084-0.632,0.199-0.965
						c0.115-0.333,0.271-0.655,0.464-0.968c0.192-0.312,0.419-0.601,0.679-0.867c0.261-0.268,0.541-0.486,0.841-0.66
						c0.364-0.209,0.679-0.322,0.944-0.34c0.266-0.016,0.484,0.033,0.657,0.15c0.174,0.116,0.303,0.282,0.386,0.498
						c0.084,0.214,0.125,0.451,0.125,0.711c0,0.168-0.008,0.33-0.024,0.49c-0.019,0.16-0.059,0.334-0.122,0.521
						c-0.063,0.186-0.156,0.397-0.277,0.629c-0.121,0.233-0.283,0.502-0.484,0.805l-1.603,2.615l2.407-1.39
						c0.063-0.036,0.118-0.042,0.165-0.015c0.046,0.027,0.069,0.076,0.069,0.148v0.711c0,0.074-0.023,0.15-0.069,0.23
						c-0.047,0.08-0.102,0.139-0.165,0.175l-4.044,2.335c-0.064,0.037-0.119,0.042-0.164,0.015
						c-0.047-0.026-0.069-0.076-0.069-0.149v-0.61c0-0.113,0.028-0.229,0.086-0.345c0.058-0.116,0.107-0.203,0.148-0.26
						L176.902,301.587z"/>
					<path style="fill:#455A64;" d="M183.623,294.627c0.063-0.037,0.118-0.042,0.164-0.015c0.046,0.026,0.069,0.076,0.069,0.149
						v0.711c0,0.073-0.021,0.154-0.064,0.241c-0.044,0.089-0.086,0.169-0.126,0.237l-1.265,2.271c0.26-0.11,0.495-0.171,0.706-0.187
						c0.211-0.016,0.391,0.02,0.541,0.102c0.15,0.084,0.266,0.219,0.347,0.405c0.081,0.186,0.121,0.423,0.121,0.71
						c0,0.347-0.059,0.689-0.178,1.027c-0.118,0.339-0.283,0.662-0.493,0.97c-0.211,0.31-0.46,0.595-0.745,0.86
						c-0.286,0.266-0.597,0.494-0.931,0.688c-0.404,0.232-0.755,0.381-1.053,0.442c-0.297,0.062-0.546,0.063-0.744,0.005
						c-0.2-0.058-0.352-0.168-0.455-0.327c-0.105-0.159-0.164-0.342-0.182-0.546c-0.006-0.075,0.016-0.153,0.064-0.232
						c0.05-0.078,0.105-0.136,0.17-0.173l0.684-0.395c0.058-0.033,0.105-0.039,0.144-0.018c0.037,0.022,0.075,0.061,0.116,0.117
						c0.035,0.06,0.08,0.109,0.139,0.145c0.058,0.037,0.134,0.057,0.229,0.059c0.096,0.001,0.215-0.023,0.359-0.073
						c0.144-0.05,0.32-0.136,0.528-0.255c0.352-0.203,0.636-0.449,0.853-0.736c0.217-0.289,0.325-0.584,0.325-0.883
						c0-0.301-0.108-0.453-0.325-0.459c-0.217-0.004-0.501,0.096-0.853,0.299l-0.719,0.414c-0.064,0.037-0.118,0.041-0.165,0.016
						c-0.047-0.027-0.069-0.077-0.069-0.15v-0.71c0-0.073,0.022-0.154,0.065-0.243c0.043-0.088,0.085-0.167,0.125-0.236l1.213-2.17
						l-2.391,1.379c-0.063,0.037-0.118,0.043-0.164,0.016c-0.046-0.026-0.069-0.076-0.069-0.149v-0.711
						c0-0.073,0.023-0.149,0.069-0.23c0.046-0.08,0.101-0.139,0.164-0.176L183.623,294.627z"/>
					<path style="fill:#455A64;" d="M187.917,299.147c-0.064,0.037-0.118,0.043-0.165,0.016c-0.046-0.025-0.069-0.076-0.069-0.149
						v-1.211l-2.685,1.55c-0.063,0.037-0.118,0.042-0.164,0.016c-0.047-0.026-0.069-0.076-0.069-0.15v-0.709
						c0-0.094,0.019-0.186,0.057-0.278c0.037-0.092,0.082-0.192,0.133-0.302l2.651-5.351c0.114-0.233,0.233-0.385,0.354-0.455
						l0.658-0.38c0.063-0.037,0.118-0.042,0.165-0.016c0.046,0.027,0.068,0.077,0.068,0.15v4l0.745-0.43
						c0.063-0.037,0.118-0.041,0.165-0.016c0.046,0.027,0.069,0.077,0.069,0.15v0.71c0,0.073-0.023,0.15-0.069,0.23
						c-0.047,0.079-0.102,0.138-0.165,0.175l-0.745,0.43v1.211c0,0.073-0.022,0.15-0.068,0.229
						c-0.047,0.081-0.102,0.139-0.165,0.176L187.917,299.147z M187.683,296.552v-2.14l-1.48,2.994L187.683,296.552z"/>
					<path style="fill:#455A64;" d="M193.806,295.478c0,0.073-0.023,0.15-0.069,0.229c-0.046,0.08-0.102,0.139-0.165,0.176
						l-0.657,0.379c-0.063,0.037-0.119,0.043-0.165,0.016c-0.046-0.026-0.068-0.076-0.068-0.15v-6.561
						c0-0.072,0.022-0.149,0.068-0.229c0.046-0.08,0.102-0.139,0.165-0.176l0.657-0.379c0.064-0.037,0.119-0.043,0.165-0.016
						c0.046,0.026,0.069,0.076,0.069,0.149V295.478z"/>
					<path style="fill:#455A64;" d="M195.936,287.418c0.064-0.037,0.118-0.042,0.165-0.016c0.046,0.026,0.069,0.076,0.069,0.15
						v0.779c0,0.074-0.023,0.15-0.069,0.23c-0.047,0.08-0.101,0.138-0.165,0.175l-0.744,0.43c-0.063,0.036-0.118,0.042-0.165,0.015
						c-0.046-0.025-0.069-0.076-0.069-0.148v-0.781c0-0.072,0.023-0.15,0.069-0.229c0.047-0.081,0.102-0.139,0.165-0.176
						L195.936,287.418z M196.127,294.138c0,0.073-0.024,0.15-0.069,0.229c-0.047,0.08-0.102,0.139-0.165,0.176l-0.658,0.379
						c-0.063,0.037-0.118,0.043-0.165,0.016c-0.046-0.026-0.068-0.076-0.068-0.15v-4.66c0-0.072,0.022-0.15,0.068-0.23
						c0.047-0.079,0.102-0.139,0.165-0.175l0.658-0.381c0.063-0.036,0.118-0.041,0.165-0.015c0.045,0.027,0.069,0.077,0.069,0.15
						V294.138z"/>
					<path style="fill:#455A64;" d="M198.448,291.077v1.721c0,0.073-0.023,0.15-0.069,0.229c-0.047,0.08-0.102,0.139-0.165,0.176
						l-0.658,0.379c-0.064,0.037-0.118,0.043-0.164,0.016c-0.046-0.026-0.069-0.076-0.069-0.15v-6.561
						c0-0.072,0.023-0.149,0.069-0.228c0.046-0.08,0.101-0.139,0.164-0.176l0.658-0.379c0.064-0.037,0.118-0.043,0.165-0.016
						c0.046,0.026,0.069,0.076,0.069,0.149v3.15l1.446-2.186c0.034-0.054,0.079-0.115,0.135-0.186
						c0.054-0.072,0.122-0.132,0.203-0.178l0.884-0.511c0.057-0.033,0.106-0.038,0.146-0.015c0.04,0.023,0.061,0.068,0.061,0.135
						c0,0.033-0.005,0.068-0.013,0.103c-0.009,0.035-0.037,0.087-0.082,0.153l-2.018,3.045l2.209,1.175
						c0.034,0.02,0.057,0.04,0.069,0.059c0.012,0.02,0.017,0.047,0.017,0.08c0,0.067-0.02,0.136-0.061,0.205
						c-0.04,0.07-0.089,0.121-0.146,0.154l-0.841,0.486c-0.086,0.049-0.16,0.072-0.221,0.067c-0.061-0.005-0.105-0.017-0.134-0.033
						L198.448,291.077z"/>
					<path style="fill:#455A64;" d="M201.669,288.607c0-0.373,0.049-0.754,0.146-1.141c0.099-0.387,0.24-0.754,0.425-1.103
						c0.186-0.351,0.408-0.672,0.672-0.963c0.262-0.293,0.556-0.531,0.879-0.718c0.322-0.186,0.616-0.288,0.878-0.302
						c0.264-0.016,0.487,0.037,0.672,0.162c0.185,0.123,0.327,0.31,0.429,0.561c0.101,0.253,0.151,0.548,0.151,0.888v0.451
						c0,0.072-0.023,0.149-0.069,0.229c-0.046,0.08-0.101,0.139-0.164,0.176l-2.893,1.67c0,0.152,0.027,0.271,0.082,0.357
						c0.056,0.084,0.129,0.141,0.221,0.168c0.093,0.026,0.199,0.024,0.321-0.006c0.12-0.029,0.245-0.081,0.372-0.154
						c0.185-0.107,0.335-0.215,0.45-0.326c0.115-0.109,0.211-0.22,0.286-0.33c0.063-0.089,0.115-0.156,0.155-0.199
						c0.041-0.043,0.095-0.084,0.164-0.125l0.693-0.4c0.064-0.036,0.12-0.042,0.169-0.017c0.049,0.024,0.071,0.075,0.064,0.151
						c-0.006,0.098-0.05,0.244-0.134,0.439c-0.084,0.194-0.209,0.411-0.377,0.647c-0.167,0.236-0.373,0.475-0.619,0.717
						c-0.245,0.242-0.53,0.456-0.852,0.642c-0.323,0.187-0.617,0.291-0.879,0.313c-0.264,0.022-0.486-0.034-0.672-0.168
						c-0.185-0.133-0.326-0.336-0.425-0.609C201.718,289.344,201.669,289.008,201.669,288.607z M203.792,285.883
						c-0.168,0.097-0.311,0.207-0.429,0.332c-0.119,0.125-0.219,0.256-0.299,0.393c-0.081,0.137-0.144,0.272-0.187,0.407
						c-0.043,0.136-0.07,0.256-0.082,0.362l1.957-1.129c-0.012-0.094-0.033-0.185-0.064-0.278c-0.032-0.092-0.084-0.161-0.156-0.21
						c-0.072-0.048-0.167-0.066-0.285-0.055C204.127,285.717,203.976,285.775,203.792,285.883z"/>
					<path style="fill:#455A64;" d="M209.316,285.303c0-0.074-0.02-0.121-0.06-0.146c-0.041-0.023-0.111-0.025-0.212-0.007
						c-0.102,0.018-0.235,0.055-0.403,0.111c-0.167,0.057-0.381,0.127-0.641,0.211c-0.254,0.08-0.465,0.117-0.633,0.115
						c-0.167-0.004-0.301-0.043-0.402-0.117c-0.101-0.076-0.172-0.186-0.213-0.333c-0.039-0.147-0.059-0.321-0.059-0.521
						c0-0.199,0.04-0.42,0.121-0.66c0.081-0.24,0.197-0.479,0.351-0.717c0.153-0.239,0.34-0.468,0.559-0.688
						c0.22-0.221,0.471-0.412,0.753-0.575c0.284-0.163,0.536-0.272,0.758-0.328c0.223-0.054,0.412-0.067,0.568-0.038
						c0.155,0.031,0.277,0.1,0.363,0.205c0.086,0.107,0.135,0.238,0.148,0.391c0.006,0.07-0.017,0.146-0.065,0.228
						c-0.049,0.082-0.105,0.141-0.168,0.177l-0.668,0.386c-0.086,0.05-0.151,0.069-0.194,0.058
						c-0.043-0.012-0.091-0.025-0.143-0.043c-0.053-0.016-0.122-0.018-0.208-0.004c-0.087,0.012-0.217,0.07-0.391,0.17
						c-0.173,0.1-0.326,0.218-0.459,0.355c-0.133,0.136-0.198,0.28-0.198,0.434c0,0.074,0.016,0.127,0.047,0.158
						c0.032,0.031,0.093,0.041,0.182,0.029c0.09-0.012,0.214-0.041,0.373-0.09c0.158-0.047,0.365-0.115,0.619-0.202
						c0.514-0.169,0.876-0.181,1.087-0.032c0.211,0.148,0.316,0.422,0.316,0.822c0,0.199-0.044,0.42-0.13,0.66
						c-0.087,0.24-0.213,0.482-0.377,0.728c-0.165,0.245-0.367,0.482-0.606,0.71c-0.24,0.228-0.51,0.429-0.81,0.602
						c-0.307,0.178-0.576,0.292-0.81,0.343c-0.234,0.052-0.432,0.058-0.593,0.019c-0.163-0.041-0.286-0.119-0.373-0.235
						c-0.087-0.117-0.133-0.253-0.139-0.41c-0.006-0.069,0.016-0.146,0.064-0.228c0.05-0.082,0.107-0.141,0.17-0.178l0.666-0.385
						c0.087-0.05,0.152-0.064,0.195-0.043c0.043,0.021,0.093,0.047,0.147,0.075c0.055,0.028,0.131,0.038,0.229,0.028
						c0.098-0.01,0.245-0.072,0.441-0.186c0.087-0.05,0.177-0.108,0.269-0.176c0.092-0.065,0.178-0.137,0.256-0.211
						c0.077-0.076,0.143-0.153,0.194-0.232C209.29,285.451,209.316,285.375,209.316,285.303z"/>
				</g>
			</g>
			<path id="XMLID_2447_" style="fill:#EBEBEB;" d="M173.658,316.53c0,0.868,0.641,1.203,1.431,0.746l50.828-29.346
				c0.79-0.456,1.431-1.53,1.431-2.399c0-0.868-0.64-1.203-1.43-0.746l-50.829,29.346
				C174.299,314.588,173.658,315.662,173.658,316.53z"/>
			<g id="XMLID_2336_">
				<path id="XMLID_2379_" style="fill:#455A64;" d="M181.706,135.471c4.446-2.567,8.049-0.486,8.049,4.647
					c0,5.133-3.604,11.375-8.049,13.942c-4.446,2.567-8.049,0.486-8.049-4.647C173.657,144.28,177.261,138.038,181.706,135.471z"/>
				<path id="XMLID_2378_" style="fill:#27DEBF;" d="M181.65,139.511c1.442-0.833,2.611-0.158,2.611,1.507
					c0,1.666-1.169,3.691-2.611,4.523c-1.442,0.833-2.611,0.158-2.611-1.508C179.038,142.369,180.207,140.344,181.65,139.511z"/>
				<path id="XMLID_2337_" style="fill:#27DEBF;" d="M186.796,148.391c0-2.736-1.921-3.845-4.29-2.477l-1.481,0.855
					c-2.369,1.368-4.29,4.695-4.29,7.431v0.736c1.37,0.455,3.094,0.208,4.972-0.876c1.931-1.115,3.703-2.925,5.09-5.035V148.391z"/>
			</g>
		</g>
	</g>
</g>
<g id="Characters_1_">
	<g id="Characters">
		<g id="Character_6_">
			<g id="XMLID_1021_">
				<g id="XMLID_1975_">
					<path id="XMLID_1976_" style="fill:#263238;" d="M370.709,256.955h-15.823c-6.384,0-11.559-5.175-11.559-11.559v-2.808
						c-0.206-7.561,5.795-13.858,13.356-14.064l0,0c7.561-0.206,13.858,5.757,14.064,13.318L370.709,256.955z"/>
				</g>
				<path id="XMLID_1973_" style="fill:#263238;" d="M345.762,235.095l-3.129-1.68c0.444-0.897,1.505-1.248,2.369-0.784
					S346.207,234.198,345.762,235.095z"/>
				<path id="XMLID_1972_" style="fill:#263238;" d="M345.813,234.177l-1.002-3.408c0.95-0.314,1.945,0.195,2.222,1.136
					C347.309,232.846,346.763,233.863,345.813,234.177z"/>
				<path id="XMLID_1971_" style="fill:#263238;" d="M320.805,244.705l-3.13-1.68c0.444-0.897,1.505-1.248,2.369-0.784
					C320.909,242.705,321.249,243.808,320.805,244.705z"/>
				<path id="XMLID_1970_" style="fill:#B16668;" d="M363.46,257.566c1.948-0.221,4.735-1.516,7.598,3.831
					c2.863,5.347,8.418,16.816,8.418,16.816l12.307-9.1l3.466,3.773c0,0-12.384,12.1-14.2,13.909
					c-1.443,1.438-3.163,1.622-5.035-0.755c-2.2-2.793-9.141-14.071-9.141-14.071L363.46,257.566z"/>
				<g id="XMLID_1768_">
					<g id="XMLID_1795_">
						<g id="XMLID_1926_">
							<path id="XMLID_1927_" style="fill:#27DEBF;" d="M390.657,273.077l34.242-19.158l0.698,1.988l-33.787,18.903
								C389.978,275.807,389.208,273.809,390.657,273.077z"/>
						</g>
						<g id="XMLID_1924_" style="opacity:0.1;">
							<path id="XMLID_1925_" d="M390.657,273.077l34.242-19.158l0.698,1.988l-33.787,18.903
								C389.978,275.807,389.208,273.809,390.657,273.077z"/>
						</g>
						<g id="XMLID_1796_">
							<path id="XMLID_1920_" style="fill:#37474F;" d="M431.069,242.024l-6.12,3.533c-0.173,0.1-0.313,0.342-0.313,0.541v14.516
								c0,0.199,0.14,0.28,0.313,0.181l6.12-3.533c0.173-0.1,0.313-0.342,0.313-0.542l0-14.516
								C431.381,242.005,431.241,241.924,431.069,242.024z"/>
							<path id="XMLID_1908_" style="fill:#455A64;" d="M424.949,245.557l6.12-3.533c0.154-0.089,0.282-0.034,0.308,0.122
								c-0.023-0.186-0.152-0.393-0.308-0.483l-0.254-0.147c-0.173-0.1-0.453-0.1-0.625,0l-6.12,3.533
								c-0.086,0.05-0.165,0.135-0.221,0.233l0.88,0.508C424.784,245.693,424.863,245.607,424.949,245.557z"/>
							<path id="XMLID_1866_" style="fill:#263238;" d="M423.757,260.107c0,0.199,0.14,0.442,0.313,0.542l0.255,0.147
								c0.156,0.09,0.399,0.098,0.572,0.025c-0.147,0.056-0.26-0.027-0.26-0.206v-14.516c0-0.1,0.035-0.21,0.092-0.308l-0.88-0.508
								c-0.057,0.098-0.092,0.208-0.092,0.308L423.757,260.107z"/>
							<g id="XMLID_1857_">
								<g id="XMLID_1858_">
									<path id="XMLID_1860_" style="fill:#27DEBF;" d="M429.455,250.592l1.926-1.112c0.394-0.228,0.714-0.098,0.714,0.289
										c0,0.387-0.32,0.886-0.714,1.114l-1.921,1.109C429.066,252.219,429.061,250.82,429.455,250.592z"/>
									<path id="XMLID_1859_" style="fill:#27DEBF;" d="M429.455,253.242l1.926-1.112c0.394-0.228,0.714-0.098,0.714,0.289
										c0,0.387-0.32,0.886-0.714,1.113l-1.921,1.109C429.066,254.869,429.061,253.47,429.455,253.242z"/>
								</g>
							</g>
							<path id="XMLID_1856_" style="fill:#263238;" d="M426.009,245.745c-0.282,0.163-0.511,0.577-0.511,0.924v1.102
								c0,0.347,0.229,0.497,0.511,0.334s0.511-0.576,0.511-0.924v-1.102C426.52,245.732,426.292,245.582,426.009,245.745z"/>
							<g id="XMLID_1854_">
								<path id="XMLID_1855_" style="fill:#F5F5F5;" d="M426.009,246.16c-0.121,0.07-0.22,0.241-0.22,0.381s0.099,0.197,0.22,0.127
									c0.121-0.07,0.22-0.241,0.22-0.381C426.229,246.147,426.131,246.09,426.009,246.16z"/>
							</g>
							<g id="XMLID_1807_">
								<path id="XMLID_1853_" style="fill:#F5F5F5;" d="M426.009,247.025c-0.121,0.07-0.22,0.241-0.22,0.381
									c0,0.14,0.099,0.197,0.22,0.127c0.121-0.07,0.22-0.241,0.22-0.381C426.229,247.012,426.131,246.955,426.009,247.025z"/>
							</g>
							<path id="XMLID_1797_" style="fill:#27DEBF;" d="M431.739,249.182c0.197,0.102,0.356,0.37,0.356,0.598v2.896
								c0,0.228-0.157,0.51-0.35,0.63l-0.364,0.226l0.002-4.536C431.383,248.997,431.543,249.08,431.739,249.182z"/>
						</g>
					</g>
					<g id="XMLID_1770_">
						<path id="XMLID_1772_" style="fill:#B16668;" d="M388.72,271.378c1.386-1.297,3.721-3.79,5.009-4.294
							c1.288-0.504,5.544-0.56,6.496-0.952c0.952-0.392,1.166,0.852,0.208,1.476l-8.858,4.956L388.72,271.378z"/>
						<path id="XMLID_1771_" style="fill:#B16668;" d="M392.712,274.306c0.229-0.128,2.175-1.217,2.175-1.217
							c-0.359-0.278-0.805-0.623-1.042-1.01c-0.237-0.387-0.202-0.996-0.049-1.423c0.17-0.474,0.618-0.785,1.055-1.035
							c1.02-0.584,2.382-1.273,3.578-1.324c0.967-0.041,2.093-0.195,3.042,0.079c0.366,0.106,0.827,0.448,0.936,0.662
							c0.282,0.558,0.605,1.986,0.57,2.573c-0.036,0.587-0.931,1.118-1.545,1.24c0,0,0.181,1.604-1.988,1.626
							c0,0-0.028,1.048-1.491,1.152c-1.463,0.104-2.084-0.481-3.633-0.388c-1.549,0.093-3.7,2.171-3.7,2.171L392.712,274.306z"/>
					</g>
				</g>
				<path id="XMLID_1767_" style="fill:#27DEBF;" d="M331.271,267.652c2.529-0.922,15.326-2.985,20.071-2.899l1.41,10.975
					l-16.726,3.548L331.271,267.652z"/>
				<path id="XMLID_1764_" style="opacity:0.1;" d="M331.271,267.652c2.529-0.922,15.326-2.985,20.071-2.899l1.41,10.975
					l-16.726,3.548L331.271,267.652z"/>
				<g id="XMLID_1176_">
					<g id="XMLID_1418_">
						<g id="XMLID_1761_">
							<g id="XMLID_1762_">
								<polygon id="XMLID_1763_" style="fill:#FFA8A7;" points="347.772,381.738 354,381.893 354,373.944 347.772,373.79 								
									"/>
							</g>
						</g>
						<g id="XMLID_1663_">
							<g id="XMLID_1755_">
								<path id="XMLID_1756_" style="fill:#263238;" d="M364.168,379.546c0.334,0.975,1.973,1.747,3.152,2.63
									c1.07,0.8,1.195,2.126,0.751,2.891c-0.444,0.765-2.533,1.163-4.758,0.802c-2.517-0.408-5.16-1.747-5.616-3.977
									c-0.637-3.118-0.675-3.314-1.485-5.461c-0.434-1.149-1.199-2.228-1.021-3.381c0.172-1.115,1.041-2.128,1.885-2.677
									c0,0,4.594,9.641,5.756,9.862C363.994,380.456,364.168,379.546,364.168,379.546z"/>
							</g>
							<g id="XMLID_1664_">
								<path id="XMLID_1669_" style="fill:#FFA8A7;" d="M364.357,367.039c0,0-0.872,3.101-1.162,4.118
									c-0.29,1.017,0.116,6.18,0.654,7.611c0.509,1.353,0.69,1.445,1.38,2.083c0,0,1.675,1.452-0.264,1.742
									c-1.536,0.23-3.485-0.192-4.867-1.771c-1.283-1.466-1.44-5.671-2.301-7.392c-0.552-1.103-0.956-1.786-1.101-2.15
									c-0.145-0.363,0.381-0.557,0.917-2.122c0.536-1.565,0.951-4.68,0.951-4.68L364.357,367.039z"/>
							</g>
						</g>
						<g id="XMLID_1660_">
							<g id="XMLID_1661_">
								<path id="XMLID_1662_" style="fill:#27DEBF;" d="M344.655,295.326c-2.643,7.196-0.573,19.784,0.319,29.474
									c0.777,8.433,1.779,15.606,1.779,15.606s-1.568,3.924-1.456,10.107c0.12,6.57,2.405,24.911,2.405,24.911
									s3.227,1.983,6.374,0.154c0,0,0.898-10.918,1.791-18.454c0.933-7.87,1.245-13.612,2.057-18.213
									c1.012-5.734,1.625-23.992,1.625-23.992l4.572,19.468c0,0-2.045,4.137-3.247,8.797c-1.202,4.661-2.944,23.853-2.944,23.853
									s2.161,2.757,5.957,2.35c0,0,9.939-29.217,11.031-32.223c1.5-4.128-1.515-31.893-2.352-40.983L344.655,295.326z"/>
							</g>
						</g>
						<path id="XMLID_1658_" style="opacity:0.1;" d="M359.55,314.92l0.369-4.664c0,0,4.001,0.234,7.202-2.06
							c0,0-2.045,2.616-5.513,3.362l-0.45,4.258l1.993,14.44L359.55,314.92z"/>
						<g id="XMLID_1655_">
							<g id="XMLID_1656_">
								<path id="XMLID_1657_" style="fill:#F5F5F5;" d="M352.12,259.544c0,0-2.238,0.465-3.937,0.994
									c2.375,5.594-0.297,15.033-0.297,15.033l3.509,9.647c-3.002,3.374-4.806,5.214-6.728,10.079
									c2.021,2.341,14.459,7.874,27.9,0.885c0,0-0.507-8.325-2.348-13.625c2.018-8.427,2.115-10.651,1.539-12.88
									c-1.621-6.272-3.424-7.831-8.299-12.111L352.12,259.544z"/>
							</g>
						</g>
						<g id="XMLID_1425_">
							<g id="XMLID_1426_">
								<path id="XMLID_1654_" style="fill:#263238;" d="M354,379.198v-0.781c0.155,1.19,1.736,4.857,3.901,6.833
									c1.722,1.57,4.07,3.384,4.668,5.135c0.621,1.821-2.774,2.542-5.001,2.319c-2.606-0.261-4.639-1.826-5.602-2.931
									c-1.417-1.624-2.161-2.887-2.822-3.782c-0.661-0.894-2.184-1.892-2.541-2.927c-0.196-0.568,0.037-1.813,0.313-2.865
									c0.253-0.965,0.527-2.026,0.857-1.936c0.001,0.118,0,0.595,0,0.595c0.396,0.439,1.493,0.875,2.729,0.922
									C351.3,379.812,354.007,379.807,354,379.198z"/>
							</g>
						</g>
						<g id="XMLID_1422_">
							<g id="XMLID_1423_">
								<path id="XMLID_1424_" style="fill:#FFA8A7;" d="M347.772,378.859c0.396,0.439,1.492,0.875,2.729,0.922
									c0.798,0.031,3.505,0.026,3.499-0.583v-0.781c0.156,1.19,1.736,4.857,3.902,6.833c0.412,0.376,0.861,0.766,1.312,1.166
									c0.915,1.02,0.656,1.91-1.496,2.096c-2.152,0.186-4.814-1.267-6.446-3.271C349.638,383.238,347.772,378.859,347.772,378.859
									z"/>
							</g>
						</g>
						<g id="XMLID_1419_">
							<g id="XMLID_1420_">
								<polygon id="XMLID_1421_" style="fill:#E0E0E0;" points="349.323,279.519 354.771,286.902 351.396,285.218 								"/>
							</g>
						</g>
					</g>
				</g>
				<g id="XMLID_1026_">
					<g id="XMLID_1048_">
						<g id="XMLID_1174_">
							<path id="XMLID_1175_" style="fill:#B16668;" d="M365.287,234.427c1.469,0.815,3.356,4.404,3.387,12.034
								c0.027,6.466-2.025,8.12-3.064,8.609c-1.039,0.489-3.075,0.264-5.056-0.011l0.035,2.678c0,0,3.556,3.89,3.432,5.673
								c-0.123,1.783-4.549,2.708-7.147,1.04s-4.746-4.649-4.746-4.649l-0.291-9.266c0,0-1.13,1.159-3.145-0.508
								c-1.663-1.376-2.276-3.757-1.045-5.076c1.231-1.32,3.581-1.033,4.528,0.775c0,0,3.148,0.029,7.274-2.385
								C363.575,240.924,365.077,236.94,365.287,234.427z"/>
						</g>
						<g id="XMLID_1172_">
							<path id="XMLID_1173_" style="fill:#263238;" d="M360.618,245.252c0.036,0.465-0.297,0.869-0.745,0.903
								c-0.448,0.034-0.84-0.316-0.876-0.782c-0.036-0.465,0.297-0.869,0.745-0.902C360.19,244.437,360.582,244.787,360.618,245.252
								z"/>
						</g>
						<g id="XMLID_1070_">
							<path id="XMLID_1073_" style="fill:#9A4A4D;" d="M360.984,250.724l1.904,0.551c-0.142,0.544-0.683,0.862-1.209,0.71
								C361.153,251.833,360.842,251.268,360.984,250.724z"/>
						</g>
						<g id="XMLID_1068_">
							<path id="XMLID_1069_" style="fill:#263238;" d="M367.213,242.575l-1.675-1.095c0.287-0.478,0.895-0.62,1.358-0.317
								C367.358,241.465,367.5,242.097,367.213,242.575z"/>
						</g>
						<g id="XMLID_1064_">
							<path id="XMLID_1067_" style="fill:#263238;" d="M366.886,244.493c0.036,0.465-0.298,0.869-0.745,0.903
								c-0.448,0.033-0.84-0.316-0.876-0.781c-0.036-0.465,0.298-0.869,0.745-0.903C366.458,243.678,366.85,244.028,366.886,244.493
								z"/>
						</g>
						<g id="XMLID_1062_">
							<polygon id="XMLID_1063_" style="fill:#9A4A4D;" points="363.206,243.723 363.302,249.02 365.855,248.153 							"/>
						</g>
						<g id="XMLID_1049_">
							<path id="XMLID_1061_" style="fill:#9A4A4D;" d="M360.553,255.059c-2.086-0.216-6.395-1.328-7.107-3
								c0,0,0.251,1.056,1.558,2.116c1.307,1.06,5.567,2.188,5.567,2.188L360.553,255.059z"/>
						</g>
					</g>
				</g>
			</g>
			<path id="XMLID_1020_" style="fill:#FFA8A7;" d="M360.589,257.736l-0.013-0.97c0,0,3.71-0.47,5.483,0.129
				c1.142,0.386,2.739,0.803,4.108,2.024c0.755,0.673,1.618,2.838,1.592,4.196c-0.037,1.881-1.841,2.53-4.275,1.007
				c-1.309-0.819-1.816-2.407-2.683-3.229C362.327,259.871,360.589,257.736,360.589,257.736z"/>
			<path id="XMLID_1017_" style="fill:#B16668;" d="M348.184,260.538c-4.265,1.405-4.862,3.159-6.447,9.33
				c-1.397,5.44-2.103,9.368-2.103,9.368l-5.614,10.979c0,0,9.9-1.203,10.65-3.137c1.63-4.205,4.254-12.422,4.984-15.793
				C350.455,267.582,351.127,263.685,348.184,260.538z"/>
		</g>
		<g id="XMLID_893_">
			<g id="XMLID_950_">
				
					<rect id="XMLID_1016_" x="311.494" y="390.19" transform="matrix(-1 -1.224647e-16 1.224647e-16 -1 628.989 790.6531)" style="fill:#FFA8A7;" width="6.001" height="10.274"/>
				<polygon id="XMLID_1015_" style="fill:#FFA8A7;" points="332.301,389.642 338.299,389.848 338.599,378.975 332.301,378.769 				
					"/>
				<path id="XMLID_1014_" style="fill:#37474F;" d="M310.649,301.241c0,5.731,0.879,51.85,0.879,51.85
					c-0.14,1.649-1.686,4.689-1.351,11.023c0.455,8.604,1.061,31.212,1.061,31.212s2.913,1.702,6.682,0.132
					c0,0,5.677-31.315,6.752-39.841c0.938-7.441,2.531-32.494,2.531-32.494l3.253,29.13c0,0-1.106,4.438-0.744,9.537
					c0.28,3.944,2.21,24.482,2.21,24.482s2.825,1.917,6.929,0.53c0,0,3.414-30.932,3.483-34.55
					c0.079-4.125-1.996-51.074-1.996-51.074L310.649,301.241z"/>
				<path id="XMLID_1011_" style="fill:#263238;" d="M317.495,397.501v-0.858c0.574,0.25,1.908,5.34,4.289,7.512
					c1.893,1.727,4.475,3.721,5.132,5.646c0.683,2.002-3.596,3.107-5.365,2.794c-2.055-0.364-5.616-1.811-6.511-3.152
					c-0.894-1.341-1.313-3.32-2.039-4.303s-2.401-2.081-2.794-3.218c-0.216-0.625,0.04-1.994,0.344-3.15
					c0.278-1.061,0.58-2.228,0.942-2.128c0.001,0.129,0,0.654,0,0.654c0.436,0.483,1.641,0.962,3,1.014
					C315.372,398.345,317.502,398.171,317.495,397.501z"/>
				<path id="XMLID_1010_" style="fill:#263238;" d="M338.363,387.997c0.312,0.011,0.565,0.45,1.253,1.194
					c0.831,0.899,2.189,1.869,3.53,2.54c2.247,1.125,6.616,2.855,8.593,3.746c1.235,0.556,1.177,2.048-0.1,2.898
					c-1.277,0.849-4.359,1.461-8.061,0.633c-2.017-0.451-4.641-2.313-6.303-2.213c-1.661,0.101-4.77,0.077-5.997-0.769
					c-1.226-0.845-0.736-2.651-0.389-4.202c0.378-1.693,0.851-4.333,1.412-4.218v0.584c0.721,1.092,4.445,1.537,6.03,0.733
					L338.363,387.997z"/>
				<path id="XMLID_951_" style="fill:#263238;" d="M327.202,323.124c0,0,4.797-1.351,8.357-4.792c0,0-1.613,3.019-6.408,5.829
					l1.026,26.014L327.202,323.124z"/>
			</g>
			<g id="XMLID_894_">
				<g id="XMLID_929_">
					<path id="XMLID_949_" style="fill:#27DEBF;" d="M314.487,270.517c0,0-4.358,1.231-4.358,8.637l0.317,13.514l-0.063,17.423
						c4.413,4.801,23.977,4.449,30.675-0.384c0,0-0.724-21.189-1.177-30.54c-0.321-6.648-2.556-11.354-8.919-11.496l-8.169,1.122
						L314.487,270.517z"/>
					<g id="XMLID_947_">
						<path id="XMLID_948_" style="fill:#FFA8A7;" d="M299.406,299.799c2.435-18.794,8.035-28.136,14.862-29.235l-0.484,12.025
							c0,0-4.586,10.039-6.498,19.896c-0.898,4.627-1.938,12.671-1.668,16.625c0.048,0.701,0.371,1.352,0.872,1.844
							c1.345,1.318,1.754,2.458,2.658,3.946c0.708,1.165,1.438,1.577,1.25,1.856c-0.242,0.359-1.038,0.852-2.09,0.261
							c-0.529-0.298-1.164-0.902-1.949-1.687c0,0-0.199,2.9,0.98,5.233c1.597,3.161,1.331,4.829-3.092,3.898
							c-2.772-0.584-4.771-3.391-5.513-9.945c-0.214-1.888-0.241-4.941-0.137-7.347C298.867,310.904,298.919,303.56,299.406,299.799
							z"/>
					</g>
					<g id="XMLID_939_">
						<path id="XMLID_946_" style="fill:#27DEBF;" d="M315.756,270.254c-1.792-0.135-6.528,0.718-9.352,5.341
							c-2.824,4.623-6.022,13.995-6.33,16.855c0,0,5.296,2.917,10.055,2.846l4.139-11.38
							C314.269,283.917,316.639,279.449,315.756,270.254z"/>
						<path id="XMLID_945_" style="opacity:0.1;" d="M315.756,270.254c-1.792-0.135-6.528,0.718-9.352,5.341
							c-2.824,4.623-6.022,13.995-6.33,16.855c0,0,5.296,2.917,10.055,2.846l4.139-11.38
							C314.269,283.917,316.639,279.449,315.756,270.254z"/>
					</g>
				</g>
				<g id="XMLID_895_">
					
						<ellipse id="XMLID_926_" transform="matrix(0.9871 -0.1602 0.1602 0.9871 -35.7347 56.1444)" style="fill:#263238;" cx="330.374" cy="249.721" rx="8.934" ry="8.934"/>
					<g id="XMLID_903_">
						<path id="XMLID_916_" style="fill:#263238;" d="M315.756,255.056c0,0,1.37,6.438,1.92,7.496
							c0.55,1.058,1.685,1.359,1.685,1.359l-0.096-4.529L315.756,255.056z"/>
						<path id="XMLID_915_" style="fill:#263238;" d="M317.476,245.833c0,0-1.476-0.253-2.626,0.923
							c-1.128,1.154-0.498,4.764,0.907,8.3l2.581,0.296L317.476,245.833z"/>
						<path id="XMLID_906_" style="fill:#FFA8A7;" d="M319.111,255.354c-0.518,0.309-1.256-0.685-1.894-1.353
							c-0.638-0.668-2.722-1.58-3.761,0.61c-1.059,2.232,0.918,5.181,2.558,5.696c2.827,0.887,3.252-0.926,3.252-0.926l0.216,10.198
							c2.437,2.722,10.769,2.072,9.198-0.27l-0.008-3.104c0,0,2.562,0.389,3.811,0.196c2.079-0.321,3.387-1.962,4.018-4.212
							c1.013-3.615,1.398-6.533,0.538-13.643c-0.942-7.792-10.005-7.873-14.899-4.793
							C317.245,246.834,319.111,255.354,319.111,255.354z"/>
						<path id="XMLID_905_" style="fill:#263238;" d="M319.111,256.225c-0.26,0.005-1.25-1.637-1.895-2.224
							c-0.893-0.812,0.259-8.169,0.259-8.169s-0.858-1.828,0.861-3.721c1.223-1.346,3.267-1.496,6.757-2.044
							c1.831-0.288,4.607-0.8,6.435-1.14c2.183-0.406,3.991-0.836,5.532,0.504c1.2,1.042,1.716,2.885,1.07,4.337
							c-0.151,0.341-0.371,0.648-0.62,0.925c-0.442,0.492-0.942,0.878-1.571,1.082c0,0-0.952,0.845-4.264,1.248
							c-3.312,0.403-8.47-0.077-9.175-0.174c-0.96-0.131-1.165,0.799-1.683,3.342C320.363,252.425,319.986,256.208,319.111,256.225z
							"/>
						<path id="XMLID_904_" style="fill:#F28F8F;" d="M328.671,266.206c0,0-4.641-0.935-6.264-1.798
							c-1.086-0.577-1.98-1.578-2.243-2.219c0,0,0.304,1.377,1.274,2.618c1.187,1.517,7.232,2.634,7.232,2.634L328.671,266.206z"/>
					</g>
					<g id="XMLID_896_">
						<path id="XMLID_902_" style="fill:#263238;" d="M327.556,254.194c0,0.534-0.417,0.965-0.93,0.964
							c-0.514-0.001-0.93-0.435-0.93-0.969c0-0.534,0.416-0.965,0.93-0.964C327.139,253.227,327.556,253.66,327.556,254.194z"/>
						<path id="XMLID_901_" style="fill:#263238;" d="M326.062,250.343l-1.99,1.098c-0.293-0.572-0.086-1.281,0.464-1.584
							C325.086,249.554,325.769,249.772,326.062,250.343z"/>
						<path id="XMLID_900_" style="fill:#F28F8F;" d="M328.251,260.619l2.123,0.797c-0.21,0.608-0.856,0.924-1.442,0.704
							C328.345,261.899,328.04,261.227,328.251,260.619z"/>
						<path id="XMLID_899_" style="fill:#263238;" d="M336.088,251.162l-1.814-1.397c0.37-0.52,1.076-0.628,1.577-0.242
							C336.352,249.908,336.458,250.642,336.088,251.162z"/>
						<path id="XMLID_898_" style="fill:#263238;" d="M335.291,253.929c0,0.534-0.416,0.965-0.93,0.964
							c-0.514-0.001-0.93-0.435-0.93-0.969c0-0.534,0.416-0.965,0.93-0.964C334.874,252.962,335.291,253.395,335.291,253.929z"/>
						<polygon id="XMLID_897_" style="fill:#F28F8F;" points="330.694,253.183 330.802,258.823 334.136,258.088 						"/>
					</g>
				</g>
			</g>
		</g>
	</g>
</g>
<g id="Speech_Bubble">
	<g id="Bubble">
		<g id="XMLID_16798_">
			<g id="XMLID_16790_">
				<path id="XMLID_2505_" style="fill:#27DEBF;" d="M357.002,211.097l-3.299-6.204l2.655-7.663v-4.691l-8.124,4.691v4.69
					l3.493,6.05c0.059,0.102,0.143,0.169,0.237,0.211l-0.002,0.003L357.002,211.097z"/>
			</g>
			<g id="XMLID_2490_" style="opacity:0.3;">
				<path id="XMLID_2491_" d="M357.002,211.097l-3.299-6.204l2.655-7.663v-4.691l-8.124,4.691v4.69l3.493,6.05
					c0.059,0.102,0.143,0.169,0.237,0.211l-0.002,0.003L357.002,211.097z"/>
			</g>
			<g id="XMLID_16769_">
				<g id="XMLID_2493_">
					<path id="XMLID_2494_" style="fill:#27DEBF;" d="M316.412,194.531l62.369-36.047c1.345-0.777,3.526-0.777,4.871,0l1.983,1.145
						c1.345,0.777,2.436,2.666,2.436,4.219l0,18.12c0,1.553-1.09,3.442-2.436,4.219l-62.369,36.048
						c-1.345,0.777-3.526,0.777-4.872,0l-1.983-1.145c-1.345-0.777-2.436-2.665-2.436-4.219v-18.12
						C313.977,197.196,315.067,195.308,316.412,194.531z"/>
				</g>
				<g id="XMLID_16772_" style="opacity:0.4;">
					<path id="XMLID_2504_" style="fill:#FFFFFF;" d="M388.072,163.847c0-1.55-1.09-2.18-2.44-1.41l-62.36,36.05
						c-0.67,0.39-1.29,1.06-1.73,1.82l-6.85-3.96c0.44-0.76,1.05-1.43,1.72-1.82l62.37-36.04c1.35-0.78,3.53-0.78,4.87,0l1.98,1.14
						C386.982,160.407,388.072,162.297,388.072,163.847z"/>
				</g>
				<g id="XMLID_16770_">
					<path id="XMLID_2512_" style="opacity:0.1;" d="M322.632,222.507c-0.15,0.06-0.31,0.11-0.48,0.14
						c-0.21,0.06-0.43,0.1-0.66,0.13h-0.04c-0.08,0.02-0.15,0.02-0.23,0.02c-0.14,0.01-0.29,0.02-0.43,0.02
						c-0.19,0-0.39-0.01-0.58-0.04c-0.03,0-0.07,0-0.11-0.01c-0.18-0.02-0.36-0.05-0.53-0.09c-0.03,0-0.07-0.01-0.1-0.03
						c-0.19-0.04-0.37-0.09-0.54-0.16c-0.19-0.07-0.37-0.15-0.54-0.25l-1.98-1.15c-1.34-0.77-2.43-2.66-2.43-4.22v-18.12
						c0-0.77,0.27-1.63,0.71-2.4l6.85,3.96c-0.44,0.76-0.71,1.62-0.71,2.4v18.12c0,0.27,0.03,0.52,0.1,0.74
						c0.06,0.21,0.15,0.39,0.27,0.54c0.24,0.3,0.58,0.46,0.98,0.46c0.1,0,0.21-0.01,0.32-0.04
						C322.542,222.527,322.592,222.517,322.632,222.507z"/>
				</g>
			</g>
			<g id="XMLID_16786_">
				<path id="XMLID_2492_" style="fill:#27DEBF;" d="M353.328,204.864l3.493,6.049c0.223,0.386,0.796,0.331,0.942-0.09l3.689-10.65
					l0-4.69l-8.124,4.691V204.864z"/>
			</g>
		</g>
		<g id="XMLID_2479_">
			<g id="XMLID_2451_">
				<g id="XMLID_2452_">
					<g id="XMLID_2454_">
						<path id="XMLID_2489_" style="fill:#FAFAFA;" d="M333.03,211.913l-2.496-0.66c-2.383-0.631-5.224-2.023-5.224-5.078
							c0-2.138,1.733-4.873,3.872-6.108c1.968-1.136,3.593,0.079,3.84,1.837c0.247-2.043,1.872-5.135,3.84-6.271
							c2.138-1.235,3.872-0.502,3.872,1.637c0,3.058-2.833,7.724-5.21,11.1L333.03,211.913z"/>
					</g>
				</g>
			</g>
			<g>
				<path style="fill:#FAFAFA;" d="M347.65,197.109c0.208-0.313,0.342-0.584,0.4-0.818c0.059-0.234,0.088-0.436,0.088-0.604
					c0-0.328-0.087-0.556-0.259-0.684c-0.174-0.129-0.461-0.076-0.863,0.156c-0.381,0.221-0.66,0.488-0.837,0.807
					c-0.176,0.317-0.303,0.667-0.379,1.047c-0.022,0.117-0.063,0.219-0.124,0.307c-0.063,0.088-0.126,0.15-0.188,0.186l-0.82,0.475
					c-0.077,0.044-0.145,0.053-0.203,0.025c-0.059-0.025-0.084-0.088-0.077-0.188c0.021-0.373,0.1-0.758,0.238-1.158
					c0.139-0.4,0.324-0.787,0.557-1.162c0.232-0.373,0.504-0.721,0.815-1.039c0.312-0.321,0.648-0.584,1.008-0.793
					c0.437-0.252,0.814-0.388,1.133-0.408c0.318-0.02,0.582,0.041,0.79,0.18c0.208,0.141,0.362,0.34,0.462,0.598
					c0.101,0.258,0.151,0.543,0.151,0.854c0,0.2-0.011,0.396-0.031,0.589c-0.021,0.191-0.069,0.398-0.146,0.623
					c-0.077,0.225-0.186,0.477-0.332,0.756c-0.147,0.281-0.34,0.603-0.583,0.967l-1.922,3.138l2.889-1.668
					c0.076-0.044,0.143-0.05,0.198-0.018c0.055,0.033,0.083,0.093,0.083,0.181v0.852c0,0.088-0.028,0.181-0.083,0.276
					c-0.056,0.096-0.122,0.166-0.198,0.21l-4.852,2.802c-0.077,0.045-0.143,0.05-0.198,0.019c-0.055-0.032-0.083-0.093-0.083-0.181
					v-0.731c0-0.137,0.035-0.274,0.104-0.415c0.069-0.139,0.128-0.243,0.177-0.311L347.65,197.109z"/>
				<path style="fill:#FAFAFA;" d="M355.715,188.758c0.075-0.044,0.142-0.05,0.197-0.018c0.055,0.031,0.083,0.092,0.083,0.18v0.853
					c0,0.088-0.026,0.184-0.078,0.291c-0.051,0.104-0.102,0.2-0.15,0.284l-1.517,2.725c0.31-0.132,0.594-0.207,0.846-0.225
					c0.253-0.019,0.47,0.022,0.65,0.123c0.18,0.1,0.318,0.262,0.416,0.484c0.096,0.225,0.145,0.51,0.145,0.854
					c0,0.416-0.071,0.826-0.214,1.232c-0.142,0.406-0.34,0.795-0.592,1.164c-0.254,0.371-0.552,0.715-0.894,1.032
					c-0.344,0.317-0.716,0.593-1.117,0.825c-0.485,0.279-0.906,0.456-1.263,0.53c-0.357,0.074-0.655,0.076-0.894,0.007
					c-0.239-0.07-0.421-0.201-0.545-0.393c-0.125-0.192-0.197-0.411-0.219-0.654c-0.007-0.092,0.019-0.185,0.078-0.278
					c0.06-0.095,0.126-0.164,0.203-0.208l0.82-0.474c0.069-0.04,0.127-0.047,0.172-0.021c0.045,0.027,0.092,0.073,0.14,0.143
					c0.042,0.071,0.098,0.129,0.167,0.173c0.068,0.044,0.161,0.067,0.275,0.069c0.113,0.002,0.258-0.026,0.431-0.088
					c0.174-0.059,0.385-0.161,0.635-0.305c0.422-0.244,0.764-0.539,1.023-0.885c0.259-0.347,0.39-0.7,0.39-1.06
					c0-0.36-0.131-0.543-0.39-0.55c-0.26-0.006-0.602,0.114-1.023,0.357l-0.863,0.498c-0.076,0.045-0.142,0.051-0.197,0.018
					c-0.056-0.031-0.083-0.092-0.083-0.18v-0.852c0-0.088,0.026-0.186,0.078-0.291c0.052-0.105,0.102-0.201,0.15-0.285l1.455-2.604
					l-2.868,1.656c-0.076,0.044-0.143,0.051-0.197,0.019c-0.056-0.031-0.083-0.092-0.083-0.18v-0.854
					c0-0.088,0.027-0.18,0.083-0.275c0.055-0.096,0.121-0.166,0.197-0.21L355.715,188.758z"/>
			</g>
			<g>
				<path style="fill:#FAFAFA;" d="M380.406,182.902c-0.076,0.044-0.143,0.05-0.197,0.018c-0.056-0.031-0.083-0.092-0.083-0.18
					v-1.453l-3.222,1.861c-0.076,0.043-0.143,0.051-0.197,0.018c-0.056-0.031-0.083-0.092-0.083-0.18v-0.852
					c0-0.111,0.022-0.223,0.067-0.333c0.045-0.109,0.099-0.23,0.161-0.362l3.18-6.42c0.139-0.28,0.281-0.463,0.426-0.547l0.79-0.456
					c0.076-0.044,0.143-0.05,0.197-0.018c0.056,0.031,0.084,0.092,0.084,0.18v4.8l0.893-0.516c0.076-0.044,0.143-0.05,0.198-0.018
					c0.055,0.032,0.083,0.092,0.083,0.18v0.853c0,0.088-0.028,0.18-0.083,0.275c-0.056,0.097-0.122,0.166-0.198,0.21l-0.893,0.516
					v1.452c0,0.088-0.028,0.18-0.084,0.277c-0.055,0.095-0.121,0.165-0.197,0.209L380.406,182.902z M380.126,179.787v-2.566
					l-1.777,3.594L380.126,179.787z"/>
			</g>
			<path id="XMLID_2458_" style="fill:#FAFAFA;" d="M374.349,188.095l-2.246-3.075l-0.008,0.018c0.297-1,0.464-2.003,0.464-2.956
				c-0.001-3.891-2.733-5.467-6.103-3.522c-3.37,1.945-6.101,6.677-6.101,10.568s2.732,5.468,6.103,3.522
				c1.685-0.973,3.211-2.643,4.315-4.555H374.349z"/>
		</g>
	</g>
</g>
<g id="Icons_1_">
	<g id="Icons">
		<g id="Coments_icon">
			<path id="XMLID_841_" style="fill:#27DEBF;" d="M128.379,338.191l-8.133-11.132l-0.031,0.072
				c1.22-4.112,1.893-8.238,1.847-12.141c-0.084-7.151-2.697-12.277-6.805-14.875l0.003-0.004l-7.369-4.555l-0.002,0.003
				c-4.405-2.597-10.516-2.256-17.272,1.645c-13.418,7.747-24.295,26.587-24.295,42.081c0,7.554,2.591,12.909,6.797,15.525
				l-0.005,0.008l0.202,0.117c0.08,0.048,0.161,0.095,0.242,0.14l7.128,3.883l0-0.001c4.446,2.567,10.542,2.274,17.128-1.543
				c6.692-3.879,12.749-10.514,17.136-18.112h12.863C128.386,339.303,128.716,338.653,128.379,338.191z"/>
			<path id="XMLID_1986_" style="opacity:0.1;" d="M80.462,358.827l-6.9-3.75c-0.08-0.05-0.17-0.09-0.25-0.14l-0.2-0.12l0.01-0.01
				c-4.21-2.61-6.8-7.97-6.8-15.52c0-6.56,1.95-13.71,5.22-20.37l7.15,4.13c-3.28,6.66-5.22,13.81-5.22,20.37
				C73.472,350.867,76.162,356.217,80.462,358.827z"/>
			<path id="XMLID_1983_" style="opacity:0.3;fill:#FFFFFF;" d="M115.262,300.107l-0.01,0.01c-4.53-2.88-10.89-2.66-17.7,1.34
				c-7.65,4.5-14.46,12.59-18.86,21.59l-7.15-4.13c0.06-0.14,0.13-0.28,0.2-0.41c0.24-0.5,0.49-0.99,0.75-1.47
				c0.17-0.32,0.35-0.63,0.52-0.94c0.78-1.39,1.61-2.76,2.5-4.08c0.25-0.37,0.5-0.74,0.76-1.11c0.27-0.39,0.54-0.77,0.83-1.15
				c0.21-0.3,0.43-0.58,0.66-0.87c0.24-0.33,0.49-0.65,0.75-0.96c0.07-0.09,0.14-0.18,0.22-0.27c0.32-0.39,0.64-0.77,0.97-1.15
				c0.85-1,1.74-1.95,2.65-2.86c0.34-0.34,0.69-0.68,1.05-1.01c0.38-0.36,0.76-0.71,1.15-1.04c0.37-0.33,0.74-0.65,1.12-0.96
				c0.02-0.01,0.04-0.03,0.06-0.05c1.12-0.91,2.27-1.75,3.45-2.5c0.47-0.31,0.96-0.6,1.44-0.88c3.9-2.25,7.58-3.32,10.85-3.32
				c2.39,0,4.56,0.58,6.42,1.67L115.262,300.107z"/>
		</g>
		<g id="Heart_icon">
			<path id="XMLID_862_" style="fill:#27DEBF;" d="M125.307,210.932l0.01-0.016l-6.939-4.007l-0.003,0.003
				c-2.566-1.521-6.379-1.227-10.638,1.232c-5.893,3.403-10.933,11.658-12.993,18.588l-4.921-2.826l-0.002,0.003
				c-2.527-1.7-5.997-1.959-9.829,0.254c-0.478,0.276-0.949,0.572-1.414,0.888c-0.247,0.167-0.486,0.353-0.729,0.53
				c-0.213,0.156-0.429,0.303-0.639,0.466c-0.326,0.254-0.642,0.525-0.959,0.796c-0.118,0.101-0.241,0.195-0.358,0.299
				c-0.372,0.329-0.734,0.673-1.092,1.023c-0.055,0.054-0.113,0.104-0.168,0.158c-0.399,0.396-0.787,0.805-1.166,1.224
				c-0.01,0.012-0.021,0.022-0.032,0.034c-1.173,1.301-2.244,2.706-3.188,4.169l0,0.001l0,0c-2.616,4.052-4.246,8.544-4.246,12.479
				c0,7.324,4.523,12.002,10.083,14.987l-0.003,0.001l5.471,3.154l0-0.002c3.226,2.023,6.96,3.388,10.428,4.306l9.017,2.386
				l9.011-12.801c8.586-12.197,18.822-29.055,18.822-40.102C128.832,214.602,127.494,212.138,125.307,210.932z"/>
			<g id="XMLID_16749_">
				<g id="XMLID_16969_" style="opacity:0.1;">
					<path id="XMLID_1982_" d="M81.472,264.317l-5.39-3.1c-5.55-2.99-10.08-7.66-10.08-14.99c0-3.93,1.63-8.43,4.25-12.48l7.11,4.1
						c-2.62,4.05-4.25,8.55-4.25,12.48C73.112,256.877,76.732,261.317,81.472,264.317z"/>
				</g>
				<path id="XMLID_2028_" style="opacity:0.3;fill:#FFFFFF;" d="M125.272,210.887c-2.56-1.38-6.29-1.03-10.43,1.36
					c-7.11,4.1-12.98,15.27-13.87,22.65c-0.89-6.35-6.76-10.74-13.87-6.63c-3.79,2.19-7.22,5.67-9.74,9.58l-7.11-4.1
					c0.11-0.17,0.22-0.34,0.34-0.51c0.09-0.14,0.18-0.28,0.29-0.42c0.24-0.35,0.49-0.7,0.74-1.04c0.72-0.95,1.49-1.86,2.31-2.73
					c0.2-0.22,0.41-0.43,0.62-0.64c0.15-0.15,0.3-0.3,0.45-0.44c1.55-1.49,3.23-2.79,4.99-3.81c1.91-1.1,3.74-1.59,5.4-1.59
					c1.66,0,3.16,0.49,4.43,1.34l4.92,2.82c2.06-6.93,7.1-15.18,13-18.58c4.26-2.46,8.07-2.76,10.63-1.24h0.01L125.272,210.887z"/>
			</g>
		</g>
		<g id="Like_icon">
			<g id="XMLID_260_">
				<path id="XMLID_869_" style="fill:#27DEBF;" d="M120.775,150.806c2.066-1.698,3.309-4.622,3.309-6.67
					c0-3.642-2.714-2.836-2.714-2.836c0.735-0.928,2.206-3.221,2.188-5.865c0-1.124-0.434-2.435-1.411-2.929l0.004-0.005l-6.9-3.879
					c-0.652-0.449-1.587-0.504-2.845,0.23l-6.034,3.497c-0.223-1.621-0.661-3.164-1.354-4.687c-0.33-0.729-0.794-1.192-1.33-1.453
					l0.004-0.005l-6.843-3.849c-2.307-1.504-6.311,1.349-6.311,2.489c0,0.768,0.189,3.359,0.251,5.843
					c0.014,0.552,0.021,1.099,0.019,1.619c-0.005,1.301-0.071,2.437-0.252,3.077c-0.056,0.19-0.161,0.487-0.304,0.868
					c-0.062,0.163-0.133,0.346-0.208,0.538c-0.101,0.257-0.21,0.534-0.332,0.837c-0.284,0.704-0.62,1.52-0.986,2.397
					c-0.092,0.219-0.185,0.442-0.28,0.668c-1.044,2.486-2.269,5.336-3.199,7.486c-0.169,0.391-0.328,0.759-0.475,1.097
					c-0.489,1.127-0.834,1.918-0.937,2.154l-0.038-0.022l0.01,11.53l0.011,17.949c0,0,0.039-0.023,0.096-0.055l7.025,4.056
					c0,0,19.56-11.319,22.501-13.017c2.941-1.698,5.007-5.357,4.99-7.808c0-2.048-0.578-3.239-0.578-3.239
					c1.908-1.103,3.817-5.095,3.817-6.793C121.668,151.489,120.775,150.806,120.775,150.806z"/>
				<g id="XMLID_16767_" style="opacity:0.4;">
					<path id="XMLID_2003_" style="fill:#FFFFFF;" d="M103.692,126.207c-2.33-1.14-6.03,1.53-6.03,2.64l-7.12-4
						c0-1.14,4-4,6.31-2.49L103.692,126.207z"/>
					<path id="XMLID_2029_" style="fill:#FFFFFF;" d="M122.152,132.497v0.01c-0.63-0.33-1.51-0.31-2.64,0.35l-13.6,7.86
						c0.63-3.15,0.82-5.86,0.46-8.37l6.04-3.5c1.25-0.73,2.19-0.67,2.84-0.23L122.152,132.497z"/>
				</g>
				<g id="XMLID_16745_" style="opacity:0.1;">
					<polygon id="XMLID_2564_" points="90.938,184.885 83.821,180.775 83.796,151.404 90.914,155.514 					"/>
				</g>
				<g id="XMLID_16703_" style="opacity:0.05;">
					<path id="XMLID_1984_" d="M97.662,139.377c-0.57,2.05-6.75,16.14-6.75,16.14l-7.11-4.01c0,0,6.16-14.09,6.76-16.13
						c0.57-2.04-0.02-9.17-0.02-10.53l7.12,4C97.662,130.217,98.262,137.347,97.662,139.377z"/>
				</g>
			</g>
			<path id="XMLID_833_" style="fill:#27DEBF;" d="M87.682,158.033c0-0.42-0.15-0.87-0.38-1.28c-0.24-0.4-0.56-0.76-0.92-0.97
				l-4.52-2.61c-0.72-0.41-1.87-0.41-2.59,0h-0.01l-7.21,4.17c-0.36,0.21-0.69,0.57-0.92,0.97c-0.23,0.41-0.38,0.87-0.38,1.28v31.19
				c0,0.83,0.58,1.84,1.3,2.25l4.52,2.61c0.36,0.21,0.83,0.31,1.3,0.31c0.47,0,0.93-0.1,1.29-0.3c0-0.01,0.01-0.01,0.01-0.01
				l7.23-4.18c0.72-0.41,1.3-1.41,1.3-2.24v-0.01L87.682,158.033z"/>
			<g id="XMLID_16730_" style="opacity:0.1;">
				<path id="XMLID_871_" d="M77.872,162.203v33.75c-0.47,0-0.94-0.1-1.3-0.31l-4.52-2.61c-0.72-0.41-1.3-1.42-1.3-2.25v-31.19
					c0-0.41,0.15-0.87,0.38-1.28L77.872,162.203z"/>
			</g>
			<g id="XMLID_16729_" style="opacity:0.3;">
				<path id="XMLID_874_" style="fill:#FFFFFF;" d="M87.302,156.753l-9.43,5.45l-6.74-3.89c0.23-0.4,0.56-0.76,0.92-0.97l7.21-4.17
					h0.01c0.72-0.41,1.87-0.41,2.59,0l4.52,2.61C86.742,155.993,87.062,156.353,87.302,156.753z"/>
			</g>
		</g>
	</g>
</g>
</svg>
